%TF.GenerationSoftware,KiCad,Pcbnew,9.0.7*%
%TF.CreationDate,2026-02-02T21:32:54-08:00*%
%TF.ProjectId,Display,44697370-6c61-4792-9e6b-696361645f70,rev?*%
%TF.SameCoordinates,Original*%
%TF.FileFunction,Copper,L2,Bot*%
%TF.FilePolarity,Positive*%
%FSLAX46Y46*%
G04 Gerber Fmt 4.6, Leading zero omitted, Abs format (unit mm)*
G04 Created by KiCad (PCBNEW 9.0.7) date 2026-02-02 21:32:54*
%MOMM*%
%LPD*%
G01*
G04 APERTURE LIST*
%TA.AperFunction,ComponentPad*%
%ADD10C,0.850000*%
%TD*%
%TA.AperFunction,ComponentPad*%
%ADD11R,0.850000X0.850000*%
%TD*%
%TA.AperFunction,ComponentPad*%
%ADD12O,3.556000X1.778000*%
%TD*%
%TA.AperFunction,ComponentPad*%
%ADD13C,1.905000*%
%TD*%
%TA.AperFunction,ComponentPad*%
%ADD14C,1.700000*%
%TD*%
G04 APERTURE END LIST*
D10*
%TO.P,J5,2,Pin_2*%
%TO.N,-BATT*%
X123952000Y-109728000D03*
D11*
%TO.P,J5,1,Pin_1*%
%TO.N,+BATT*%
X122952000Y-109728000D03*
%TD*%
D10*
%TO.P,J1,2,Pin_2*%
%TO.N,GND*%
X103124000Y-104648000D03*
D11*
%TO.P,J1,1,Pin_1*%
%TO.N,/D6*%
X102124000Y-104648000D03*
%TD*%
D12*
%TO.P,U2,1,GPIO1_A0_D0*%
%TO.N,/D0*%
X115062000Y-62484000D03*
%TO.P,U2,2,GPIO2_A1_D1*%
%TO.N,/D1*%
X115062000Y-65024000D03*
%TO.P,U2,3,GPIO3_A2_D2*%
%TO.N,/D2*%
X115062000Y-67564000D03*
%TO.P,U2,4,GPIO4_A3_D3*%
%TO.N,/D3*%
X115062000Y-70104000D03*
%TO.P,U2,5,GPIO4_A3_D3_SDA*%
%TO.N,unconnected-(U2-GPIO4_A3_D3_SDA-Pad5)*%
X115062000Y-72644000D03*
%TO.P,U2,6,GPIO6_A5_D5_SCL*%
%TO.N,unconnected-(U2-GPIO6_A5_D5_SCL-Pad6)*%
X115062000Y-75184000D03*
%TO.P,U2,7,GPIO43_TX_D6*%
%TO.N,/D6*%
X115062000Y-77724000D03*
%TO.P,U2,8,GPIO44_D7_RX*%
%TO.N,unconnected-(U2-GPIO44_D7_RX-Pad8)*%
X131826000Y-77724000D03*
%TO.P,U2,9,GPIO7_A8_D8_SCK*%
%TO.N,/D8*%
X131826000Y-75184000D03*
%TO.P,U2,10,GPIO8_A9_D9_CIPO*%
%TO.N,/D9*%
X131826000Y-72644000D03*
%TO.P,U2,11,GPIO9_A10_D10_COPI*%
%TO.N,/D10*%
X131826000Y-70104000D03*
%TO.P,U2,12,3V3*%
%TO.N,+3V3*%
X131826000Y-67564000D03*
%TO.P,U2,13,GND*%
%TO.N,GND*%
X131826000Y-65024000D03*
%TO.P,U2,14,5V*%
%TO.N,unconnected-(U2-5V-Pad14)*%
X131826000Y-62484000D03*
D13*
%TO.P,U2,15,+BATT*%
%TO.N,+BATT*%
X120904000Y-87884000D03*
%TO.P,U2,16,-BATT*%
%TO.N,-BATT*%
X125984000Y-87884000D03*
%TD*%
D14*
%TO.P,M1,1*%
%TO.N,/D0*%
X84328000Y-69088000D03*
%TO.P,M1,2,-*%
%TO.N,/D1*%
X91948000Y-69088000D03*
%TO.P,M1,3*%
%TO.N,/D2*%
X91948000Y-91948000D03*
%TO.P,M1,4*%
%TO.N,/D3*%
X84328000Y-91948000D03*
%TD*%
%TA.AperFunction,Conductor*%
%TO.N,GND*%
G36*
X170711108Y-55130185D02*
G01*
X170740447Y-55156479D01*
X183367878Y-70755071D01*
X183394760Y-70819562D01*
X183395500Y-70833091D01*
X183395500Y-99826200D01*
X183375815Y-99893239D01*
X183361293Y-99911717D01*
X168478149Y-115539017D01*
X168417661Y-115573987D01*
X168388356Y-115577500D01*
X151534974Y-115577500D01*
X151478330Y-115563806D01*
X142228315Y-110813797D01*
X142228315Y-110813798D01*
X142225590Y-110812398D01*
X142179186Y-110785608D01*
X142167121Y-110782375D01*
X142156015Y-110776672D01*
X142106620Y-110766008D01*
X142103632Y-110765363D01*
X142051892Y-110751500D01*
X142039410Y-110751500D01*
X142027198Y-110748864D01*
X142027197Y-110748864D01*
X141978123Y-110751281D01*
X141976728Y-110751350D01*
X141970631Y-110751500D01*
X124494853Y-110751500D01*
X124427814Y-110731815D01*
X124382059Y-110679011D01*
X124372115Y-110609853D01*
X124401140Y-110546297D01*
X124425961Y-110524398D01*
X124541972Y-110446883D01*
X124670883Y-110317972D01*
X124772167Y-110166389D01*
X124841933Y-109997958D01*
X124877500Y-109819154D01*
X124877500Y-109636846D01*
X124877500Y-109636843D01*
X124841934Y-109458047D01*
X124841933Y-109458046D01*
X124841933Y-109458042D01*
X124841931Y-109458037D01*
X124772168Y-109289612D01*
X124772166Y-109289608D01*
X124670886Y-109138032D01*
X124670880Y-109138024D01*
X124541975Y-109009119D01*
X124541967Y-109009113D01*
X124390391Y-108907833D01*
X124390387Y-108907831D01*
X124221962Y-108838068D01*
X124221952Y-108838065D01*
X124043156Y-108802500D01*
X124043154Y-108802500D01*
X123860846Y-108802500D01*
X123860844Y-108802500D01*
X123682047Y-108838065D01*
X123682034Y-108838069D01*
X123670545Y-108842828D01*
X123601076Y-108850294D01*
X123579765Y-108844447D01*
X123575424Y-108842828D01*
X123544604Y-108831332D01*
X123484481Y-108808908D01*
X123484483Y-108808908D01*
X123424883Y-108802501D01*
X123424881Y-108802500D01*
X123424873Y-108802500D01*
X123424864Y-108802500D01*
X122479129Y-108802500D01*
X122479123Y-108802501D01*
X122419516Y-108808908D01*
X122284671Y-108859202D01*
X122284664Y-108859206D01*
X122169455Y-108945452D01*
X122169452Y-108945455D01*
X122083206Y-109060664D01*
X122083202Y-109060671D01*
X122032908Y-109195517D01*
X122026501Y-109255116D01*
X122026500Y-109255135D01*
X122026500Y-110200870D01*
X122026501Y-110200876D01*
X122032908Y-110260483D01*
X122083202Y-110395328D01*
X122083206Y-110395335D01*
X122169452Y-110510544D01*
X122169453Y-110510544D01*
X122169454Y-110510546D01*
X122187957Y-110524397D01*
X122193082Y-110528234D01*
X122234952Y-110584168D01*
X122239936Y-110653860D01*
X122206450Y-110715183D01*
X122145126Y-110748667D01*
X122118770Y-110751500D01*
X81788834Y-110751500D01*
X81721795Y-110731815D01*
X81702081Y-110716099D01*
X75109032Y-104260405D01*
X75021948Y-104175135D01*
X101198500Y-104175135D01*
X101198500Y-105120870D01*
X101198501Y-105120876D01*
X101204908Y-105180483D01*
X101255202Y-105315328D01*
X101255206Y-105315335D01*
X101341452Y-105430544D01*
X101341455Y-105430547D01*
X101456664Y-105516793D01*
X101456671Y-105516797D01*
X101591517Y-105567091D01*
X101591516Y-105567091D01*
X101598444Y-105567835D01*
X101651127Y-105573500D01*
X102596872Y-105573499D01*
X102656483Y-105567091D01*
X102735944Y-105537454D01*
X102752452Y-105531297D01*
X102822144Y-105526313D01*
X102843235Y-105532917D01*
X102854182Y-105537451D01*
X102854194Y-105537454D01*
X103032890Y-105572999D01*
X103032894Y-105573000D01*
X103215106Y-105573000D01*
X103215109Y-105572999D01*
X103393805Y-105537454D01*
X103393813Y-105537452D01*
X103562151Y-105467724D01*
X103562152Y-105467724D01*
X103578948Y-105456500D01*
X103085818Y-104963371D01*
X103071114Y-104936443D01*
X103054522Y-104910625D01*
X103053630Y-104904424D01*
X103052333Y-104902048D01*
X103050854Y-104888300D01*
X103074272Y-104898000D01*
X103173728Y-104898000D01*
X103265614Y-104859940D01*
X103335940Y-104789614D01*
X103374000Y-104697728D01*
X103374000Y-104647999D01*
X103477553Y-104647999D01*
X103477553Y-104648001D01*
X103932500Y-105102948D01*
X103932500Y-105102947D01*
X103943723Y-105086154D01*
X103943724Y-105086151D01*
X104013452Y-104917813D01*
X104013454Y-104917805D01*
X104048999Y-104739109D01*
X104049000Y-104739106D01*
X104049000Y-104556894D01*
X104048999Y-104556890D01*
X104013454Y-104378194D01*
X104013451Y-104378182D01*
X103943728Y-104209855D01*
X103943725Y-104209849D01*
X103932500Y-104193050D01*
X103477553Y-104647999D01*
X103374000Y-104647999D01*
X103374000Y-104598272D01*
X103335940Y-104506386D01*
X103265614Y-104436060D01*
X103173728Y-104398000D01*
X103074272Y-104398000D01*
X103053526Y-104406593D01*
X103069184Y-104353269D01*
X103085818Y-104332627D01*
X103578947Y-103839498D01*
X103562145Y-103828271D01*
X103393817Y-103758548D01*
X103393805Y-103758545D01*
X103215109Y-103723000D01*
X103032891Y-103723000D01*
X102854190Y-103758545D01*
X102854180Y-103758549D01*
X102843227Y-103763085D01*
X102773757Y-103770548D01*
X102752451Y-103764702D01*
X102656482Y-103728908D01*
X102656483Y-103728908D01*
X102596883Y-103722501D01*
X102596881Y-103722500D01*
X102596873Y-103722500D01*
X102596864Y-103722500D01*
X101651129Y-103722500D01*
X101651123Y-103722501D01*
X101591516Y-103728908D01*
X101456671Y-103779202D01*
X101456664Y-103779206D01*
X101341455Y-103865452D01*
X101341452Y-103865455D01*
X101255206Y-103980664D01*
X101255202Y-103980671D01*
X101204908Y-104115517D01*
X101198501Y-104175116D01*
X101198500Y-104175135D01*
X75021948Y-104175135D01*
X69879747Y-99140064D01*
X69845618Y-99079097D01*
X69842500Y-99051465D01*
X69842500Y-93903837D01*
X86687500Y-93903837D01*
X86687500Y-94132162D01*
X86723215Y-94357660D01*
X86793770Y-94574803D01*
X86897421Y-94778228D01*
X87031621Y-94962937D01*
X87193063Y-95124379D01*
X87377772Y-95258579D01*
X87473884Y-95307550D01*
X87581196Y-95362229D01*
X87581198Y-95362229D01*
X87581201Y-95362231D01*
X87697592Y-95400049D01*
X87798339Y-95432784D01*
X88023838Y-95468500D01*
X88023843Y-95468500D01*
X88252162Y-95468500D01*
X88477660Y-95432784D01*
X88694799Y-95362231D01*
X88898228Y-95258579D01*
X89082937Y-95124379D01*
X89244379Y-94962937D01*
X89378579Y-94778228D01*
X89482231Y-94574799D01*
X89552784Y-94357660D01*
X89563241Y-94291638D01*
X89588500Y-94132162D01*
X89588500Y-93903837D01*
X89552784Y-93678339D01*
X89482229Y-93461196D01*
X89378578Y-93257771D01*
X89336283Y-93199557D01*
X89244379Y-93073063D01*
X89082937Y-92911621D01*
X88898228Y-92777421D01*
X88694803Y-92673770D01*
X88477660Y-92603215D01*
X88252162Y-92567500D01*
X88252157Y-92567500D01*
X88023843Y-92567500D01*
X88023838Y-92567500D01*
X87798339Y-92603215D01*
X87581196Y-92673770D01*
X87377771Y-92777421D01*
X87193061Y-92911622D01*
X87031622Y-93073061D01*
X86897421Y-93257771D01*
X86793770Y-93461196D01*
X86723215Y-93678339D01*
X86687500Y-93903837D01*
X69842500Y-93903837D01*
X69842500Y-91841713D01*
X82977500Y-91841713D01*
X82977500Y-92054286D01*
X83010753Y-92264239D01*
X83076444Y-92466414D01*
X83172951Y-92655820D01*
X83297890Y-92827786D01*
X83448213Y-92978109D01*
X83620179Y-93103048D01*
X83620181Y-93103049D01*
X83620184Y-93103051D01*
X83809588Y-93199557D01*
X84011757Y-93265246D01*
X84221713Y-93298500D01*
X84221714Y-93298500D01*
X84434286Y-93298500D01*
X84434287Y-93298500D01*
X84644243Y-93265246D01*
X84846412Y-93199557D01*
X85035816Y-93103051D01*
X85077094Y-93073061D01*
X85207786Y-92978109D01*
X85207788Y-92978106D01*
X85207792Y-92978104D01*
X85358104Y-92827792D01*
X85358106Y-92827788D01*
X85358109Y-92827786D01*
X85483048Y-92655820D01*
X85483047Y-92655820D01*
X85483051Y-92655816D01*
X85579557Y-92466412D01*
X85645246Y-92264243D01*
X85678500Y-92054287D01*
X85678500Y-91841713D01*
X90597500Y-91841713D01*
X90597500Y-92054286D01*
X90630753Y-92264239D01*
X90696444Y-92466414D01*
X90792951Y-92655820D01*
X90917890Y-92827786D01*
X91068213Y-92978109D01*
X91240179Y-93103048D01*
X91240181Y-93103049D01*
X91240184Y-93103051D01*
X91429588Y-93199557D01*
X91631757Y-93265246D01*
X91841713Y-93298500D01*
X91841714Y-93298500D01*
X92054286Y-93298500D01*
X92054287Y-93298500D01*
X92264243Y-93265246D01*
X92466412Y-93199557D01*
X92655816Y-93103051D01*
X92697094Y-93073061D01*
X92827786Y-92978109D01*
X92827788Y-92978106D01*
X92827792Y-92978104D01*
X92978104Y-92827792D01*
X92978106Y-92827788D01*
X92978109Y-92827786D01*
X93103048Y-92655820D01*
X93103047Y-92655820D01*
X93103051Y-92655816D01*
X93199557Y-92466412D01*
X93265246Y-92264243D01*
X93298500Y-92054287D01*
X93298500Y-91841713D01*
X93265246Y-91631757D01*
X93199557Y-91429588D01*
X93103051Y-91240184D01*
X93103049Y-91240181D01*
X93103048Y-91240179D01*
X92978109Y-91068213D01*
X92827786Y-90917890D01*
X92655820Y-90792951D01*
X92466414Y-90696444D01*
X92466413Y-90696443D01*
X92466412Y-90696443D01*
X92264243Y-90630754D01*
X92264241Y-90630753D01*
X92264240Y-90630753D01*
X92102957Y-90605208D01*
X92054287Y-90597500D01*
X91841713Y-90597500D01*
X91793042Y-90605208D01*
X91631760Y-90630753D01*
X91429585Y-90696444D01*
X91240179Y-90792951D01*
X91068213Y-90917890D01*
X90917890Y-91068213D01*
X90792951Y-91240179D01*
X90696444Y-91429585D01*
X90630753Y-91631760D01*
X90597500Y-91841713D01*
X85678500Y-91841713D01*
X85645246Y-91631757D01*
X85579557Y-91429588D01*
X85483051Y-91240184D01*
X85483049Y-91240181D01*
X85483048Y-91240179D01*
X85358109Y-91068213D01*
X85207786Y-90917890D01*
X85035820Y-90792951D01*
X84846414Y-90696444D01*
X84846413Y-90696443D01*
X84846412Y-90696443D01*
X84644243Y-90630754D01*
X84644241Y-90630753D01*
X84644240Y-90630753D01*
X84482957Y-90605208D01*
X84434287Y-90597500D01*
X84221713Y-90597500D01*
X84173042Y-90605208D01*
X84011760Y-90630753D01*
X83809585Y-90696444D01*
X83620179Y-90792951D01*
X83448213Y-90917890D01*
X83297890Y-91068213D01*
X83172951Y-91240179D01*
X83076444Y-91429585D01*
X83010753Y-91631760D01*
X82977500Y-91841713D01*
X69842500Y-91841713D01*
X69842500Y-89399995D01*
X95337500Y-89399995D01*
X95337500Y-89636004D01*
X95337501Y-89636020D01*
X95368306Y-89870010D01*
X95429394Y-90097993D01*
X95519714Y-90316045D01*
X95519719Y-90316056D01*
X95590677Y-90438957D01*
X95637727Y-90520450D01*
X95637729Y-90520453D01*
X95637730Y-90520454D01*
X95781406Y-90707697D01*
X95781412Y-90707704D01*
X95948295Y-90874587D01*
X95948301Y-90874592D01*
X96135550Y-91018273D01*
X96222049Y-91068213D01*
X96339943Y-91136280D01*
X96339948Y-91136282D01*
X96339951Y-91136284D01*
X96558007Y-91226606D01*
X96785986Y-91287693D01*
X97019989Y-91318500D01*
X97019996Y-91318500D01*
X97256004Y-91318500D01*
X97256011Y-91318500D01*
X97490014Y-91287693D01*
X97717993Y-91226606D01*
X97936049Y-91136284D01*
X98140450Y-91018273D01*
X98327699Y-90874592D01*
X98494592Y-90707699D01*
X98638273Y-90520450D01*
X98756284Y-90316049D01*
X98846606Y-90097993D01*
X98907693Y-89870014D01*
X98938500Y-89636011D01*
X98938500Y-89399989D01*
X98907693Y-89165986D01*
X98846606Y-88938007D01*
X98756284Y-88719951D01*
X98756282Y-88719948D01*
X98756280Y-88719943D01*
X98713322Y-88645538D01*
X98638273Y-88515550D01*
X98494592Y-88328301D01*
X98494587Y-88328295D01*
X98327704Y-88161412D01*
X98327697Y-88161406D01*
X98140454Y-88017730D01*
X98140453Y-88017729D01*
X98140450Y-88017727D01*
X98058957Y-87970677D01*
X97936056Y-87899719D01*
X97936040Y-87899711D01*
X97886846Y-87879335D01*
X97886845Y-87879335D01*
X97717993Y-87809394D01*
X97569652Y-87769646D01*
X119451000Y-87769646D01*
X119451000Y-87998354D01*
X119454069Y-88017730D01*
X119486778Y-88224246D01*
X119486778Y-88224249D01*
X119557450Y-88441755D01*
X119557452Y-88441758D01*
X119661283Y-88645538D01*
X119795714Y-88830566D01*
X119957434Y-88992286D01*
X120142462Y-89126717D01*
X120170726Y-89141118D01*
X120346244Y-89230549D01*
X120563751Y-89301221D01*
X120563752Y-89301221D01*
X120563755Y-89301222D01*
X120789646Y-89337000D01*
X120789647Y-89337000D01*
X121018353Y-89337000D01*
X121018354Y-89337000D01*
X121244245Y-89301222D01*
X121244248Y-89301221D01*
X121244249Y-89301221D01*
X121461755Y-89230549D01*
X121461755Y-89230548D01*
X121461758Y-89230548D01*
X121665538Y-89126717D01*
X121850566Y-88992286D01*
X122012286Y-88830566D01*
X122146717Y-88645538D01*
X122250548Y-88441758D01*
X122321222Y-88224245D01*
X122357000Y-87998354D01*
X122357000Y-87769646D01*
X124531000Y-87769646D01*
X124531000Y-87998354D01*
X124534069Y-88017730D01*
X124566778Y-88224246D01*
X124566778Y-88224249D01*
X124637450Y-88441755D01*
X124637452Y-88441758D01*
X124741283Y-88645538D01*
X124875714Y-88830566D01*
X125037434Y-88992286D01*
X125222462Y-89126717D01*
X125250726Y-89141118D01*
X125426244Y-89230549D01*
X125643751Y-89301221D01*
X125643752Y-89301221D01*
X125643755Y-89301222D01*
X125869646Y-89337000D01*
X125869647Y-89337000D01*
X126098353Y-89337000D01*
X126098354Y-89337000D01*
X126324245Y-89301222D01*
X126324248Y-89301221D01*
X126324249Y-89301221D01*
X126541755Y-89230549D01*
X126541755Y-89230548D01*
X126541758Y-89230548D01*
X126745538Y-89126717D01*
X126930566Y-88992286D01*
X127092286Y-88830566D01*
X127226717Y-88645538D01*
X127330548Y-88441758D01*
X127401222Y-88224245D01*
X127437000Y-87998354D01*
X127437000Y-87769646D01*
X127401222Y-87543755D01*
X127401221Y-87543751D01*
X127401221Y-87543750D01*
X127330549Y-87326244D01*
X127226716Y-87122461D01*
X127092286Y-86937434D01*
X126930566Y-86775714D01*
X126745538Y-86641283D01*
X126541755Y-86537450D01*
X126324248Y-86466778D01*
X126154826Y-86439944D01*
X126098354Y-86431000D01*
X125869646Y-86431000D01*
X125794349Y-86442926D01*
X125643753Y-86466778D01*
X125643750Y-86466778D01*
X125426244Y-86537450D01*
X125222461Y-86641283D01*
X125116896Y-86717980D01*
X125037434Y-86775714D01*
X125037432Y-86775716D01*
X125037431Y-86775716D01*
X124875716Y-86937431D01*
X124875716Y-86937432D01*
X124875714Y-86937434D01*
X124817980Y-87016896D01*
X124741283Y-87122461D01*
X124637450Y-87326244D01*
X124566778Y-87543750D01*
X124566778Y-87543753D01*
X124566778Y-87543755D01*
X124531000Y-87769646D01*
X122357000Y-87769646D01*
X122321222Y-87543755D01*
X122321221Y-87543751D01*
X122321221Y-87543750D01*
X122250549Y-87326244D01*
X122146716Y-87122461D01*
X122012286Y-86937434D01*
X121850566Y-86775714D01*
X121665538Y-86641283D01*
X121461755Y-86537450D01*
X121244248Y-86466778D01*
X121074826Y-86439944D01*
X121018354Y-86431000D01*
X120789646Y-86431000D01*
X120714349Y-86442926D01*
X120563753Y-86466778D01*
X120563750Y-86466778D01*
X120346244Y-86537450D01*
X120142461Y-86641283D01*
X120036896Y-86717980D01*
X119957434Y-86775714D01*
X119957432Y-86775716D01*
X119957431Y-86775716D01*
X119795716Y-86937431D01*
X119795716Y-86937432D01*
X119795714Y-86937434D01*
X119737980Y-87016896D01*
X119661283Y-87122461D01*
X119557450Y-87326244D01*
X119486778Y-87543750D01*
X119486778Y-87543753D01*
X119486778Y-87543755D01*
X119451000Y-87769646D01*
X97569652Y-87769646D01*
X97490010Y-87748306D01*
X97256020Y-87717501D01*
X97256017Y-87717500D01*
X97256011Y-87717500D01*
X97019989Y-87717500D01*
X97019983Y-87717500D01*
X97019979Y-87717501D01*
X96785989Y-87748306D01*
X96558006Y-87809394D01*
X96339954Y-87899714D01*
X96339943Y-87899719D01*
X96135545Y-88017730D01*
X95948302Y-88161406D01*
X95948295Y-88161412D01*
X95781412Y-88328295D01*
X95781406Y-88328302D01*
X95637730Y-88515545D01*
X95519719Y-88719943D01*
X95519714Y-88719954D01*
X95429394Y-88938006D01*
X95368306Y-89165989D01*
X95337501Y-89399979D01*
X95337500Y-89399995D01*
X69842500Y-89399995D01*
X69842500Y-80380378D01*
X75687500Y-80380378D01*
X75687500Y-80655621D01*
X75718315Y-80929108D01*
X75718317Y-80929124D01*
X75779561Y-81197453D01*
X75779565Y-81197465D01*
X75870467Y-81457246D01*
X75989884Y-81705218D01*
X75989886Y-81705221D01*
X76136319Y-81938268D01*
X76307925Y-82153455D01*
X76502545Y-82348075D01*
X76717732Y-82519681D01*
X76950779Y-82666114D01*
X77198757Y-82785534D01*
X77393865Y-82853805D01*
X77458534Y-82876434D01*
X77458546Y-82876438D01*
X77726879Y-82937683D01*
X78000378Y-82968499D01*
X78000379Y-82968500D01*
X78000383Y-82968500D01*
X78275621Y-82968500D01*
X78275621Y-82968499D01*
X78549121Y-82937683D01*
X78817454Y-82876438D01*
X79077243Y-82785534D01*
X79325221Y-82666114D01*
X79558268Y-82519681D01*
X79773455Y-82348075D01*
X79968075Y-82153455D01*
X80139681Y-81938268D01*
X80286114Y-81705221D01*
X80405534Y-81457243D01*
X80496438Y-81197454D01*
X80557683Y-80929121D01*
X80588500Y-80655617D01*
X80588500Y-80380383D01*
X80557683Y-80106879D01*
X80496438Y-79838546D01*
X80405534Y-79578757D01*
X80286114Y-79330779D01*
X80139681Y-79097732D01*
X79968075Y-78882545D01*
X79773455Y-78687925D01*
X79558268Y-78516319D01*
X79325221Y-78369886D01*
X79325218Y-78369884D01*
X79077246Y-78250467D01*
X78817465Y-78159565D01*
X78817453Y-78159561D01*
X78549124Y-78098317D01*
X78549108Y-78098315D01*
X78275621Y-78067500D01*
X78275617Y-78067500D01*
X78000383Y-78067500D01*
X78000379Y-78067500D01*
X77726891Y-78098315D01*
X77726875Y-78098317D01*
X77458546Y-78159561D01*
X77458534Y-78159565D01*
X77198753Y-78250467D01*
X76950781Y-78369884D01*
X76717733Y-78516318D01*
X76502545Y-78687924D01*
X76307924Y-78882545D01*
X76136318Y-79097733D01*
X75989884Y-79330781D01*
X75870467Y-79578753D01*
X75779565Y-79838534D01*
X75779561Y-79838546D01*
X75718317Y-80106875D01*
X75718315Y-80106891D01*
X75687500Y-80380378D01*
X69842500Y-80380378D01*
X69842500Y-68981713D01*
X82977500Y-68981713D01*
X82977500Y-69194287D01*
X83010754Y-69404243D01*
X83064812Y-69570617D01*
X83076444Y-69606414D01*
X83172951Y-69795820D01*
X83297890Y-69967786D01*
X83448213Y-70118109D01*
X83620179Y-70243048D01*
X83620181Y-70243049D01*
X83620184Y-70243051D01*
X83809588Y-70339557D01*
X84011757Y-70405246D01*
X84221713Y-70438500D01*
X84221714Y-70438500D01*
X84434286Y-70438500D01*
X84434287Y-70438500D01*
X84644243Y-70405246D01*
X84846412Y-70339557D01*
X85035816Y-70243051D01*
X85076688Y-70213356D01*
X85207786Y-70118109D01*
X85207788Y-70118106D01*
X85207792Y-70118104D01*
X85358104Y-69967792D01*
X85358106Y-69967788D01*
X85358109Y-69967786D01*
X85483048Y-69795820D01*
X85483047Y-69795820D01*
X85483051Y-69795816D01*
X85579557Y-69606412D01*
X85645246Y-69404243D01*
X85678500Y-69194287D01*
X85678500Y-68981713D01*
X90597500Y-68981713D01*
X90597500Y-69194287D01*
X90630754Y-69404243D01*
X90684812Y-69570617D01*
X90696444Y-69606414D01*
X90792951Y-69795820D01*
X90917890Y-69967786D01*
X91068213Y-70118109D01*
X91240179Y-70243048D01*
X91240181Y-70243049D01*
X91240184Y-70243051D01*
X91429588Y-70339557D01*
X91631757Y-70405246D01*
X91841713Y-70438500D01*
X91841714Y-70438500D01*
X92054286Y-70438500D01*
X92054287Y-70438500D01*
X92264243Y-70405246D01*
X92466412Y-70339557D01*
X92655816Y-70243051D01*
X92696688Y-70213356D01*
X92827786Y-70118109D01*
X92827788Y-70118106D01*
X92827792Y-70118104D01*
X92978104Y-69967792D01*
X92978106Y-69967788D01*
X92978109Y-69967786D01*
X93103048Y-69795820D01*
X93103047Y-69795820D01*
X93103051Y-69795816D01*
X93199557Y-69606412D01*
X93265246Y-69404243D01*
X93298500Y-69194287D01*
X93298500Y-68981713D01*
X93265246Y-68771757D01*
X93199557Y-68569588D01*
X93103051Y-68380184D01*
X93103049Y-68380181D01*
X93103048Y-68380179D01*
X92978109Y-68208213D01*
X92827786Y-68057890D01*
X92655820Y-67932951D01*
X92466414Y-67836444D01*
X92466413Y-67836443D01*
X92466412Y-67836443D01*
X92264243Y-67770754D01*
X92264241Y-67770753D01*
X92264240Y-67770753D01*
X92102957Y-67745208D01*
X92054287Y-67737500D01*
X91841713Y-67737500D01*
X91793042Y-67745208D01*
X91631760Y-67770753D01*
X91429585Y-67836444D01*
X91240179Y-67932951D01*
X91068213Y-68057890D01*
X90917890Y-68208213D01*
X90792951Y-68380179D01*
X90696444Y-68569585D01*
X90630753Y-68771760D01*
X90597500Y-68981713D01*
X85678500Y-68981713D01*
X85645246Y-68771757D01*
X85579557Y-68569588D01*
X85483051Y-68380184D01*
X85483049Y-68380181D01*
X85483048Y-68380179D01*
X85358109Y-68208213D01*
X85207786Y-68057890D01*
X85035820Y-67932951D01*
X84846414Y-67836444D01*
X84846413Y-67836443D01*
X84846412Y-67836443D01*
X84644243Y-67770754D01*
X84644241Y-67770753D01*
X84644240Y-67770753D01*
X84482957Y-67745208D01*
X84434287Y-67737500D01*
X84221713Y-67737500D01*
X84173042Y-67745208D01*
X84011760Y-67770753D01*
X83809585Y-67836444D01*
X83620179Y-67932951D01*
X83448213Y-68057890D01*
X83297890Y-68208213D01*
X83172951Y-68380179D01*
X83076444Y-68569585D01*
X83010753Y-68771760D01*
X82977500Y-68981713D01*
X69842500Y-68981713D01*
X69842500Y-67902290D01*
X69862185Y-67835251D01*
X69898760Y-67798428D01*
X71270466Y-66903837D01*
X86687500Y-66903837D01*
X86687500Y-67132162D01*
X86723215Y-67357660D01*
X86793770Y-67574803D01*
X86876669Y-67737500D01*
X86897421Y-67778228D01*
X87031621Y-67962937D01*
X87193063Y-68124379D01*
X87377772Y-68258579D01*
X87443869Y-68292257D01*
X87581196Y-68362229D01*
X87581198Y-68362229D01*
X87581201Y-68362231D01*
X87697592Y-68400049D01*
X87798339Y-68432784D01*
X88023838Y-68468500D01*
X88023843Y-68468500D01*
X88252162Y-68468500D01*
X88477660Y-68432784D01*
X88694799Y-68362231D01*
X88898228Y-68258579D01*
X89082937Y-68124379D01*
X89244379Y-67962937D01*
X89378579Y-67778228D01*
X89482231Y-67574799D01*
X89552784Y-67357660D01*
X89568777Y-67256686D01*
X89588500Y-67132162D01*
X89588500Y-66903837D01*
X89552784Y-66678339D01*
X89496185Y-66504148D01*
X89482231Y-66461201D01*
X89482229Y-66461198D01*
X89482229Y-66461196D01*
X89419961Y-66338989D01*
X89378579Y-66257772D01*
X89244379Y-66073063D01*
X89082937Y-65911621D01*
X88898228Y-65777421D01*
X88848841Y-65752257D01*
X88694803Y-65673770D01*
X88477660Y-65603215D01*
X88252162Y-65567500D01*
X88252157Y-65567500D01*
X88023843Y-65567500D01*
X88023838Y-65567500D01*
X87798339Y-65603215D01*
X87581196Y-65673770D01*
X87377771Y-65777421D01*
X87193061Y-65911622D01*
X87031622Y-66073061D01*
X86897421Y-66257771D01*
X86793770Y-66461196D01*
X86723215Y-66678339D01*
X86687500Y-66903837D01*
X71270466Y-66903837D01*
X75777999Y-63964142D01*
X78215239Y-62374638D01*
X112783500Y-62374638D01*
X112783500Y-62593361D01*
X112817714Y-62809376D01*
X112885297Y-63017380D01*
X112885298Y-63017383D01*
X112984595Y-63212260D01*
X113113142Y-63389193D01*
X113267806Y-63543857D01*
X113418969Y-63653682D01*
X113461635Y-63709011D01*
X113467614Y-63778625D01*
X113435009Y-63840420D01*
X113418969Y-63854318D01*
X113267806Y-63964142D01*
X113113142Y-64118806D01*
X112984595Y-64295739D01*
X112885298Y-64490616D01*
X112885297Y-64490619D01*
X112817714Y-64698623D01*
X112783500Y-64914638D01*
X112783500Y-65133361D01*
X112817714Y-65349376D01*
X112885297Y-65557380D01*
X112885298Y-65557383D01*
X112952782Y-65689825D01*
X112984461Y-65751998D01*
X112984595Y-65752260D01*
X113113142Y-65929193D01*
X113267806Y-66083857D01*
X113418969Y-66193682D01*
X113461635Y-66249011D01*
X113467614Y-66318625D01*
X113435009Y-66380420D01*
X113418969Y-66394318D01*
X113267806Y-66504142D01*
X113113142Y-66658806D01*
X112984595Y-66835739D01*
X112885298Y-67030616D01*
X112885297Y-67030619D01*
X112817714Y-67238623D01*
X112783500Y-67454638D01*
X112783500Y-67673361D01*
X112817714Y-67889376D01*
X112885297Y-68097380D01*
X112885298Y-68097383D01*
X112984595Y-68292260D01*
X113113142Y-68469193D01*
X113267806Y-68623857D01*
X113418969Y-68733682D01*
X113461635Y-68789011D01*
X113467614Y-68858625D01*
X113435009Y-68920420D01*
X113418969Y-68934318D01*
X113267806Y-69044142D01*
X113113142Y-69198806D01*
X112984595Y-69375739D01*
X112885298Y-69570616D01*
X112885297Y-69570619D01*
X112817714Y-69778623D01*
X112783500Y-69994638D01*
X112783500Y-70213361D01*
X112817714Y-70429376D01*
X112885297Y-70637380D01*
X112885298Y-70637383D01*
X112984595Y-70832260D01*
X113113142Y-71009193D01*
X113267806Y-71163857D01*
X113418969Y-71273682D01*
X113461635Y-71329011D01*
X113467614Y-71398625D01*
X113435009Y-71460420D01*
X113418969Y-71474318D01*
X113267806Y-71584142D01*
X113113142Y-71738806D01*
X112984595Y-71915739D01*
X112885298Y-72110616D01*
X112885297Y-72110619D01*
X112817714Y-72318623D01*
X112783500Y-72534638D01*
X112783500Y-72753361D01*
X112817714Y-72969376D01*
X112885297Y-73177380D01*
X112885298Y-73177383D01*
X112984595Y-73372260D01*
X113113142Y-73549193D01*
X113267806Y-73703857D01*
X113418969Y-73813682D01*
X113461635Y-73869011D01*
X113467614Y-73938625D01*
X113435009Y-74000420D01*
X113418969Y-74014318D01*
X113267806Y-74124142D01*
X113113142Y-74278806D01*
X112984595Y-74455739D01*
X112885298Y-74650616D01*
X112885297Y-74650619D01*
X112817714Y-74858623D01*
X112783500Y-75074638D01*
X112783500Y-75293361D01*
X112817714Y-75509376D01*
X112885297Y-75717380D01*
X112885298Y-75717383D01*
X112984595Y-75912260D01*
X113113142Y-76089193D01*
X113267806Y-76243857D01*
X113418969Y-76353682D01*
X113461635Y-76409011D01*
X113467614Y-76478625D01*
X113435009Y-76540420D01*
X113418969Y-76554318D01*
X113267806Y-76664142D01*
X113113142Y-76818806D01*
X112984595Y-76995739D01*
X112885298Y-77190616D01*
X112885297Y-77190619D01*
X112817714Y-77398623D01*
X112783500Y-77614638D01*
X112783500Y-77833361D01*
X112817714Y-78049376D01*
X112885297Y-78257380D01*
X112885298Y-78257383D01*
X112984595Y-78452260D01*
X113113142Y-78629193D01*
X113267806Y-78783857D01*
X113403641Y-78882545D01*
X113444743Y-78912407D01*
X113572132Y-78977315D01*
X113639616Y-79011701D01*
X113639619Y-79011702D01*
X113743621Y-79045493D01*
X113847625Y-79079286D01*
X113947672Y-79095132D01*
X114063639Y-79113500D01*
X114063644Y-79113500D01*
X116060361Y-79113500D01*
X116165082Y-79096912D01*
X116276375Y-79079286D01*
X116484383Y-79011701D01*
X116679257Y-78912407D01*
X116778601Y-78840229D01*
X116856193Y-78783857D01*
X116856195Y-78783854D01*
X116856199Y-78783852D01*
X117010852Y-78629199D01*
X117010854Y-78629195D01*
X117010857Y-78629193D01*
X117067229Y-78551601D01*
X117139407Y-78452257D01*
X117238701Y-78257383D01*
X117306286Y-78049375D01*
X117323912Y-77938082D01*
X117340500Y-77833361D01*
X117340500Y-77614638D01*
X117320595Y-77488971D01*
X117306286Y-77398625D01*
X117238701Y-77190617D01*
X117238701Y-77190616D01*
X117204315Y-77123132D01*
X117139407Y-76995743D01*
X117131147Y-76984374D01*
X117010857Y-76818806D01*
X116856199Y-76664148D01*
X116856191Y-76664142D01*
X116705028Y-76554316D01*
X116662364Y-76498989D01*
X116656385Y-76429376D01*
X116688990Y-76367580D01*
X116705023Y-76353686D01*
X116856199Y-76243852D01*
X117010852Y-76089199D01*
X117010854Y-76089195D01*
X117010857Y-76089193D01*
X117067229Y-76011601D01*
X117139407Y-75912257D01*
X117238701Y-75717383D01*
X117306286Y-75509375D01*
X117323912Y-75398082D01*
X117340500Y-75293361D01*
X117340500Y-75074638D01*
X117320595Y-74948971D01*
X117306286Y-74858625D01*
X117238701Y-74650617D01*
X117238701Y-74650616D01*
X117204315Y-74583132D01*
X117139407Y-74455743D01*
X117131147Y-74444374D01*
X117010857Y-74278806D01*
X116856199Y-74124148D01*
X116856191Y-74124142D01*
X116705028Y-74014316D01*
X116662364Y-73958989D01*
X116656385Y-73889376D01*
X116688990Y-73827580D01*
X116705023Y-73813686D01*
X116856199Y-73703852D01*
X117010852Y-73549199D01*
X117010854Y-73549195D01*
X117010857Y-73549193D01*
X117067229Y-73471601D01*
X117139407Y-73372257D01*
X117238701Y-73177383D01*
X117306286Y-72969375D01*
X117323912Y-72858082D01*
X117340500Y-72753361D01*
X117340500Y-72534638D01*
X117320595Y-72408971D01*
X117306286Y-72318625D01*
X117238701Y-72110617D01*
X117238701Y-72110616D01*
X117204315Y-72043132D01*
X117139407Y-71915743D01*
X117131147Y-71904374D01*
X117010857Y-71738806D01*
X116856199Y-71584148D01*
X116856191Y-71584142D01*
X116705028Y-71474316D01*
X116662364Y-71418989D01*
X116656385Y-71349376D01*
X116688990Y-71287580D01*
X116705023Y-71273686D01*
X116856199Y-71163852D01*
X117010852Y-71009199D01*
X117010854Y-71009195D01*
X117010857Y-71009193D01*
X117067229Y-70931601D01*
X117139407Y-70832257D01*
X117238701Y-70637383D01*
X117306286Y-70429375D01*
X117326035Y-70304686D01*
X117340500Y-70213361D01*
X117340500Y-69994638D01*
X117309009Y-69795820D01*
X117306286Y-69778625D01*
X117250332Y-69606414D01*
X117238702Y-69570619D01*
X117238701Y-69570616D01*
X117204315Y-69503132D01*
X117139407Y-69375743D01*
X117131147Y-69364374D01*
X117010857Y-69198806D01*
X116856199Y-69044148D01*
X116856191Y-69044142D01*
X116705028Y-68934316D01*
X116662364Y-68878989D01*
X116656385Y-68809376D01*
X116688990Y-68747580D01*
X116705023Y-68733686D01*
X116856199Y-68623852D01*
X117010852Y-68469199D01*
X117010854Y-68469195D01*
X117010857Y-68469193D01*
X117088568Y-68362231D01*
X117139407Y-68292257D01*
X117238701Y-68097383D01*
X117306286Y-67889375D01*
X117330341Y-67737500D01*
X117340500Y-67673361D01*
X117340500Y-67454638D01*
X117311036Y-67268616D01*
X117306286Y-67238625D01*
X117238701Y-67030617D01*
X117238701Y-67030616D01*
X117202377Y-66959328D01*
X117139407Y-66835743D01*
X117131147Y-66824374D01*
X117010857Y-66658806D01*
X116856199Y-66504148D01*
X116797080Y-66461196D01*
X116705028Y-66394316D01*
X116662364Y-66338989D01*
X116656385Y-66269376D01*
X116688990Y-66207580D01*
X116705023Y-66193686D01*
X116856199Y-66083852D01*
X117010852Y-65929199D01*
X117010854Y-65929195D01*
X117010857Y-65929193D01*
X117121124Y-65777421D01*
X117139407Y-65752257D01*
X117238701Y-65557383D01*
X117306286Y-65349375D01*
X117326764Y-65220081D01*
X117340500Y-65133361D01*
X117340500Y-64914638D01*
X117318224Y-64774000D01*
X117306286Y-64698625D01*
X117258197Y-64550619D01*
X117238702Y-64490619D01*
X117238701Y-64490616D01*
X117204315Y-64423132D01*
X117139407Y-64295743D01*
X117131147Y-64284374D01*
X117010857Y-64118806D01*
X116856199Y-63964148D01*
X116856191Y-63964142D01*
X116705028Y-63854316D01*
X116662364Y-63798989D01*
X116656385Y-63729376D01*
X116688990Y-63667580D01*
X116705023Y-63653686D01*
X116856199Y-63543852D01*
X117010852Y-63389199D01*
X117010854Y-63389195D01*
X117010857Y-63389193D01*
X117067229Y-63311601D01*
X117139407Y-63212257D01*
X117238701Y-63017383D01*
X117306286Y-62809375D01*
X117323912Y-62698082D01*
X117340500Y-62593361D01*
X117340500Y-62374638D01*
X129547500Y-62374638D01*
X129547500Y-62593361D01*
X129581714Y-62809376D01*
X129649297Y-63017380D01*
X129649298Y-63017383D01*
X129748595Y-63212260D01*
X129877142Y-63389193D01*
X130031802Y-63543853D01*
X130031807Y-63543857D01*
X130183394Y-63653991D01*
X130226060Y-63709320D01*
X130232039Y-63778934D01*
X130199434Y-63840729D01*
X130183394Y-63854627D01*
X130032133Y-63964524D01*
X130032128Y-63964528D01*
X129877528Y-64119128D01*
X129877524Y-64119133D01*
X129749023Y-64296001D01*
X129649762Y-64490808D01*
X129649761Y-64490811D01*
X129582201Y-64698741D01*
X129570282Y-64774000D01*
X130621749Y-64774000D01*
X130590619Y-64827919D01*
X130556000Y-64957120D01*
X130556000Y-65090880D01*
X130590619Y-65220081D01*
X130621749Y-65274000D01*
X129570282Y-65274000D01*
X129582201Y-65349258D01*
X129649761Y-65557188D01*
X129649762Y-65557191D01*
X129749023Y-65751998D01*
X129877524Y-65928866D01*
X129877528Y-65928871D01*
X130032128Y-66083471D01*
X130032133Y-66083475D01*
X130183394Y-66193372D01*
X130226060Y-66248701D01*
X130232039Y-66318315D01*
X130199434Y-66380110D01*
X130183394Y-66394008D01*
X130031807Y-66504142D01*
X130031802Y-66504146D01*
X129877142Y-66658806D01*
X129748595Y-66835739D01*
X129649298Y-67030616D01*
X129649297Y-67030619D01*
X129581714Y-67238623D01*
X129547500Y-67454638D01*
X129547500Y-67673361D01*
X129581714Y-67889376D01*
X129649297Y-68097380D01*
X129649298Y-68097383D01*
X129748595Y-68292260D01*
X129877142Y-68469193D01*
X130031806Y-68623857D01*
X130182969Y-68733682D01*
X130225635Y-68789011D01*
X130231614Y-68858625D01*
X130199009Y-68920420D01*
X130182969Y-68934318D01*
X130031806Y-69044142D01*
X129877142Y-69198806D01*
X129748595Y-69375739D01*
X129649298Y-69570616D01*
X129649297Y-69570619D01*
X129581714Y-69778623D01*
X129547500Y-69994638D01*
X129547500Y-70213361D01*
X129581714Y-70429376D01*
X129649297Y-70637380D01*
X129649298Y-70637383D01*
X129748595Y-70832260D01*
X129877142Y-71009193D01*
X130031806Y-71163857D01*
X130182969Y-71273682D01*
X130225635Y-71329011D01*
X130231614Y-71398625D01*
X130199009Y-71460420D01*
X130182969Y-71474318D01*
X130031806Y-71584142D01*
X129877142Y-71738806D01*
X129748595Y-71915739D01*
X129649298Y-72110616D01*
X129649297Y-72110619D01*
X129581714Y-72318623D01*
X129547500Y-72534638D01*
X129547500Y-72753361D01*
X129581714Y-72969376D01*
X129649297Y-73177380D01*
X129649298Y-73177383D01*
X129748595Y-73372260D01*
X129877142Y-73549193D01*
X130031806Y-73703857D01*
X130182969Y-73813682D01*
X130225635Y-73869011D01*
X130231614Y-73938625D01*
X130199009Y-74000420D01*
X130182969Y-74014318D01*
X130031806Y-74124142D01*
X129877142Y-74278806D01*
X129748595Y-74455739D01*
X129649298Y-74650616D01*
X129649297Y-74650619D01*
X129581714Y-74858623D01*
X129547500Y-75074638D01*
X129547500Y-75293361D01*
X129581714Y-75509376D01*
X129649297Y-75717380D01*
X129649298Y-75717383D01*
X129748595Y-75912260D01*
X129877142Y-76089193D01*
X130031806Y-76243857D01*
X130182969Y-76353682D01*
X130225635Y-76409011D01*
X130231614Y-76478625D01*
X130199009Y-76540420D01*
X130182969Y-76554318D01*
X130031806Y-76664142D01*
X129877142Y-76818806D01*
X129748595Y-76995739D01*
X129649298Y-77190616D01*
X129649297Y-77190619D01*
X129581714Y-77398623D01*
X129547500Y-77614638D01*
X129547500Y-77833361D01*
X129581714Y-78049376D01*
X129649297Y-78257380D01*
X129649298Y-78257383D01*
X129748595Y-78452260D01*
X129877142Y-78629193D01*
X130031806Y-78783857D01*
X130167641Y-78882545D01*
X130208743Y-78912407D01*
X130336132Y-78977315D01*
X130403616Y-79011701D01*
X130403619Y-79011702D01*
X130507621Y-79045493D01*
X130611625Y-79079286D01*
X130711672Y-79095132D01*
X130827639Y-79113500D01*
X130827644Y-79113500D01*
X132824361Y-79113500D01*
X132929082Y-79096912D01*
X133040375Y-79079286D01*
X133248383Y-79011701D01*
X133443257Y-78912407D01*
X133542601Y-78840229D01*
X133620193Y-78783857D01*
X133620195Y-78783854D01*
X133620199Y-78783852D01*
X133774852Y-78629199D01*
X133774854Y-78629195D01*
X133774857Y-78629193D01*
X133831229Y-78551601D01*
X133903407Y-78452257D01*
X134002701Y-78257383D01*
X134070286Y-78049375D01*
X134087912Y-77938082D01*
X134104500Y-77833361D01*
X134104500Y-77614638D01*
X134084595Y-77488971D01*
X134070286Y-77398625D01*
X134002701Y-77190617D01*
X134002701Y-77190616D01*
X133968315Y-77123132D01*
X133903407Y-76995743D01*
X133895147Y-76984374D01*
X133774857Y-76818806D01*
X133620199Y-76664148D01*
X133620191Y-76664142D01*
X133469028Y-76554316D01*
X133426364Y-76498989D01*
X133420385Y-76429376D01*
X133452990Y-76367580D01*
X133469023Y-76353686D01*
X133620199Y-76243852D01*
X133774852Y-76089199D01*
X133774854Y-76089195D01*
X133774857Y-76089193D01*
X133831229Y-76011601D01*
X133903407Y-75912257D01*
X134002701Y-75717383D01*
X134070286Y-75509375D01*
X134087912Y-75398082D01*
X134104500Y-75293361D01*
X134104500Y-75074638D01*
X134084595Y-74948971D01*
X134070286Y-74858625D01*
X134002701Y-74650617D01*
X134002701Y-74650616D01*
X133968315Y-74583132D01*
X133903407Y-74455743D01*
X133895147Y-74444374D01*
X133774857Y-74278806D01*
X133620199Y-74124148D01*
X133620191Y-74124142D01*
X133469028Y-74014316D01*
X133426364Y-73958989D01*
X133420385Y-73889376D01*
X133452990Y-73827580D01*
X133469023Y-73813686D01*
X133620199Y-73703852D01*
X133774852Y-73549199D01*
X133774854Y-73549195D01*
X133774857Y-73549193D01*
X133831229Y-73471601D01*
X133903407Y-73372257D01*
X134002701Y-73177383D01*
X134070286Y-72969375D01*
X134087912Y-72858082D01*
X134104500Y-72753361D01*
X134104500Y-72534638D01*
X134084595Y-72408971D01*
X134070286Y-72318625D01*
X134002701Y-72110617D01*
X134002701Y-72110616D01*
X133968315Y-72043132D01*
X133903407Y-71915743D01*
X133895147Y-71904374D01*
X133774857Y-71738806D01*
X133620199Y-71584148D01*
X133620191Y-71584142D01*
X133469028Y-71474316D01*
X133426364Y-71418989D01*
X133420385Y-71349376D01*
X133452990Y-71287580D01*
X133469023Y-71273686D01*
X133620199Y-71163852D01*
X133774852Y-71009199D01*
X133774854Y-71009195D01*
X133774857Y-71009193D01*
X133831229Y-70931601D01*
X133903407Y-70832257D01*
X134002701Y-70637383D01*
X134070286Y-70429375D01*
X134090035Y-70304686D01*
X134104500Y-70213361D01*
X134104500Y-69994638D01*
X134073009Y-69795820D01*
X134070286Y-69778625D01*
X134014332Y-69606414D01*
X134002702Y-69570619D01*
X134002701Y-69570616D01*
X133968315Y-69503132D01*
X133903407Y-69375743D01*
X133895147Y-69364374D01*
X133774857Y-69198806D01*
X133620199Y-69044148D01*
X133620191Y-69044142D01*
X133469028Y-68934316D01*
X133426364Y-68878989D01*
X133420385Y-68809376D01*
X133452990Y-68747580D01*
X133469023Y-68733686D01*
X133620199Y-68623852D01*
X133774852Y-68469199D01*
X133774854Y-68469195D01*
X133774857Y-68469193D01*
X133852568Y-68362231D01*
X133903407Y-68292257D01*
X134002701Y-68097383D01*
X134070286Y-67889375D01*
X134094341Y-67737500D01*
X134104500Y-67673361D01*
X134104500Y-67454638D01*
X134075036Y-67268616D01*
X134070286Y-67238625D01*
X134002701Y-67030617D01*
X134002701Y-67030616D01*
X133966377Y-66959328D01*
X133903407Y-66835743D01*
X133895147Y-66824374D01*
X133774857Y-66658806D01*
X133620197Y-66504146D01*
X133620192Y-66504142D01*
X133468605Y-66394008D01*
X133425939Y-66338678D01*
X133419960Y-66269065D01*
X133452565Y-66207270D01*
X133468605Y-66193371D01*
X133619873Y-66083469D01*
X133774471Y-65928871D01*
X133774475Y-65928866D01*
X133902976Y-65751998D01*
X134002237Y-65557191D01*
X134002238Y-65557188D01*
X134069798Y-65349258D01*
X134081718Y-65274000D01*
X131506251Y-65274000D01*
X131537381Y-65220081D01*
X131572000Y-65090880D01*
X131572000Y-64957120D01*
X131537381Y-64827919D01*
X131506251Y-64774000D01*
X134081718Y-64774000D01*
X134069798Y-64698741D01*
X134002238Y-64490811D01*
X134002237Y-64490808D01*
X133902976Y-64296001D01*
X133774475Y-64119133D01*
X133774471Y-64119128D01*
X133619871Y-63964528D01*
X133619866Y-63964524D01*
X133468605Y-63854627D01*
X133425939Y-63799297D01*
X133419960Y-63729684D01*
X133452565Y-63667889D01*
X133468599Y-63653994D01*
X133620199Y-63543852D01*
X133774852Y-63389199D01*
X133774854Y-63389195D01*
X133774857Y-63389193D01*
X133831229Y-63311601D01*
X133903407Y-63212257D01*
X134002701Y-63017383D01*
X134070286Y-62809375D01*
X134087912Y-62698082D01*
X134104500Y-62593361D01*
X134104500Y-62374638D01*
X134084595Y-62248971D01*
X134070286Y-62158625D01*
X134002701Y-61950617D01*
X134002701Y-61950616D01*
X133968315Y-61883132D01*
X133903407Y-61755743D01*
X133895147Y-61744374D01*
X133774857Y-61578806D01*
X133620193Y-61424142D01*
X133443260Y-61295595D01*
X133443259Y-61295594D01*
X133443257Y-61295593D01*
X133380825Y-61263782D01*
X133248383Y-61196298D01*
X133248380Y-61196297D01*
X133040376Y-61128714D01*
X132824361Y-61094500D01*
X132824356Y-61094500D01*
X130827644Y-61094500D01*
X130827639Y-61094500D01*
X130611623Y-61128714D01*
X130403619Y-61196297D01*
X130403616Y-61196298D01*
X130208739Y-61295595D01*
X130031806Y-61424142D01*
X129877142Y-61578806D01*
X129748595Y-61755739D01*
X129649298Y-61950616D01*
X129649297Y-61950619D01*
X129581714Y-62158623D01*
X129547500Y-62374638D01*
X117340500Y-62374638D01*
X117320595Y-62248971D01*
X117306286Y-62158625D01*
X117238701Y-61950617D01*
X117238701Y-61950616D01*
X117204315Y-61883132D01*
X117139407Y-61755743D01*
X117131147Y-61744374D01*
X117010857Y-61578806D01*
X116856193Y-61424142D01*
X116679260Y-61295595D01*
X116679259Y-61295594D01*
X116679257Y-61295593D01*
X116616825Y-61263782D01*
X116484383Y-61196298D01*
X116484380Y-61196297D01*
X116276376Y-61128714D01*
X116060361Y-61094500D01*
X116060356Y-61094500D01*
X114063644Y-61094500D01*
X114063639Y-61094500D01*
X113847623Y-61128714D01*
X113639619Y-61196297D01*
X113639616Y-61196298D01*
X113444739Y-61295595D01*
X113267806Y-61424142D01*
X113113142Y-61578806D01*
X112984595Y-61755739D01*
X112885298Y-61950616D01*
X112885297Y-61950619D01*
X112817714Y-62158623D01*
X112783500Y-62374638D01*
X78215239Y-62374638D01*
X78381958Y-62265908D01*
X81143908Y-60464636D01*
X81210814Y-60444503D01*
X81211645Y-60444500D01*
X110932108Y-60444500D01*
X144000641Y-60444500D01*
X144049079Y-60447862D01*
X144066327Y-60444500D01*
X144083892Y-60444500D01*
X144112172Y-60436921D01*
X144126627Y-60433049D01*
X144134986Y-60431116D01*
X144178429Y-60422649D01*
X144183455Y-60420194D01*
X144205775Y-60411841D01*
X144211186Y-60410392D01*
X144249509Y-60388264D01*
X144257071Y-60384241D01*
X155029931Y-55123077D01*
X155084347Y-55110500D01*
X170644069Y-55110500D01*
X170711108Y-55130185D01*
G37*
%TD.AperFunction*%
%TD*%
M02*
