M48
; DRILL file {KiCad 9.0.7} date 2026-02-02T21:32:56-0800
; FORMAT={-:-/ absolute / metric / decimal}
; #@! TF.CreationDate,2026-02-02T21:32:56-08:00
; #@! TF.GenerationSoftware,Kicad,Pcbnew,9.0.7
; #@! TF.FileFunction,Plated,1,2,PTH
FMAT,2
METRIC
; #@! TA.AperFunction,Plated,PTH,ComponentDrill
T1C0.500
; #@! TA.AperFunction,Plated,PTH,ComponentDrill
T2C0.850
; #@! TA.AperFunction,Plated,PTH,ComponentDrill
T3C1.016
%
G90
G05
T1
X102.124Y-104.648
X103.124Y-104.648
X122.952Y-109.728
X123.952Y-109.728
T2
X84.328Y-69.088
X84.328Y-91.948
X91.948Y-69.088
X91.948Y-91.948
T3
X115.824Y-62.484
X115.824Y-65.024
X115.824Y-67.564
X115.824Y-70.104
X115.824Y-72.644
X115.824Y-75.184
X115.824Y-77.724
X120.904Y-87.884
X125.984Y-87.884
X131.064Y-62.484
X131.064Y-65.024
X131.064Y-67.564
X131.064Y-70.104
X131.064Y-72.644
X131.064Y-75.184
X131.064Y-77.724
M30
