%TF.GenerationSoftware,KiCad,Pcbnew,9.0.7*%
%TF.CreationDate,2026-02-02T18:02:46-08:00*%
%TF.ProjectId,Sensor,53656e73-6f72-42e6-9b69-6361645f7063,rev?*%
%TF.SameCoordinates,Original*%
%TF.FileFunction,Soldermask,Top*%
%TF.FilePolarity,Negative*%
%FSLAX46Y46*%
G04 Gerber Fmt 4.6, Leading zero omitted, Abs format (unit mm)*
G04 Created by KiCad (PCBNEW 9.0.7) date 2026-02-02 18:02:46*
%MOMM*%
%LPD*%
G01*
G04 APERTURE LIST*
G04 Aperture macros list*
%AMRoundRect*
0 Rectangle with rounded corners*
0 $1 Rounding radius*
0 $2 $3 $4 $5 $6 $7 $8 $9 X,Y pos of 4 corners*
0 Add a 4 corners polygon primitive as box body*
4,1,4,$2,$3,$4,$5,$6,$7,$8,$9,$2,$3,0*
0 Add four circle primitives for the rounded corners*
1,1,$1+$1,$2,$3*
1,1,$1+$1,$4,$5*
1,1,$1+$1,$6,$7*
1,1,$1+$1,$8,$9*
0 Add four rect primitives between the rounded corners*
20,1,$1+$1,$2,$3,$4,$5,0*
20,1,$1+$1,$4,$5,$6,$7,0*
20,1,$1+$1,$6,$7,$8,$9,0*
20,1,$1+$1,$8,$9,$2,$3,0*%
G04 Aperture macros list end*
%ADD10R,0.850000X0.850000*%
%ADD11C,0.850000*%
%ADD12RoundRect,0.250000X0.450000X-0.350000X0.450000X0.350000X-0.450000X0.350000X-0.450000X-0.350000X0*%
%ADD13R,1.100000X0.250000*%
%ADD14O,3.556000X1.778000*%
%ADD15C,1.905000*%
G04 APERTURE END LIST*
D10*
%TO.C,J4*%
X117850000Y-102608000D03*
D11*
X117850000Y-103608000D03*
%TD*%
D12*
%TO.C,R2*%
X114300000Y-98004000D03*
X114300000Y-96004000D03*
%TD*%
D10*
%TO.C,J3*%
X114300000Y-102608000D03*
D11*
X114300000Y-103608000D03*
%TD*%
D10*
%TO.C,J1*%
X140716000Y-105172000D03*
D11*
X140716000Y-106172000D03*
%TD*%
D13*
%TO.C,U3*%
X112268000Y-90424000D03*
X112268000Y-90924000D03*
X112268000Y-91424000D03*
X112268000Y-91924000D03*
X112268000Y-92424000D03*
X116568000Y-92424000D03*
X116568000Y-91924000D03*
X116568000Y-91424000D03*
X116568000Y-90924000D03*
X116568000Y-90424000D03*
%TD*%
D12*
%TO.C,R1*%
X111350000Y-98004000D03*
X111350000Y-96004000D03*
%TD*%
%TO.C,R3*%
X117250000Y-98004000D03*
X117250000Y-96004000D03*
%TD*%
D10*
%TO.C,J2*%
X110750000Y-102608000D03*
D11*
X110750000Y-103608000D03*
%TD*%
D14*
%TO.C,U1*%
X122682000Y-79756000D03*
X122682000Y-82296000D03*
X122682000Y-84836000D03*
X122682000Y-87376000D03*
X122682000Y-89916000D03*
X122682000Y-92456000D03*
X122682000Y-94996000D03*
X139446000Y-94996000D03*
X139446000Y-92456000D03*
X139446000Y-89916000D03*
X139446000Y-87376000D03*
X139446000Y-84836000D03*
X139446000Y-82296000D03*
X139446000Y-79756000D03*
D15*
X128524000Y-105156000D03*
X133604000Y-105156000D03*
%TD*%
M02*
