M48
; DRILL file {KiCad 9.0.7} date 2026-02-02T18:02:51-0800
; FORMAT={-:-/ absolute / metric / decimal}
; #@! TF.CreationDate,2026-02-02T18:02:51-08:00
; #@! TF.GenerationSoftware,Kicad,Pcbnew,9.0.7
; #@! TF.FileFunction,Plated,1,2,PTH
FMAT,2
METRIC
; #@! TA.AperFunction,Plated,PTH,ViaDrill
T1C0.300
; #@! TA.AperFunction,Plated,PTH,ComponentDrill
T2C0.500
; #@! TA.AperFunction,Plated,PTH,ComponentDrill
T3C1.016
%
G90
G05
T1
X111.76Y-100.584
X114.3Y-91.44
X114.808Y-100.584
X117.348Y-100.076
X117.856Y-90.324
X119.38Y-91.948
T2
X110.75Y-102.608
X110.75Y-103.608
X114.3Y-102.608
X114.3Y-103.608
X117.85Y-102.608
X117.85Y-103.608
X140.716Y-105.172
X140.716Y-106.172
T3
X123.444Y-79.756
X123.444Y-82.296
X123.444Y-84.836
X123.444Y-87.376
X123.444Y-89.916
X123.444Y-92.456
X123.444Y-94.996
X128.524Y-105.156
X133.604Y-105.156
X138.684Y-79.756
X138.684Y-82.296
X138.684Y-84.836
X138.684Y-87.376
X138.684Y-89.916
X138.684Y-92.456
X138.684Y-94.996
M30
