%TF.GenerationSoftware,KiCad,Pcbnew,9.0.7*%
%TF.CreationDate,2026-02-02T18:02:46-08:00*%
%TF.ProjectId,Sensor,53656e73-6f72-42e6-9b69-6361645f7063,rev?*%
%TF.SameCoordinates,Original*%
%TF.FileFunction,Copper,L2,Bot*%
%TF.FilePolarity,Positive*%
%FSLAX46Y46*%
G04 Gerber Fmt 4.6, Leading zero omitted, Abs format (unit mm)*
G04 Created by KiCad (PCBNEW 9.0.7) date 2026-02-02 18:02:46*
%MOMM*%
%LPD*%
G01*
G04 APERTURE LIST*
%TA.AperFunction,ComponentPad*%
%ADD10R,0.850000X0.850000*%
%TD*%
%TA.AperFunction,ComponentPad*%
%ADD11C,0.850000*%
%TD*%
%TA.AperFunction,ComponentPad*%
%ADD12O,3.556000X1.778000*%
%TD*%
%TA.AperFunction,ComponentPad*%
%ADD13C,1.905000*%
%TD*%
%TA.AperFunction,ViaPad*%
%ADD14C,0.600000*%
%TD*%
%TA.AperFunction,Conductor*%
%ADD15C,0.200000*%
%TD*%
G04 APERTURE END LIST*
D10*
%TO.P,J4,1,Pin_1*%
%TO.N,Net-(J4-Pin_1)*%
X117850000Y-102608000D03*
D11*
%TO.P,J4,2,Pin_2*%
%TO.N,+3V3*%
X117850000Y-103608000D03*
%TD*%
D10*
%TO.P,J3,1,Pin_1*%
%TO.N,Net-(J3-Pin_1)*%
X114300000Y-102608000D03*
D11*
%TO.P,J3,2,Pin_2*%
%TO.N,+3V3*%
X114300000Y-103608000D03*
%TD*%
D10*
%TO.P,J1,1,Pin_1*%
%TO.N,+BATT*%
X140716000Y-105172000D03*
D11*
%TO.P,J1,2,Pin_2*%
%TO.N,-BATT*%
X140716000Y-106172000D03*
%TD*%
D10*
%TO.P,J2,1,Pin_1*%
%TO.N,Net-(J2-Pin_1)*%
X110750000Y-102608000D03*
D11*
%TO.P,J2,2,Pin_2*%
%TO.N,+3V3*%
X110750000Y-103608000D03*
%TD*%
D12*
%TO.P,U1,1,GPIO1_A0_D0*%
%TO.N,unconnected-(U1-GPIO1_A0_D0-Pad1)*%
X122682000Y-79756000D03*
%TO.P,U1,2,GPIO2_A1_D1*%
%TO.N,unconnected-(U1-GPIO2_A1_D1-Pad2)*%
X122682000Y-82296000D03*
%TO.P,U1,3,GPIO3_A2_D2*%
%TO.N,unconnected-(U1-GPIO3_A2_D2-Pad3)*%
X122682000Y-84836000D03*
%TO.P,U1,4,GPIO4_A3_D3*%
%TO.N,unconnected-(U1-GPIO4_A3_D3-Pad4)*%
X122682000Y-87376000D03*
%TO.P,U1,5,GPIO4_A3_D3_SDA*%
%TO.N,/SDA*%
X122682000Y-89916000D03*
%TO.P,U1,6,GPIO6_A5_D5_SCL*%
%TO.N,/SCL*%
X122682000Y-92456000D03*
%TO.P,U1,7,GPIO43_TX_D6*%
%TO.N,unconnected-(U1-GPIO43_TX_D6-Pad7)*%
X122682000Y-94996000D03*
%TO.P,U1,8,GPIO44_D7_RX*%
%TO.N,unconnected-(U1-GPIO44_D7_RX-Pad8)*%
X139446000Y-94996000D03*
%TO.P,U1,9,GPIO7_A8_D8_SCK*%
%TO.N,unconnected-(U1-GPIO7_A8_D8_SCK-Pad9)*%
X139446000Y-92456000D03*
%TO.P,U1,10,GPIO8_A9_D9_CIPO*%
%TO.N,unconnected-(U1-GPIO8_A9_D9_CIPO-Pad10)*%
X139446000Y-89916000D03*
%TO.P,U1,11,GPIO9_A10_D10_COPI*%
%TO.N,unconnected-(U1-GPIO9_A10_D10_COPI-Pad11)*%
X139446000Y-87376000D03*
%TO.P,U1,12,3V3*%
%TO.N,+3V3*%
X139446000Y-84836000D03*
%TO.P,U1,13,GND*%
%TO.N,GND*%
X139446000Y-82296000D03*
%TO.P,U1,14,5V*%
%TO.N,unconnected-(U1-5V-Pad14)*%
X139446000Y-79756000D03*
D13*
%TO.P,U1,15,+BATT*%
%TO.N,+BATT*%
X128524000Y-105156000D03*
%TO.P,U1,16,-BATT*%
%TO.N,-BATT*%
X133604000Y-105156000D03*
%TD*%
D14*
%TO.N,GND*%
X111760000Y-100584000D03*
X114808000Y-100584000D03*
X114300000Y-91440000D03*
X117348000Y-100076000D03*
%TO.N,/SCL*%
X117856000Y-90324000D03*
X119380000Y-91948000D03*
%TD*%
D15*
%TO.N,/SCL*%
X119380000Y-91848000D02*
X117856000Y-90324000D01*
X119380000Y-91948000D02*
X119380000Y-91848000D01*
%TD*%
%TA.AperFunction,Conductor*%
%TO.N,GND*%
G36*
X140738922Y-77209280D02*
G01*
X140829266Y-77219459D01*
X140856331Y-77225636D01*
X140935540Y-77253352D01*
X140960553Y-77265398D01*
X141031606Y-77310043D01*
X141053313Y-77327355D01*
X141112644Y-77386686D01*
X141129957Y-77408395D01*
X141174600Y-77479444D01*
X141186648Y-77504462D01*
X141214362Y-77583666D01*
X141220540Y-77610735D01*
X141230720Y-77701076D01*
X141231500Y-77714961D01*
X141231500Y-78450967D01*
X141211815Y-78518006D01*
X141159011Y-78563761D01*
X141089853Y-78573705D01*
X141051205Y-78561452D01*
X140868383Y-78468298D01*
X140868380Y-78468297D01*
X140660376Y-78400714D01*
X140444361Y-78366500D01*
X140444356Y-78366500D01*
X138447644Y-78366500D01*
X138447639Y-78366500D01*
X138231623Y-78400714D01*
X138023619Y-78468297D01*
X138023616Y-78468298D01*
X137828739Y-78567595D01*
X137651806Y-78696142D01*
X137497142Y-78850806D01*
X137368595Y-79027739D01*
X137269298Y-79222616D01*
X137269297Y-79222619D01*
X137201714Y-79430623D01*
X137167500Y-79646638D01*
X137167500Y-79865361D01*
X137201714Y-80081376D01*
X137269297Y-80289380D01*
X137269298Y-80289383D01*
X137368595Y-80484260D01*
X137497142Y-80661193D01*
X137651802Y-80815853D01*
X137651807Y-80815857D01*
X137803394Y-80925991D01*
X137846060Y-80981320D01*
X137852039Y-81050934D01*
X137819434Y-81112729D01*
X137803394Y-81126627D01*
X137652133Y-81236524D01*
X137652128Y-81236528D01*
X137497528Y-81391128D01*
X137497524Y-81391133D01*
X137369023Y-81568001D01*
X137269762Y-81762808D01*
X137269761Y-81762811D01*
X137202201Y-81970741D01*
X137190282Y-82046000D01*
X138241749Y-82046000D01*
X138210619Y-82099919D01*
X138176000Y-82229120D01*
X138176000Y-82362880D01*
X138210619Y-82492081D01*
X138241749Y-82546000D01*
X137190282Y-82546000D01*
X137202201Y-82621258D01*
X137269761Y-82829188D01*
X137269762Y-82829191D01*
X137369023Y-83023998D01*
X137497524Y-83200866D01*
X137497528Y-83200871D01*
X137652128Y-83355471D01*
X137652133Y-83355475D01*
X137803394Y-83465372D01*
X137846060Y-83520701D01*
X137852039Y-83590315D01*
X137819434Y-83652110D01*
X137803394Y-83666008D01*
X137651807Y-83776142D01*
X137651802Y-83776146D01*
X137497142Y-83930806D01*
X137368595Y-84107739D01*
X137269298Y-84302616D01*
X137269297Y-84302619D01*
X137201714Y-84510623D01*
X137167500Y-84726638D01*
X137167500Y-84945361D01*
X137201714Y-85161376D01*
X137269297Y-85369380D01*
X137269298Y-85369383D01*
X137368595Y-85564260D01*
X137497142Y-85741193D01*
X137651806Y-85895857D01*
X137802969Y-86005682D01*
X137845635Y-86061011D01*
X137851614Y-86130625D01*
X137819009Y-86192420D01*
X137802969Y-86206318D01*
X137651806Y-86316142D01*
X137497142Y-86470806D01*
X137368595Y-86647739D01*
X137269298Y-86842616D01*
X137269297Y-86842619D01*
X137201714Y-87050623D01*
X137167500Y-87266638D01*
X137167500Y-87485361D01*
X137201714Y-87701376D01*
X137269297Y-87909380D01*
X137269298Y-87909383D01*
X137368595Y-88104260D01*
X137497142Y-88281193D01*
X137651806Y-88435857D01*
X137802969Y-88545682D01*
X137845635Y-88601011D01*
X137851614Y-88670625D01*
X137819009Y-88732420D01*
X137802969Y-88746318D01*
X137651806Y-88856142D01*
X137497142Y-89010806D01*
X137368595Y-89187739D01*
X137269298Y-89382616D01*
X137269297Y-89382619D01*
X137201714Y-89590623D01*
X137167500Y-89806638D01*
X137167500Y-90025361D01*
X137201714Y-90241376D01*
X137269297Y-90449380D01*
X137269298Y-90449383D01*
X137368595Y-90644260D01*
X137497142Y-90821193D01*
X137651806Y-90975857D01*
X137802969Y-91085682D01*
X137845635Y-91141011D01*
X137851614Y-91210625D01*
X137819009Y-91272420D01*
X137802969Y-91286318D01*
X137651806Y-91396142D01*
X137497142Y-91550806D01*
X137368595Y-91727739D01*
X137269298Y-91922616D01*
X137269297Y-91922619D01*
X137201714Y-92130623D01*
X137167500Y-92346638D01*
X137167500Y-92565361D01*
X137201714Y-92781376D01*
X137269297Y-92989380D01*
X137269298Y-92989383D01*
X137368595Y-93184260D01*
X137497142Y-93361193D01*
X137651806Y-93515857D01*
X137802969Y-93625682D01*
X137845635Y-93681011D01*
X137851614Y-93750625D01*
X137819009Y-93812420D01*
X137802969Y-93826318D01*
X137651806Y-93936142D01*
X137497142Y-94090806D01*
X137368595Y-94267739D01*
X137269298Y-94462616D01*
X137269297Y-94462619D01*
X137201714Y-94670623D01*
X137167500Y-94886638D01*
X137167500Y-95105361D01*
X137201714Y-95321376D01*
X137269297Y-95529380D01*
X137269298Y-95529383D01*
X137368595Y-95724260D01*
X137497142Y-95901193D01*
X137651806Y-96055857D01*
X137817374Y-96176147D01*
X137828743Y-96184407D01*
X137956132Y-96249315D01*
X138023616Y-96283701D01*
X138023619Y-96283702D01*
X138076957Y-96301032D01*
X138231625Y-96351286D01*
X138331672Y-96367132D01*
X138447639Y-96385500D01*
X138447644Y-96385500D01*
X140444361Y-96385500D01*
X140549082Y-96368912D01*
X140660375Y-96351286D01*
X140868383Y-96283701D01*
X140868383Y-96283700D01*
X140868388Y-96283699D01*
X141024947Y-96203927D01*
X141051205Y-96190547D01*
X141119873Y-96177651D01*
X141184614Y-96203927D01*
X141224872Y-96261033D01*
X141231500Y-96301032D01*
X141231500Y-104122500D01*
X141211815Y-104189539D01*
X141159011Y-104235294D01*
X141107500Y-104246500D01*
X140243129Y-104246500D01*
X140243123Y-104246501D01*
X140183516Y-104252908D01*
X140048671Y-104303202D01*
X140048664Y-104303206D01*
X139933455Y-104389452D01*
X139933452Y-104389455D01*
X139847206Y-104504664D01*
X139847202Y-104504671D01*
X139796908Y-104639517D01*
X139790501Y-104699116D01*
X139790500Y-104699135D01*
X139790500Y-105644870D01*
X139790501Y-105644876D01*
X139796908Y-105704483D01*
X139832447Y-105799765D01*
X139837431Y-105869456D01*
X139830828Y-105890545D01*
X139826069Y-105902034D01*
X139826065Y-105902047D01*
X139790500Y-106080843D01*
X139790500Y-106080846D01*
X139790500Y-106263154D01*
X139790500Y-106263156D01*
X139790499Y-106263156D01*
X139826065Y-106441952D01*
X139826068Y-106441962D01*
X139895831Y-106610387D01*
X139895833Y-106610391D01*
X139997113Y-106761967D01*
X139997119Y-106761975D01*
X140126025Y-106890881D01*
X140126028Y-106890883D01*
X140242037Y-106968397D01*
X140286843Y-107022010D01*
X140295550Y-107091334D01*
X140265396Y-107154362D01*
X140205953Y-107191082D01*
X140173147Y-107195500D01*
X110226962Y-107195500D01*
X110213078Y-107194720D01*
X110200553Y-107193308D01*
X110122735Y-107184540D01*
X110095666Y-107178362D01*
X110016462Y-107150648D01*
X109991444Y-107138600D01*
X109920395Y-107093957D01*
X109898686Y-107076644D01*
X109839355Y-107017313D01*
X109822042Y-106995604D01*
X109819882Y-106992167D01*
X109777398Y-106924553D01*
X109765351Y-106899537D01*
X109762322Y-106890881D01*
X109737636Y-106820331D01*
X109731459Y-106793263D01*
X109727933Y-106761972D01*
X109721280Y-106702922D01*
X109720500Y-106689038D01*
X109720500Y-105041646D01*
X127071000Y-105041646D01*
X127071000Y-105270353D01*
X127106778Y-105496246D01*
X127106778Y-105496249D01*
X127177450Y-105713755D01*
X127243555Y-105843492D01*
X127281283Y-105917538D01*
X127415714Y-106102566D01*
X127577434Y-106264286D01*
X127762462Y-106398717D01*
X127966242Y-106502548D01*
X127966244Y-106502549D01*
X128183751Y-106573221D01*
X128183752Y-106573221D01*
X128183755Y-106573222D01*
X128409646Y-106609000D01*
X128409647Y-106609000D01*
X128638353Y-106609000D01*
X128638354Y-106609000D01*
X128864245Y-106573222D01*
X128864248Y-106573221D01*
X128864249Y-106573221D01*
X129081755Y-106502549D01*
X129081755Y-106502548D01*
X129081758Y-106502548D01*
X129285538Y-106398717D01*
X129470566Y-106264286D01*
X129632286Y-106102566D01*
X129766717Y-105917538D01*
X129870548Y-105713758D01*
X129941222Y-105496245D01*
X129977000Y-105270354D01*
X129977000Y-105041646D01*
X132151000Y-105041646D01*
X132151000Y-105270353D01*
X132186778Y-105496246D01*
X132186778Y-105496249D01*
X132257450Y-105713755D01*
X132323555Y-105843492D01*
X132361283Y-105917538D01*
X132495714Y-106102566D01*
X132657434Y-106264286D01*
X132842462Y-106398717D01*
X133046242Y-106502548D01*
X133046244Y-106502549D01*
X133263751Y-106573221D01*
X133263752Y-106573221D01*
X133263755Y-106573222D01*
X133489646Y-106609000D01*
X133489647Y-106609000D01*
X133718353Y-106609000D01*
X133718354Y-106609000D01*
X133944245Y-106573222D01*
X133944248Y-106573221D01*
X133944249Y-106573221D01*
X134161755Y-106502549D01*
X134161755Y-106502548D01*
X134161758Y-106502548D01*
X134365538Y-106398717D01*
X134550566Y-106264286D01*
X134712286Y-106102566D01*
X134846717Y-105917538D01*
X134950548Y-105713758D01*
X135021222Y-105496245D01*
X135057000Y-105270354D01*
X135057000Y-105041646D01*
X135021222Y-104815755D01*
X135021221Y-104815751D01*
X135021221Y-104815750D01*
X134950549Y-104598244D01*
X134902870Y-104504669D01*
X134846717Y-104394462D01*
X134712286Y-104209434D01*
X134550566Y-104047714D01*
X134365538Y-103913283D01*
X134296197Y-103877952D01*
X134161755Y-103809450D01*
X133944248Y-103738778D01*
X133774826Y-103711944D01*
X133718354Y-103703000D01*
X133489646Y-103703000D01*
X133414349Y-103714926D01*
X133263753Y-103738778D01*
X133263750Y-103738778D01*
X133046244Y-103809450D01*
X132842461Y-103913283D01*
X132736896Y-103989980D01*
X132657434Y-104047714D01*
X132657432Y-104047716D01*
X132657431Y-104047716D01*
X132495716Y-104209431D01*
X132495716Y-104209432D01*
X132495714Y-104209434D01*
X132437980Y-104288896D01*
X132361283Y-104394461D01*
X132257450Y-104598244D01*
X132186778Y-104815750D01*
X132186778Y-104815753D01*
X132151000Y-105041646D01*
X129977000Y-105041646D01*
X129941222Y-104815755D01*
X129941221Y-104815751D01*
X129941221Y-104815750D01*
X129870549Y-104598244D01*
X129822870Y-104504669D01*
X129766717Y-104394462D01*
X129632286Y-104209434D01*
X129470566Y-104047714D01*
X129285538Y-103913283D01*
X129216197Y-103877952D01*
X129081755Y-103809450D01*
X128864248Y-103738778D01*
X128694826Y-103711944D01*
X128638354Y-103703000D01*
X128409646Y-103703000D01*
X128334349Y-103714926D01*
X128183753Y-103738778D01*
X128183750Y-103738778D01*
X127966244Y-103809450D01*
X127762461Y-103913283D01*
X127656896Y-103989980D01*
X127577434Y-104047714D01*
X127577432Y-104047716D01*
X127577431Y-104047716D01*
X127415716Y-104209431D01*
X127415716Y-104209432D01*
X127415714Y-104209434D01*
X127357980Y-104288896D01*
X127281283Y-104394461D01*
X127177450Y-104598244D01*
X127106778Y-104815750D01*
X127106778Y-104815753D01*
X127071000Y-105041646D01*
X109720500Y-105041646D01*
X109720500Y-104141873D01*
X109740185Y-104074834D01*
X109792989Y-104029079D01*
X109862147Y-104019135D01*
X109925703Y-104048160D01*
X109947600Y-104072980D01*
X109993633Y-104141873D01*
X110031118Y-104197974D01*
X110160024Y-104326880D01*
X110160032Y-104326886D01*
X110311608Y-104428166D01*
X110311612Y-104428168D01*
X110480037Y-104497931D01*
X110480042Y-104497933D01*
X110480046Y-104497933D01*
X110480047Y-104497934D01*
X110658843Y-104533500D01*
X110658846Y-104533500D01*
X110841156Y-104533500D01*
X110986094Y-104504669D01*
X111019958Y-104497933D01*
X111188389Y-104428167D01*
X111188391Y-104428166D01*
X111263672Y-104377864D01*
X111339972Y-104326883D01*
X111468883Y-104197972D01*
X111568984Y-104048160D01*
X111570166Y-104046391D01*
X111570168Y-104046387D01*
X111639931Y-103877962D01*
X111639933Y-103877958D01*
X111675500Y-103699156D01*
X113374499Y-103699156D01*
X113410065Y-103877952D01*
X113410068Y-103877962D01*
X113479831Y-104046387D01*
X113479833Y-104046391D01*
X113581113Y-104197967D01*
X113581119Y-104197975D01*
X113710024Y-104326880D01*
X113710032Y-104326886D01*
X113861608Y-104428166D01*
X113861612Y-104428168D01*
X114030037Y-104497931D01*
X114030042Y-104497933D01*
X114030046Y-104497933D01*
X114030047Y-104497934D01*
X114208843Y-104533500D01*
X114208846Y-104533500D01*
X114391156Y-104533500D01*
X114536094Y-104504669D01*
X114569958Y-104497933D01*
X114738389Y-104428167D01*
X114738391Y-104428166D01*
X114813672Y-104377864D01*
X114889972Y-104326883D01*
X115018883Y-104197972D01*
X115118984Y-104048160D01*
X115120166Y-104046391D01*
X115120168Y-104046387D01*
X115189931Y-103877962D01*
X115189933Y-103877958D01*
X115225500Y-103699156D01*
X116924499Y-103699156D01*
X116960065Y-103877952D01*
X116960068Y-103877962D01*
X117029831Y-104046387D01*
X117029833Y-104046391D01*
X117131113Y-104197967D01*
X117131119Y-104197975D01*
X117260024Y-104326880D01*
X117260032Y-104326886D01*
X117411608Y-104428166D01*
X117411612Y-104428168D01*
X117580037Y-104497931D01*
X117580042Y-104497933D01*
X117580046Y-104497933D01*
X117580047Y-104497934D01*
X117758843Y-104533500D01*
X117758846Y-104533500D01*
X117941156Y-104533500D01*
X118086094Y-104504669D01*
X118119958Y-104497933D01*
X118288389Y-104428167D01*
X118288391Y-104428166D01*
X118363672Y-104377864D01*
X118439972Y-104326883D01*
X118568883Y-104197972D01*
X118668984Y-104048160D01*
X118670166Y-104046391D01*
X118670168Y-104046387D01*
X118739931Y-103877962D01*
X118739933Y-103877958D01*
X118775500Y-103699154D01*
X118775500Y-103516846D01*
X118775500Y-103516843D01*
X118739934Y-103338046D01*
X118739933Y-103338043D01*
X118739933Y-103338042D01*
X118735174Y-103326555D01*
X118727703Y-103257088D01*
X118733548Y-103235776D01*
X118769091Y-103140483D01*
X118775500Y-103080873D01*
X118775499Y-102135128D01*
X118769091Y-102075517D01*
X118718796Y-101940669D01*
X118718795Y-101940668D01*
X118718793Y-101940664D01*
X118632547Y-101825455D01*
X118632544Y-101825452D01*
X118517335Y-101739206D01*
X118517328Y-101739202D01*
X118382482Y-101688908D01*
X118382483Y-101688908D01*
X118322883Y-101682501D01*
X118322881Y-101682500D01*
X118322873Y-101682500D01*
X118322864Y-101682500D01*
X117377129Y-101682500D01*
X117377123Y-101682501D01*
X117317516Y-101688908D01*
X117182671Y-101739202D01*
X117182664Y-101739206D01*
X117067455Y-101825452D01*
X117067452Y-101825455D01*
X116981206Y-101940664D01*
X116981202Y-101940671D01*
X116930908Y-102075517D01*
X116924501Y-102135116D01*
X116924501Y-102135123D01*
X116924500Y-102135135D01*
X116924500Y-103080870D01*
X116924501Y-103080876D01*
X116930908Y-103140483D01*
X116966447Y-103235765D01*
X116971431Y-103305456D01*
X116964828Y-103326545D01*
X116960069Y-103338034D01*
X116960065Y-103338047D01*
X116924500Y-103516843D01*
X116924500Y-103516846D01*
X116924500Y-103699154D01*
X116924500Y-103699156D01*
X116924499Y-103699156D01*
X115225500Y-103699156D01*
X115225500Y-103699154D01*
X115225500Y-103516846D01*
X115225500Y-103516843D01*
X115189934Y-103338046D01*
X115189933Y-103338043D01*
X115189933Y-103338042D01*
X115185174Y-103326555D01*
X115177703Y-103257088D01*
X115183548Y-103235776D01*
X115219091Y-103140483D01*
X115225500Y-103080873D01*
X115225499Y-102135128D01*
X115219091Y-102075517D01*
X115168796Y-101940669D01*
X115168795Y-101940668D01*
X115168793Y-101940664D01*
X115082547Y-101825455D01*
X115082544Y-101825452D01*
X114967335Y-101739206D01*
X114967328Y-101739202D01*
X114832482Y-101688908D01*
X114832483Y-101688908D01*
X114772883Y-101682501D01*
X114772881Y-101682500D01*
X114772873Y-101682500D01*
X114772864Y-101682500D01*
X113827129Y-101682500D01*
X113827123Y-101682501D01*
X113767516Y-101688908D01*
X113632671Y-101739202D01*
X113632664Y-101739206D01*
X113517455Y-101825452D01*
X113517452Y-101825455D01*
X113431206Y-101940664D01*
X113431202Y-101940671D01*
X113380908Y-102075517D01*
X113374501Y-102135116D01*
X113374501Y-102135123D01*
X113374500Y-102135135D01*
X113374500Y-103080870D01*
X113374501Y-103080876D01*
X113380908Y-103140483D01*
X113416447Y-103235765D01*
X113421431Y-103305456D01*
X113414828Y-103326545D01*
X113410069Y-103338034D01*
X113410065Y-103338047D01*
X113374500Y-103516843D01*
X113374500Y-103516846D01*
X113374500Y-103699154D01*
X113374500Y-103699156D01*
X113374499Y-103699156D01*
X111675500Y-103699156D01*
X111675500Y-103699154D01*
X111675500Y-103516846D01*
X111675500Y-103516843D01*
X111639934Y-103338046D01*
X111639933Y-103338043D01*
X111639933Y-103338042D01*
X111635174Y-103326555D01*
X111627703Y-103257088D01*
X111633548Y-103235776D01*
X111669091Y-103140483D01*
X111675500Y-103080873D01*
X111675499Y-102135128D01*
X111669091Y-102075517D01*
X111618796Y-101940669D01*
X111618795Y-101940668D01*
X111618793Y-101940664D01*
X111532547Y-101825455D01*
X111532544Y-101825452D01*
X111417335Y-101739206D01*
X111417328Y-101739202D01*
X111282482Y-101688908D01*
X111282483Y-101688908D01*
X111222883Y-101682501D01*
X111222881Y-101682500D01*
X111222873Y-101682500D01*
X111222864Y-101682500D01*
X110277129Y-101682500D01*
X110277123Y-101682501D01*
X110217516Y-101688908D01*
X110082671Y-101739202D01*
X110082664Y-101739206D01*
X109967455Y-101825452D01*
X109943766Y-101857097D01*
X109887832Y-101898967D01*
X109818140Y-101903951D01*
X109756818Y-101870465D01*
X109723333Y-101809141D01*
X109720500Y-101782785D01*
X109720500Y-90245153D01*
X117055500Y-90245153D01*
X117055500Y-90402846D01*
X117086261Y-90557489D01*
X117086264Y-90557501D01*
X117146602Y-90703172D01*
X117146609Y-90703185D01*
X117234210Y-90834288D01*
X117234213Y-90834292D01*
X117345707Y-90945786D01*
X117345711Y-90945789D01*
X117476814Y-91033390D01*
X117476827Y-91033397D01*
X117603054Y-91085681D01*
X117622503Y-91093737D01*
X117687147Y-91106595D01*
X117777849Y-91124638D01*
X117839760Y-91157023D01*
X117841339Y-91158574D01*
X118543181Y-91860416D01*
X118576666Y-91921739D01*
X118579500Y-91948097D01*
X118579500Y-92026846D01*
X118610261Y-92181489D01*
X118610264Y-92181501D01*
X118670602Y-92327172D01*
X118670609Y-92327185D01*
X118758210Y-92458288D01*
X118758213Y-92458292D01*
X118869707Y-92569786D01*
X118869711Y-92569789D01*
X119000814Y-92657390D01*
X119000827Y-92657397D01*
X119146498Y-92717735D01*
X119146503Y-92717737D01*
X119301153Y-92748499D01*
X119301156Y-92748500D01*
X119301158Y-92748500D01*
X119458844Y-92748500D01*
X119458845Y-92748499D01*
X119613497Y-92717737D01*
X119759179Y-92657394D01*
X119890289Y-92569789D01*
X120001789Y-92458289D01*
X120089394Y-92327179D01*
X120149737Y-92181497D01*
X120180500Y-92026842D01*
X120180500Y-91869158D01*
X120180500Y-91869155D01*
X120180499Y-91869153D01*
X120178761Y-91860416D01*
X120149737Y-91714503D01*
X120149735Y-91714498D01*
X120089397Y-91568827D01*
X120089390Y-91568814D01*
X120001789Y-91437711D01*
X120001786Y-91437707D01*
X119890292Y-91326213D01*
X119890288Y-91326210D01*
X119759185Y-91238609D01*
X119759172Y-91238602D01*
X119613499Y-91178263D01*
X119613491Y-91178261D01*
X119582980Y-91172192D01*
X119521069Y-91139807D01*
X119519491Y-91138256D01*
X118690574Y-90309339D01*
X118657089Y-90248016D01*
X118656638Y-90245849D01*
X118625738Y-90090510D01*
X118625737Y-90090503D01*
X118598755Y-90025361D01*
X118565397Y-89944827D01*
X118565390Y-89944814D01*
X118477789Y-89813711D01*
X118477786Y-89813707D01*
X118366292Y-89702213D01*
X118366288Y-89702210D01*
X118235185Y-89614609D01*
X118235172Y-89614602D01*
X118089501Y-89554264D01*
X118089489Y-89554261D01*
X117934845Y-89523500D01*
X117934842Y-89523500D01*
X117777158Y-89523500D01*
X117777155Y-89523500D01*
X117622510Y-89554261D01*
X117622498Y-89554264D01*
X117476827Y-89614602D01*
X117476814Y-89614609D01*
X117345711Y-89702210D01*
X117345707Y-89702213D01*
X117234213Y-89813707D01*
X117234210Y-89813711D01*
X117146609Y-89944814D01*
X117146602Y-89944827D01*
X117086264Y-90090498D01*
X117086261Y-90090510D01*
X117055500Y-90245153D01*
X109720500Y-90245153D01*
X109720500Y-79646638D01*
X120403500Y-79646638D01*
X120403500Y-79865361D01*
X120437714Y-80081376D01*
X120505297Y-80289380D01*
X120505298Y-80289383D01*
X120604595Y-80484260D01*
X120733142Y-80661193D01*
X120887806Y-80815857D01*
X121038969Y-80925682D01*
X121081635Y-80981011D01*
X121087614Y-81050625D01*
X121055009Y-81112420D01*
X121038969Y-81126318D01*
X120887806Y-81236142D01*
X120733142Y-81390806D01*
X120604595Y-81567739D01*
X120505298Y-81762616D01*
X120505297Y-81762619D01*
X120437714Y-81970623D01*
X120403500Y-82186638D01*
X120403500Y-82405361D01*
X120437714Y-82621376D01*
X120505297Y-82829380D01*
X120505298Y-82829383D01*
X120572782Y-82961825D01*
X120604461Y-83023998D01*
X120604595Y-83024260D01*
X120733142Y-83201193D01*
X120887806Y-83355857D01*
X121038969Y-83465682D01*
X121081635Y-83521011D01*
X121087614Y-83590625D01*
X121055009Y-83652420D01*
X121038969Y-83666318D01*
X120887806Y-83776142D01*
X120733142Y-83930806D01*
X120604595Y-84107739D01*
X120505298Y-84302616D01*
X120505297Y-84302619D01*
X120437714Y-84510623D01*
X120403500Y-84726638D01*
X120403500Y-84945361D01*
X120437714Y-85161376D01*
X120505297Y-85369380D01*
X120505298Y-85369383D01*
X120604595Y-85564260D01*
X120733142Y-85741193D01*
X120887806Y-85895857D01*
X121038969Y-86005682D01*
X121081635Y-86061011D01*
X121087614Y-86130625D01*
X121055009Y-86192420D01*
X121038969Y-86206318D01*
X120887806Y-86316142D01*
X120733142Y-86470806D01*
X120604595Y-86647739D01*
X120505298Y-86842616D01*
X120505297Y-86842619D01*
X120437714Y-87050623D01*
X120403500Y-87266638D01*
X120403500Y-87485361D01*
X120437714Y-87701376D01*
X120505297Y-87909380D01*
X120505298Y-87909383D01*
X120604595Y-88104260D01*
X120733142Y-88281193D01*
X120887806Y-88435857D01*
X121038969Y-88545682D01*
X121081635Y-88601011D01*
X121087614Y-88670625D01*
X121055009Y-88732420D01*
X121038969Y-88746318D01*
X120887806Y-88856142D01*
X120733142Y-89010806D01*
X120604595Y-89187739D01*
X120505298Y-89382616D01*
X120505297Y-89382619D01*
X120437714Y-89590623D01*
X120403500Y-89806638D01*
X120403500Y-90025361D01*
X120437714Y-90241376D01*
X120505297Y-90449380D01*
X120505298Y-90449383D01*
X120604595Y-90644260D01*
X120733142Y-90821193D01*
X120887806Y-90975857D01*
X121038969Y-91085682D01*
X121081635Y-91141011D01*
X121087614Y-91210625D01*
X121055009Y-91272420D01*
X121038969Y-91286318D01*
X120887806Y-91396142D01*
X120733142Y-91550806D01*
X120604595Y-91727739D01*
X120505298Y-91922616D01*
X120505297Y-91922619D01*
X120437714Y-92130623D01*
X120403500Y-92346638D01*
X120403500Y-92565361D01*
X120437714Y-92781376D01*
X120505297Y-92989380D01*
X120505298Y-92989383D01*
X120604595Y-93184260D01*
X120733142Y-93361193D01*
X120887806Y-93515857D01*
X121038969Y-93625682D01*
X121081635Y-93681011D01*
X121087614Y-93750625D01*
X121055009Y-93812420D01*
X121038969Y-93826318D01*
X120887806Y-93936142D01*
X120733142Y-94090806D01*
X120604595Y-94267739D01*
X120505298Y-94462616D01*
X120505297Y-94462619D01*
X120437714Y-94670623D01*
X120403500Y-94886638D01*
X120403500Y-95105361D01*
X120437714Y-95321376D01*
X120505297Y-95529380D01*
X120505298Y-95529383D01*
X120604595Y-95724260D01*
X120733142Y-95901193D01*
X120887806Y-96055857D01*
X121053374Y-96176147D01*
X121064743Y-96184407D01*
X121192132Y-96249315D01*
X121259616Y-96283701D01*
X121259619Y-96283702D01*
X121312957Y-96301032D01*
X121467625Y-96351286D01*
X121567672Y-96367132D01*
X121683639Y-96385500D01*
X121683644Y-96385500D01*
X123680361Y-96385500D01*
X123785082Y-96368912D01*
X123896375Y-96351286D01*
X124104383Y-96283701D01*
X124299257Y-96184407D01*
X124398601Y-96112229D01*
X124476193Y-96055857D01*
X124476195Y-96055854D01*
X124476199Y-96055852D01*
X124630852Y-95901199D01*
X124630854Y-95901195D01*
X124630857Y-95901193D01*
X124687229Y-95823601D01*
X124759407Y-95724257D01*
X124858701Y-95529383D01*
X124926286Y-95321375D01*
X124943912Y-95210082D01*
X124960500Y-95105361D01*
X124960500Y-94886638D01*
X124940595Y-94760971D01*
X124926286Y-94670625D01*
X124858701Y-94462617D01*
X124858701Y-94462616D01*
X124824315Y-94395132D01*
X124759407Y-94267743D01*
X124751147Y-94256374D01*
X124630857Y-94090806D01*
X124476199Y-93936148D01*
X124467499Y-93929827D01*
X124325028Y-93826316D01*
X124282364Y-93770989D01*
X124276385Y-93701376D01*
X124308990Y-93639580D01*
X124325023Y-93625686D01*
X124476199Y-93515852D01*
X124630852Y-93361199D01*
X124630854Y-93361195D01*
X124630857Y-93361193D01*
X124687229Y-93283601D01*
X124759407Y-93184257D01*
X124858701Y-92989383D01*
X124926286Y-92781375D01*
X124945923Y-92657390D01*
X124960500Y-92565361D01*
X124960500Y-92346638D01*
X124934342Y-92181489D01*
X124926286Y-92130625D01*
X124858701Y-91922617D01*
X124858701Y-91922616D01*
X124824315Y-91855132D01*
X124759407Y-91727743D01*
X124749784Y-91714498D01*
X124630857Y-91550806D01*
X124476199Y-91396148D01*
X124467499Y-91389827D01*
X124325028Y-91286316D01*
X124282364Y-91230989D01*
X124276385Y-91161376D01*
X124308990Y-91099580D01*
X124325023Y-91085686D01*
X124476199Y-90975852D01*
X124630852Y-90821199D01*
X124630854Y-90821195D01*
X124630857Y-90821193D01*
X124687229Y-90743601D01*
X124759407Y-90644257D01*
X124858701Y-90449383D01*
X124926286Y-90241375D01*
X124950183Y-90090498D01*
X124960500Y-90025361D01*
X124960500Y-89806638D01*
X124940595Y-89680971D01*
X124926286Y-89590625D01*
X124858701Y-89382617D01*
X124858701Y-89382616D01*
X124824315Y-89315132D01*
X124759407Y-89187743D01*
X124751147Y-89176374D01*
X124630857Y-89010806D01*
X124476199Y-88856148D01*
X124467499Y-88849827D01*
X124325028Y-88746316D01*
X124282364Y-88690989D01*
X124276385Y-88621376D01*
X124308990Y-88559580D01*
X124325023Y-88545686D01*
X124476199Y-88435852D01*
X124630852Y-88281199D01*
X124630854Y-88281195D01*
X124630857Y-88281193D01*
X124687229Y-88203601D01*
X124759407Y-88104257D01*
X124858701Y-87909383D01*
X124926286Y-87701375D01*
X124943912Y-87590082D01*
X124960500Y-87485361D01*
X124960500Y-87266638D01*
X124940595Y-87140971D01*
X124926286Y-87050625D01*
X124858701Y-86842617D01*
X124858701Y-86842616D01*
X124824315Y-86775132D01*
X124759407Y-86647743D01*
X124751147Y-86636374D01*
X124630857Y-86470806D01*
X124476199Y-86316148D01*
X124467499Y-86309827D01*
X124325028Y-86206316D01*
X124282364Y-86150989D01*
X124276385Y-86081376D01*
X124308990Y-86019580D01*
X124325023Y-86005686D01*
X124476199Y-85895852D01*
X124630852Y-85741199D01*
X124630854Y-85741195D01*
X124630857Y-85741193D01*
X124687229Y-85663601D01*
X124759407Y-85564257D01*
X124858701Y-85369383D01*
X124926286Y-85161375D01*
X124943912Y-85050082D01*
X124960500Y-84945361D01*
X124960500Y-84726638D01*
X124940595Y-84600971D01*
X124926286Y-84510625D01*
X124858701Y-84302617D01*
X124858701Y-84302616D01*
X124824315Y-84235132D01*
X124759407Y-84107743D01*
X124751147Y-84096374D01*
X124630857Y-83930806D01*
X124476199Y-83776148D01*
X124467499Y-83769827D01*
X124325028Y-83666316D01*
X124282364Y-83610989D01*
X124276385Y-83541376D01*
X124308990Y-83479580D01*
X124325023Y-83465686D01*
X124476199Y-83355852D01*
X124630852Y-83201199D01*
X124630854Y-83201195D01*
X124630857Y-83201193D01*
X124687229Y-83123601D01*
X124759407Y-83024257D01*
X124858701Y-82829383D01*
X124926286Y-82621375D01*
X124947246Y-82489039D01*
X124960500Y-82405361D01*
X124960500Y-82186638D01*
X124938224Y-82046000D01*
X124926286Y-81970625D01*
X124878197Y-81822619D01*
X124858702Y-81762619D01*
X124858701Y-81762616D01*
X124824315Y-81695132D01*
X124759407Y-81567743D01*
X124751147Y-81556374D01*
X124630857Y-81390806D01*
X124476199Y-81236148D01*
X124476191Y-81236142D01*
X124325028Y-81126316D01*
X124282364Y-81070989D01*
X124276385Y-81001376D01*
X124308990Y-80939580D01*
X124325023Y-80925686D01*
X124476199Y-80815852D01*
X124630852Y-80661199D01*
X124630854Y-80661195D01*
X124630857Y-80661193D01*
X124687229Y-80583601D01*
X124759407Y-80484257D01*
X124858701Y-80289383D01*
X124926286Y-80081375D01*
X124943912Y-79970082D01*
X124960500Y-79865361D01*
X124960500Y-79646638D01*
X124940595Y-79520971D01*
X124926286Y-79430625D01*
X124858701Y-79222617D01*
X124858701Y-79222616D01*
X124824315Y-79155132D01*
X124759407Y-79027743D01*
X124751147Y-79016374D01*
X124630857Y-78850806D01*
X124476193Y-78696142D01*
X124299260Y-78567595D01*
X124299259Y-78567594D01*
X124299257Y-78567593D01*
X124201938Y-78518006D01*
X124104383Y-78468298D01*
X124104380Y-78468297D01*
X123896376Y-78400714D01*
X123680361Y-78366500D01*
X123680356Y-78366500D01*
X121683644Y-78366500D01*
X121683639Y-78366500D01*
X121467623Y-78400714D01*
X121259619Y-78468297D01*
X121259616Y-78468298D01*
X121064739Y-78567595D01*
X120887806Y-78696142D01*
X120733142Y-78850806D01*
X120604595Y-79027739D01*
X120505298Y-79222616D01*
X120505297Y-79222619D01*
X120437714Y-79430623D01*
X120403500Y-79646638D01*
X109720500Y-79646638D01*
X109720500Y-77714961D01*
X109721280Y-77701077D01*
X109721280Y-77701076D01*
X109731460Y-77610729D01*
X109737635Y-77583670D01*
X109765353Y-77504456D01*
X109777396Y-77479450D01*
X109822046Y-77408389D01*
X109839351Y-77386690D01*
X109898690Y-77327351D01*
X109920389Y-77310046D01*
X109991450Y-77265396D01*
X110016456Y-77253353D01*
X110095670Y-77225635D01*
X110122733Y-77219459D01*
X110185419Y-77212396D01*
X110213079Y-77209280D01*
X110226962Y-77208500D01*
X110285892Y-77208500D01*
X140666108Y-77208500D01*
X140725038Y-77208500D01*
X140738922Y-77209280D01*
G37*
%TD.AperFunction*%
%TA.AperFunction,Conductor*%
G36*
X139389039Y-82065685D02*
G01*
X139434794Y-82118489D01*
X139446000Y-82170000D01*
X139446000Y-82422000D01*
X139426315Y-82489039D01*
X139373511Y-82534794D01*
X139322000Y-82546000D01*
X139126251Y-82546000D01*
X139157381Y-82492081D01*
X139192000Y-82362880D01*
X139192000Y-82229120D01*
X139157381Y-82099919D01*
X139126251Y-82046000D01*
X139322000Y-82046000D01*
X139389039Y-82065685D01*
G37*
%TD.AperFunction*%
%TD*%
M02*
