%TF.GenerationSoftware,KiCad,Pcbnew,9.0.7*%
%TF.CreationDate,2026-02-02T21:32:54-08:00*%
%TF.ProjectId,Display,44697370-6c61-4792-9e6b-696361645f70,rev?*%
%TF.SameCoordinates,Original*%
%TF.FileFunction,Copper,L1,Top*%
%TF.FilePolarity,Positive*%
%FSLAX46Y46*%
G04 Gerber Fmt 4.6, Leading zero omitted, Abs format (unit mm)*
G04 Created by KiCad (PCBNEW 9.0.7) date 2026-02-02 21:32:54*
%MOMM*%
%LPD*%
G01*
G04 APERTURE LIST*
%TA.AperFunction,ComponentPad*%
%ADD10C,0.850000*%
%TD*%
%TA.AperFunction,ComponentPad*%
%ADD11R,0.850000X0.850000*%
%TD*%
%TA.AperFunction,SMDPad,CuDef*%
%ADD12R,1.500000X1.000000*%
%TD*%
%TA.AperFunction,ComponentPad*%
%ADD13O,3.556000X1.778000*%
%TD*%
%TA.AperFunction,ComponentPad*%
%ADD14C,1.905000*%
%TD*%
%TA.AperFunction,ComponentPad*%
%ADD15C,1.700000*%
%TD*%
%TA.AperFunction,Conductor*%
%ADD16C,0.200000*%
%TD*%
G04 APERTURE END LIST*
D10*
%TO.P,J5,2,Pin_2*%
%TO.N,-BATT*%
X123952000Y-109728000D03*
D11*
%TO.P,J5,1,Pin_1*%
%TO.N,+BATT*%
X122952000Y-109728000D03*
%TD*%
D12*
%TO.P,D2,3,VDD*%
%TO.N,+3V3*%
X165010000Y-104216000D03*
%TO.P,D2,2,DIN*%
%TO.N,/D8*%
X160110000Y-104216000D03*
%TO.P,D2,4,DOUT*%
%TO.N,unconnected-(D2-DOUT-Pad4)*%
X165010000Y-101016000D03*
%TO.P,D2,1,VSS*%
%TO.N,GND*%
X160110000Y-101016000D03*
%TD*%
D10*
%TO.P,J1,2,Pin_2*%
%TO.N,GND*%
X103124000Y-104648000D03*
D11*
%TO.P,J1,1,Pin_1*%
%TO.N,/D6*%
X102124000Y-104648000D03*
%TD*%
D13*
%TO.P,U2,1,GPIO1_A0_D0*%
%TO.N,/D0*%
X115062000Y-62484000D03*
%TO.P,U2,2,GPIO2_A1_D1*%
%TO.N,/D1*%
X115062000Y-65024000D03*
%TO.P,U2,3,GPIO3_A2_D2*%
%TO.N,/D2*%
X115062000Y-67564000D03*
%TO.P,U2,4,GPIO4_A3_D3*%
%TO.N,/D3*%
X115062000Y-70104000D03*
%TO.P,U2,5,GPIO4_A3_D3_SDA*%
%TO.N,unconnected-(U2-GPIO4_A3_D3_SDA-Pad5)*%
X115062000Y-72644000D03*
%TO.P,U2,6,GPIO6_A5_D5_SCL*%
%TO.N,unconnected-(U2-GPIO6_A5_D5_SCL-Pad6)*%
X115062000Y-75184000D03*
%TO.P,U2,7,GPIO43_TX_D6*%
%TO.N,/D6*%
X115062000Y-77724000D03*
%TO.P,U2,8,GPIO44_D7_RX*%
%TO.N,unconnected-(U2-GPIO44_D7_RX-Pad8)*%
X131826000Y-77724000D03*
%TO.P,U2,9,GPIO7_A8_D8_SCK*%
%TO.N,/D8*%
X131826000Y-75184000D03*
%TO.P,U2,10,GPIO8_A9_D9_CIPO*%
%TO.N,/D9*%
X131826000Y-72644000D03*
%TO.P,U2,11,GPIO9_A10_D10_COPI*%
%TO.N,/D10*%
X131826000Y-70104000D03*
%TO.P,U2,12,3V3*%
%TO.N,+3V3*%
X131826000Y-67564000D03*
%TO.P,U2,13,GND*%
%TO.N,GND*%
X131826000Y-65024000D03*
%TO.P,U2,14,5V*%
%TO.N,unconnected-(U2-5V-Pad14)*%
X131826000Y-62484000D03*
D14*
%TO.P,U2,15,+BATT*%
%TO.N,+BATT*%
X120904000Y-87884000D03*
%TO.P,U2,16,-BATT*%
%TO.N,-BATT*%
X125984000Y-87884000D03*
%TD*%
D15*
%TO.P,M1,1*%
%TO.N,/D0*%
X84328000Y-69088000D03*
%TO.P,M1,2,-*%
%TO.N,/D1*%
X91948000Y-69088000D03*
%TO.P,M1,3*%
%TO.N,/D2*%
X91948000Y-91948000D03*
%TO.P,M1,4*%
%TO.N,/D3*%
X84328000Y-91948000D03*
%TD*%
D12*
%TO.P,D3,1,VSS*%
%TO.N,GND*%
X160528000Y-61392000D03*
%TO.P,D3,4,DOUT*%
%TO.N,unconnected-(D3-DOUT-Pad4)*%
X165428000Y-61392000D03*
%TO.P,D3,2,DIN*%
%TO.N,/D10*%
X160528000Y-64592000D03*
%TO.P,D3,3,VDD*%
%TO.N,+3V3*%
X165428000Y-64592000D03*
%TD*%
%TO.P,D1,1,VSS*%
%TO.N,GND*%
X166804000Y-81128000D03*
%TO.P,D1,4,DOUT*%
%TO.N,unconnected-(D1-DOUT-Pad4)*%
X171704000Y-81128000D03*
%TO.P,D1,2,DIN*%
%TO.N,/D9*%
X166804000Y-84328000D03*
%TO.P,D1,3,VDD*%
%TO.N,+3V3*%
X171704000Y-84328000D03*
%TD*%
D16*
%TO.N,+3V3*%
X165428000Y-64082000D02*
X164338000Y-62992000D01*
X136429914Y-62992000D02*
X131857914Y-67564000D01*
X165428000Y-64592000D02*
X165428000Y-64082000D01*
X164338000Y-62992000D02*
X136429914Y-62992000D01*
X131857914Y-67564000D02*
X131064000Y-67564000D01*
X171704000Y-84328000D02*
X172755000Y-83277000D01*
X172755000Y-83277000D02*
X172755000Y-71919000D01*
X172755000Y-71919000D02*
X165428000Y-64592000D01*
X165010000Y-104216000D02*
X171704000Y-97522000D01*
X171704000Y-97522000D02*
X171704000Y-84328000D01*
%TO.N,/D8*%
X160110000Y-104216000D02*
X160110000Y-102960000D01*
X160110000Y-102960000D02*
X132334000Y-75184000D01*
X132334000Y-75184000D02*
X131064000Y-75184000D01*
%TO.N,/D9*%
X166804000Y-84328000D02*
X155120000Y-72644000D01*
X155120000Y-72644000D02*
X131064000Y-72644000D01*
%TO.N,/D10*%
X160528000Y-64592000D02*
X155016000Y-70104000D01*
X155016000Y-70104000D02*
X131064000Y-70104000D01*
%TO.N,-BATT*%
X125984000Y-87884000D02*
X125984000Y-107696000D01*
X125984000Y-107696000D02*
X123952000Y-109728000D01*
%TO.N,+BATT*%
X120904000Y-87884000D02*
X120904000Y-107680000D01*
X120904000Y-107680000D02*
X122952000Y-109728000D01*
%TO.N,/D6*%
X115824000Y-77724000D02*
X102124000Y-91424000D01*
X102124000Y-91424000D02*
X102124000Y-104648000D01*
%TO.N,/D3*%
X115824000Y-70104000D02*
X115030086Y-70104000D01*
X115030086Y-70104000D02*
X99039000Y-86095086D01*
X99039000Y-86095086D02*
X99039000Y-90305420D01*
X90320240Y-91948000D02*
X84328000Y-91948000D01*
X99039000Y-90305420D02*
X96245420Y-93099000D01*
X96245420Y-93099000D02*
X91471240Y-93099000D01*
X91471240Y-93099000D02*
X90320240Y-91948000D01*
%TO.N,/D2*%
X115824000Y-67564000D02*
X115030086Y-67564000D01*
X115030086Y-67564000D02*
X91948000Y-90646086D01*
X91948000Y-90646086D02*
X91948000Y-91948000D01*
%TO.N,/D1*%
X115824000Y-65024000D02*
X96012000Y-65024000D01*
X96012000Y-65024000D02*
X91948000Y-69088000D01*
%TO.N,/D0*%
X115824000Y-62484000D02*
X94865446Y-62484000D01*
X94865446Y-62484000D02*
X88261446Y-69088000D01*
X88261446Y-69088000D02*
X84328000Y-69088000D01*
%TD*%
%TA.AperFunction,Conductor*%
%TO.N,GND*%
G36*
X131769039Y-64793685D02*
G01*
X131814794Y-64846489D01*
X131826000Y-64898000D01*
X131826000Y-65150000D01*
X131806315Y-65217039D01*
X131753511Y-65262794D01*
X131702000Y-65274000D01*
X131506251Y-65274000D01*
X131537381Y-65220081D01*
X131572000Y-65090880D01*
X131572000Y-64957120D01*
X131537381Y-64827919D01*
X131506251Y-64774000D01*
X131702000Y-64774000D01*
X131769039Y-64793685D01*
G37*
%TD.AperFunction*%
%TA.AperFunction,Conductor*%
G36*
X170711108Y-55130185D02*
G01*
X170740447Y-55156479D01*
X183367878Y-70755071D01*
X183394760Y-70819562D01*
X183395500Y-70833091D01*
X183395500Y-99826200D01*
X183375815Y-99893239D01*
X183361293Y-99911717D01*
X168478149Y-115539017D01*
X168417661Y-115573987D01*
X168388356Y-115577500D01*
X151534974Y-115577500D01*
X151478330Y-115563806D01*
X142228315Y-110813797D01*
X142228315Y-110813798D01*
X142225590Y-110812398D01*
X142179186Y-110785608D01*
X142167121Y-110782375D01*
X142156015Y-110776672D01*
X142106620Y-110766008D01*
X142103632Y-110765363D01*
X142051892Y-110751500D01*
X142039410Y-110751500D01*
X142027198Y-110748864D01*
X142027197Y-110748864D01*
X141978123Y-110751281D01*
X141976728Y-110751350D01*
X141970631Y-110751500D01*
X124494853Y-110751500D01*
X124427814Y-110731815D01*
X124382059Y-110679011D01*
X124372115Y-110609853D01*
X124401140Y-110546297D01*
X124425961Y-110524398D01*
X124541972Y-110446883D01*
X124670883Y-110317972D01*
X124772167Y-110166389D01*
X124841933Y-109997958D01*
X124877500Y-109819154D01*
X124877500Y-109703096D01*
X124897185Y-109636057D01*
X124913814Y-109615420D01*
X126352713Y-108176521D01*
X126352716Y-108176520D01*
X126464520Y-108064716D01*
X126514639Y-107977904D01*
X126543577Y-107927785D01*
X126584501Y-107775057D01*
X126584501Y-107616943D01*
X126584501Y-107609348D01*
X126584500Y-107609330D01*
X126584500Y-89284756D01*
X126604185Y-89217717D01*
X126652204Y-89174272D01*
X126745538Y-89126717D01*
X126930566Y-88992286D01*
X127092286Y-88830566D01*
X127226717Y-88645538D01*
X127330548Y-88441758D01*
X127401222Y-88224245D01*
X127437000Y-87998354D01*
X127437000Y-87769646D01*
X127401222Y-87543755D01*
X127401221Y-87543751D01*
X127401221Y-87543750D01*
X127330549Y-87326244D01*
X127226716Y-87122461D01*
X127092286Y-86937434D01*
X126930566Y-86775714D01*
X126745538Y-86641283D01*
X126541755Y-86537450D01*
X126324248Y-86466778D01*
X126154826Y-86439944D01*
X126098354Y-86431000D01*
X125869646Y-86431000D01*
X125794349Y-86442926D01*
X125643753Y-86466778D01*
X125643750Y-86466778D01*
X125426244Y-86537450D01*
X125222461Y-86641283D01*
X125116896Y-86717980D01*
X125037434Y-86775714D01*
X125037432Y-86775716D01*
X125037431Y-86775716D01*
X124875716Y-86937431D01*
X124875716Y-86937432D01*
X124875714Y-86937434D01*
X124817980Y-87016896D01*
X124741283Y-87122461D01*
X124637450Y-87326244D01*
X124566778Y-87543750D01*
X124566778Y-87543753D01*
X124566778Y-87543755D01*
X124531000Y-87769646D01*
X124531000Y-87998354D01*
X124534069Y-88017730D01*
X124566778Y-88224246D01*
X124566778Y-88224249D01*
X124637450Y-88441755D01*
X124637452Y-88441758D01*
X124741283Y-88645538D01*
X124875714Y-88830566D01*
X125037434Y-88992286D01*
X125222462Y-89126717D01*
X125315795Y-89174272D01*
X125366590Y-89222245D01*
X125383500Y-89284756D01*
X125383500Y-107395903D01*
X125363815Y-107462942D01*
X125347181Y-107483584D01*
X124064584Y-108766181D01*
X124003261Y-108799666D01*
X123976903Y-108802500D01*
X123860844Y-108802500D01*
X123682047Y-108838065D01*
X123682034Y-108838069D01*
X123670545Y-108842828D01*
X123601076Y-108850294D01*
X123579765Y-108844447D01*
X123575424Y-108842828D01*
X123544604Y-108831332D01*
X123484481Y-108808908D01*
X123484483Y-108808908D01*
X123424883Y-108802501D01*
X123424881Y-108802500D01*
X123424873Y-108802500D01*
X123424865Y-108802500D01*
X122927097Y-108802500D01*
X122860058Y-108782815D01*
X122839416Y-108766181D01*
X121540819Y-107467584D01*
X121507334Y-107406261D01*
X121504500Y-107379903D01*
X121504500Y-89284756D01*
X121524185Y-89217717D01*
X121572204Y-89174272D01*
X121665538Y-89126717D01*
X121850566Y-88992286D01*
X122012286Y-88830566D01*
X122146717Y-88645538D01*
X122250548Y-88441758D01*
X122321222Y-88224245D01*
X122357000Y-87998354D01*
X122357000Y-87769646D01*
X122321222Y-87543755D01*
X122321221Y-87543751D01*
X122321221Y-87543750D01*
X122250549Y-87326244D01*
X122146716Y-87122461D01*
X122012286Y-86937434D01*
X121850566Y-86775714D01*
X121665538Y-86641283D01*
X121461755Y-86537450D01*
X121244248Y-86466778D01*
X121074826Y-86439944D01*
X121018354Y-86431000D01*
X120789646Y-86431000D01*
X120714349Y-86442926D01*
X120563753Y-86466778D01*
X120563750Y-86466778D01*
X120346244Y-86537450D01*
X120142461Y-86641283D01*
X120036896Y-86717980D01*
X119957434Y-86775714D01*
X119957432Y-86775716D01*
X119957431Y-86775716D01*
X119795716Y-86937431D01*
X119795716Y-86937432D01*
X119795714Y-86937434D01*
X119737980Y-87016896D01*
X119661283Y-87122461D01*
X119557450Y-87326244D01*
X119486778Y-87543750D01*
X119486778Y-87543753D01*
X119486778Y-87543755D01*
X119451000Y-87769646D01*
X119451000Y-87998354D01*
X119454069Y-88017730D01*
X119486778Y-88224246D01*
X119486778Y-88224249D01*
X119557450Y-88441755D01*
X119557452Y-88441758D01*
X119661283Y-88645538D01*
X119795714Y-88830566D01*
X119957434Y-88992286D01*
X120142462Y-89126717D01*
X120235795Y-89174272D01*
X120286590Y-89222245D01*
X120303500Y-89284756D01*
X120303500Y-107593330D01*
X120303499Y-107593348D01*
X120303499Y-107759054D01*
X120303498Y-107759054D01*
X120303499Y-107759057D01*
X120344423Y-107911785D01*
X120344424Y-107911787D01*
X120344423Y-107911787D01*
X120353661Y-107927786D01*
X120353662Y-107927787D01*
X120423477Y-108048712D01*
X120423481Y-108048717D01*
X120542349Y-108167585D01*
X120542355Y-108167590D01*
X121990181Y-109615416D01*
X122023666Y-109676739D01*
X122026500Y-109703097D01*
X122026500Y-110200870D01*
X122026501Y-110200876D01*
X122032908Y-110260483D01*
X122083202Y-110395328D01*
X122083206Y-110395335D01*
X122169452Y-110510544D01*
X122169453Y-110510544D01*
X122169454Y-110510546D01*
X122187957Y-110524397D01*
X122193082Y-110528234D01*
X122234952Y-110584168D01*
X122239936Y-110653860D01*
X122206450Y-110715183D01*
X122145126Y-110748667D01*
X122118770Y-110751500D01*
X81788834Y-110751500D01*
X81721795Y-110731815D01*
X81702081Y-110716099D01*
X69879747Y-99140064D01*
X69845618Y-99079097D01*
X69842500Y-99051465D01*
X69842500Y-80380378D01*
X75687500Y-80380378D01*
X75687500Y-80655621D01*
X75718315Y-80929108D01*
X75718317Y-80929124D01*
X75779561Y-81197453D01*
X75779565Y-81197465D01*
X75870467Y-81457246D01*
X75989884Y-81705218D01*
X76008901Y-81735483D01*
X76136319Y-81938268D01*
X76242452Y-82071354D01*
X76303721Y-82148184D01*
X76307925Y-82153455D01*
X76502545Y-82348075D01*
X76717732Y-82519681D01*
X76950779Y-82666114D01*
X77198757Y-82785534D01*
X77393865Y-82853805D01*
X77458534Y-82876434D01*
X77458546Y-82876438D01*
X77726879Y-82937683D01*
X78000378Y-82968499D01*
X78000379Y-82968500D01*
X78000383Y-82968500D01*
X78275621Y-82968500D01*
X78275621Y-82968499D01*
X78549121Y-82937683D01*
X78817454Y-82876438D01*
X79077243Y-82785534D01*
X79325221Y-82666114D01*
X79558268Y-82519681D01*
X79773455Y-82348075D01*
X79968075Y-82153455D01*
X80139681Y-81938268D01*
X80286114Y-81705221D01*
X80405534Y-81457243D01*
X80496438Y-81197454D01*
X80557683Y-80929121D01*
X80588500Y-80655617D01*
X80588500Y-80380383D01*
X80557683Y-80106879D01*
X80496438Y-79838546D01*
X80405534Y-79578757D01*
X80286114Y-79330779D01*
X80139681Y-79097732D01*
X79968075Y-78882545D01*
X79773455Y-78687925D01*
X79558268Y-78516319D01*
X79325221Y-78369886D01*
X79325218Y-78369884D01*
X79077246Y-78250467D01*
X78817465Y-78159565D01*
X78817453Y-78159561D01*
X78549124Y-78098317D01*
X78549108Y-78098315D01*
X78275621Y-78067500D01*
X78275617Y-78067500D01*
X78000383Y-78067500D01*
X78000379Y-78067500D01*
X77726891Y-78098315D01*
X77726875Y-78098317D01*
X77458546Y-78159561D01*
X77458534Y-78159565D01*
X77198753Y-78250467D01*
X76950781Y-78369884D01*
X76717733Y-78516318D01*
X76502545Y-78687924D01*
X76307924Y-78882545D01*
X76136318Y-79097733D01*
X75989884Y-79330781D01*
X75870467Y-79578753D01*
X75779565Y-79838534D01*
X75779561Y-79838546D01*
X75718317Y-80106875D01*
X75718315Y-80106891D01*
X75687500Y-80380378D01*
X69842500Y-80380378D01*
X69842500Y-68981713D01*
X82977500Y-68981713D01*
X82977500Y-69194287D01*
X83010754Y-69404243D01*
X83064812Y-69570617D01*
X83076444Y-69606414D01*
X83172951Y-69795820D01*
X83297890Y-69967786D01*
X83448213Y-70118109D01*
X83620179Y-70243048D01*
X83620181Y-70243049D01*
X83620184Y-70243051D01*
X83809588Y-70339557D01*
X84011757Y-70405246D01*
X84221713Y-70438500D01*
X84221714Y-70438500D01*
X84434286Y-70438500D01*
X84434287Y-70438500D01*
X84644243Y-70405246D01*
X84846412Y-70339557D01*
X85035816Y-70243051D01*
X85076688Y-70213356D01*
X85207786Y-70118109D01*
X85207788Y-70118106D01*
X85207792Y-70118104D01*
X85358104Y-69967792D01*
X85358106Y-69967788D01*
X85358109Y-69967786D01*
X85416661Y-69887193D01*
X85483051Y-69795816D01*
X85483349Y-69795230D01*
X85503235Y-69756205D01*
X85551209Y-69705409D01*
X85613719Y-69688500D01*
X88174777Y-69688500D01*
X88174793Y-69688501D01*
X88182389Y-69688501D01*
X88340500Y-69688501D01*
X88340503Y-69688501D01*
X88493231Y-69647577D01*
X88543350Y-69618639D01*
X88630162Y-69568520D01*
X88741966Y-69456716D01*
X88741966Y-69456714D01*
X88752174Y-69446507D01*
X88752175Y-69446504D01*
X95077862Y-63120819D01*
X95139185Y-63087334D01*
X95165543Y-63084500D01*
X112843510Y-63084500D01*
X112910549Y-63104185D01*
X112953995Y-63152205D01*
X112984595Y-63212260D01*
X113113142Y-63389193D01*
X113267806Y-63543857D01*
X113418969Y-63653682D01*
X113461635Y-63709011D01*
X113467614Y-63778625D01*
X113435009Y-63840420D01*
X113418969Y-63854318D01*
X113267806Y-63964142D01*
X113113142Y-64118806D01*
X112984595Y-64295739D01*
X112953995Y-64355795D01*
X112906020Y-64406591D01*
X112843510Y-64423500D01*
X96098669Y-64423500D01*
X96098653Y-64423499D01*
X96091057Y-64423499D01*
X95932943Y-64423499D01*
X95828895Y-64451379D01*
X95780210Y-64464424D01*
X95780209Y-64464425D01*
X95734847Y-64490616D01*
X95734845Y-64490617D01*
X95643290Y-64543475D01*
X95643282Y-64543481D01*
X95531478Y-64655286D01*
X92432522Y-67754241D01*
X92371199Y-67787726D01*
X92306523Y-67784491D01*
X92264245Y-67770754D01*
X92124272Y-67748584D01*
X92054287Y-67737500D01*
X91841713Y-67737500D01*
X91793042Y-67745208D01*
X91631760Y-67770753D01*
X91429585Y-67836444D01*
X91240179Y-67932951D01*
X91068213Y-68057890D01*
X90917890Y-68208213D01*
X90792951Y-68380179D01*
X90696444Y-68569585D01*
X90630753Y-68771760D01*
X90597500Y-68981713D01*
X90597500Y-69194287D01*
X90630754Y-69404243D01*
X90684812Y-69570617D01*
X90696444Y-69606414D01*
X90792951Y-69795820D01*
X90917890Y-69967786D01*
X91068213Y-70118109D01*
X91240179Y-70243048D01*
X91240181Y-70243049D01*
X91240184Y-70243051D01*
X91429588Y-70339557D01*
X91631757Y-70405246D01*
X91841713Y-70438500D01*
X91841714Y-70438500D01*
X92054286Y-70438500D01*
X92054287Y-70438500D01*
X92264243Y-70405246D01*
X92466412Y-70339557D01*
X92655816Y-70243051D01*
X92696688Y-70213356D01*
X92827786Y-70118109D01*
X92827788Y-70118106D01*
X92827792Y-70118104D01*
X92978104Y-69967792D01*
X92978106Y-69967788D01*
X92978109Y-69967786D01*
X93103048Y-69795820D01*
X93103047Y-69795820D01*
X93103051Y-69795816D01*
X93199557Y-69606412D01*
X93265246Y-69404243D01*
X93298500Y-69194287D01*
X93298500Y-68981713D01*
X93265246Y-68771757D01*
X93251506Y-68729473D01*
X93249512Y-68659635D01*
X93281755Y-68603478D01*
X96224416Y-65660819D01*
X96285739Y-65627334D01*
X96312097Y-65624500D01*
X112843510Y-65624500D01*
X112910549Y-65644185D01*
X112953994Y-65692204D01*
X112984461Y-65751998D01*
X112984595Y-65752260D01*
X113113142Y-65929193D01*
X113267806Y-66083857D01*
X113418969Y-66193682D01*
X113461635Y-66249011D01*
X113467614Y-66318625D01*
X113435009Y-66380420D01*
X113418969Y-66394318D01*
X113267806Y-66504142D01*
X113113142Y-66658806D01*
X112984595Y-66835739D01*
X112885298Y-67030616D01*
X112885297Y-67030619D01*
X112817714Y-67238623D01*
X112783500Y-67454638D01*
X112783500Y-67673361D01*
X112817714Y-67889376D01*
X112885297Y-68097380D01*
X112885298Y-68097383D01*
X112941770Y-68208213D01*
X112968892Y-68261443D01*
X112984595Y-68292260D01*
X113113141Y-68469191D01*
X113113558Y-68469679D01*
X113113658Y-68469902D01*
X113116011Y-68473141D01*
X113115330Y-68473635D01*
X113142132Y-68533439D01*
X113131699Y-68602525D01*
X113106953Y-68637897D01*
X91467481Y-90277368D01*
X91467479Y-90277370D01*
X91451783Y-90304557D01*
X91445149Y-90316049D01*
X91388423Y-90414301D01*
X91347499Y-90567029D01*
X91347499Y-90567031D01*
X91347499Y-90662281D01*
X91327814Y-90729320D01*
X91279796Y-90772765D01*
X91240180Y-90792950D01*
X91068213Y-90917890D01*
X90917890Y-91068213D01*
X90792949Y-91240182D01*
X90739143Y-91345781D01*
X90691168Y-91396576D01*
X90623347Y-91413371D01*
X90566659Y-91396872D01*
X90552025Y-91388423D01*
X90399297Y-91347499D01*
X90241183Y-91347499D01*
X90233587Y-91347499D01*
X90233571Y-91347500D01*
X85613719Y-91347500D01*
X85546680Y-91327815D01*
X85503235Y-91279795D01*
X85483052Y-91240185D01*
X85483051Y-91240184D01*
X85358109Y-91068213D01*
X85207786Y-90917890D01*
X85035820Y-90792951D01*
X84846414Y-90696444D01*
X84846413Y-90696443D01*
X84846412Y-90696443D01*
X84644243Y-90630754D01*
X84644241Y-90630753D01*
X84644240Y-90630753D01*
X84482957Y-90605208D01*
X84434287Y-90597500D01*
X84221713Y-90597500D01*
X84173042Y-90605208D01*
X84011760Y-90630753D01*
X84011757Y-90630754D01*
X83878239Y-90674137D01*
X83809585Y-90696444D01*
X83620179Y-90792951D01*
X83448213Y-90917890D01*
X83297890Y-91068213D01*
X83172951Y-91240179D01*
X83076444Y-91429585D01*
X83010753Y-91631760D01*
X82977500Y-91841713D01*
X82977500Y-92054287D01*
X83010754Y-92264243D01*
X83075068Y-92462181D01*
X83076444Y-92466414D01*
X83172951Y-92655820D01*
X83297890Y-92827786D01*
X83448213Y-92978109D01*
X83620179Y-93103048D01*
X83620181Y-93103049D01*
X83620184Y-93103051D01*
X83809588Y-93199557D01*
X84011757Y-93265246D01*
X84221713Y-93298500D01*
X84221714Y-93298500D01*
X84434286Y-93298500D01*
X84434287Y-93298500D01*
X84644243Y-93265246D01*
X84846412Y-93199557D01*
X85035816Y-93103051D01*
X85077094Y-93073061D01*
X85207786Y-92978109D01*
X85207788Y-92978106D01*
X85207792Y-92978104D01*
X85358104Y-92827792D01*
X85358106Y-92827788D01*
X85358109Y-92827786D01*
X85470007Y-92673769D01*
X85483051Y-92655816D01*
X85483349Y-92655230D01*
X85503235Y-92616205D01*
X85551209Y-92565409D01*
X85613719Y-92548500D01*
X87311666Y-92548500D01*
X87378705Y-92568185D01*
X87424460Y-92620989D01*
X87434404Y-92690147D01*
X87405379Y-92753703D01*
X87381359Y-92774069D01*
X87381714Y-92774557D01*
X87193061Y-92911622D01*
X87031622Y-93073061D01*
X86897421Y-93257771D01*
X86793770Y-93461196D01*
X86723215Y-93678339D01*
X86687500Y-93903837D01*
X86687500Y-94132162D01*
X86723215Y-94357660D01*
X86793770Y-94574803D01*
X86897421Y-94778228D01*
X87031621Y-94962937D01*
X87193063Y-95124379D01*
X87377772Y-95258579D01*
X87473884Y-95307550D01*
X87581196Y-95362229D01*
X87581198Y-95362229D01*
X87581201Y-95362231D01*
X87697592Y-95400049D01*
X87798339Y-95432784D01*
X88023838Y-95468500D01*
X88023843Y-95468500D01*
X88252162Y-95468500D01*
X88477660Y-95432784D01*
X88694799Y-95362231D01*
X88898228Y-95258579D01*
X89082937Y-95124379D01*
X89244379Y-94962937D01*
X89378579Y-94778228D01*
X89482231Y-94574799D01*
X89552784Y-94357660D01*
X89563241Y-94291638D01*
X89588500Y-94132162D01*
X89588500Y-93903837D01*
X89552784Y-93678339D01*
X89484347Y-93467713D01*
X89482231Y-93461201D01*
X89482229Y-93461198D01*
X89482229Y-93461196D01*
X89378578Y-93257771D01*
X89336283Y-93199557D01*
X89244379Y-93073063D01*
X89082937Y-92911621D01*
X88898228Y-92777421D01*
X88898227Y-92777420D01*
X88894286Y-92774557D01*
X88895149Y-92773368D01*
X88852671Y-92726419D01*
X88841246Y-92657490D01*
X88868901Y-92593326D01*
X88926855Y-92554300D01*
X88964334Y-92548500D01*
X90020143Y-92548500D01*
X90087182Y-92568185D01*
X90107824Y-92584819D01*
X90986379Y-93463374D01*
X90986389Y-93463385D01*
X90990719Y-93467715D01*
X90990720Y-93467716D01*
X91102524Y-93579520D01*
X91142702Y-93602716D01*
X91189335Y-93629639D01*
X91189337Y-93629641D01*
X91227391Y-93651611D01*
X91239455Y-93658577D01*
X91392183Y-93699501D01*
X91392186Y-93699501D01*
X91557894Y-93699501D01*
X91557910Y-93699500D01*
X96158751Y-93699500D01*
X96158767Y-93699501D01*
X96166363Y-93699501D01*
X96324474Y-93699501D01*
X96324477Y-93699501D01*
X96477205Y-93658577D01*
X96527324Y-93629639D01*
X96614136Y-93579520D01*
X96725940Y-93467716D01*
X96725940Y-93467714D01*
X96736148Y-93457507D01*
X96736149Y-93457504D01*
X99519520Y-90674136D01*
X99598577Y-90537204D01*
X99639501Y-90384477D01*
X99639501Y-90226362D01*
X99639501Y-90218767D01*
X99639500Y-90218749D01*
X99639500Y-86395183D01*
X99659185Y-86328144D01*
X99675819Y-86307502D01*
X106144787Y-79838534D01*
X112737830Y-73245490D01*
X112799151Y-73212007D01*
X112868843Y-73216991D01*
X112924776Y-73258863D01*
X112935993Y-73276877D01*
X112984593Y-73372258D01*
X113113142Y-73549193D01*
X113267806Y-73703857D01*
X113418969Y-73813682D01*
X113461635Y-73869011D01*
X113467614Y-73938625D01*
X113435009Y-74000420D01*
X113418969Y-74014318D01*
X113267806Y-74124142D01*
X113113142Y-74278806D01*
X112984595Y-74455739D01*
X112885298Y-74650616D01*
X112885297Y-74650619D01*
X112817714Y-74858623D01*
X112783500Y-75074638D01*
X112783500Y-75293361D01*
X112817714Y-75509376D01*
X112885297Y-75717380D01*
X112885298Y-75717383D01*
X112947567Y-75839590D01*
X112983077Y-75909282D01*
X112984595Y-75912260D01*
X113113142Y-76089193D01*
X113267806Y-76243857D01*
X113418969Y-76353682D01*
X113461635Y-76409011D01*
X113467614Y-76478625D01*
X113435009Y-76540420D01*
X113418969Y-76554318D01*
X113267806Y-76664142D01*
X113113142Y-76818806D01*
X112984595Y-76995739D01*
X112885298Y-77190616D01*
X112885297Y-77190619D01*
X112817714Y-77398623D01*
X112783500Y-77614638D01*
X112783500Y-77833361D01*
X112817714Y-78049376D01*
X112885297Y-78257380D01*
X112885298Y-78257383D01*
X112984595Y-78452260D01*
X113113142Y-78629193D01*
X113267806Y-78783857D01*
X113403641Y-78882545D01*
X113444743Y-78912407D01*
X113512158Y-78946757D01*
X113518978Y-78950232D01*
X113569774Y-78998207D01*
X113586569Y-79066028D01*
X113564031Y-79132163D01*
X113550364Y-79148398D01*
X101755286Y-90943478D01*
X101643481Y-91055282D01*
X101643480Y-91055284D01*
X101602303Y-91126605D01*
X101564423Y-91192215D01*
X101523499Y-91344943D01*
X101523499Y-91344945D01*
X101523499Y-91513046D01*
X101523500Y-91513059D01*
X101523500Y-103669138D01*
X101503815Y-103736177D01*
X101463581Y-103773637D01*
X101463769Y-103773888D01*
X101461441Y-103775630D01*
X101458932Y-103777967D01*
X101456670Y-103779202D01*
X101341455Y-103865452D01*
X101341452Y-103865455D01*
X101255206Y-103980664D01*
X101255202Y-103980671D01*
X101204908Y-104115517D01*
X101198501Y-104175116D01*
X101198500Y-104175135D01*
X101198500Y-105120870D01*
X101198501Y-105120876D01*
X101204908Y-105180483D01*
X101255202Y-105315328D01*
X101255206Y-105315335D01*
X101341452Y-105430544D01*
X101341455Y-105430547D01*
X101456664Y-105516793D01*
X101456671Y-105516797D01*
X101591517Y-105567091D01*
X101591516Y-105567091D01*
X101598444Y-105567835D01*
X101651127Y-105573500D01*
X102596872Y-105573499D01*
X102656483Y-105567091D01*
X102735944Y-105537454D01*
X102752452Y-105531297D01*
X102822144Y-105526313D01*
X102843235Y-105532917D01*
X102854182Y-105537451D01*
X102854194Y-105537454D01*
X103032890Y-105572999D01*
X103032894Y-105573000D01*
X103215106Y-105573000D01*
X103215109Y-105572999D01*
X103393805Y-105537454D01*
X103393813Y-105537452D01*
X103562151Y-105467724D01*
X103562152Y-105467724D01*
X103578948Y-105456500D01*
X103085818Y-104963371D01*
X103071114Y-104936443D01*
X103054522Y-104910625D01*
X103053630Y-104904424D01*
X103052333Y-104902048D01*
X103050854Y-104888300D01*
X103074272Y-104898000D01*
X103173728Y-104898000D01*
X103265614Y-104859940D01*
X103335940Y-104789614D01*
X103374000Y-104697728D01*
X103374000Y-104647999D01*
X103477553Y-104647999D01*
X103477553Y-104648001D01*
X103932500Y-105102948D01*
X103932500Y-105102947D01*
X103943723Y-105086154D01*
X103943724Y-105086151D01*
X104013452Y-104917813D01*
X104013454Y-104917805D01*
X104048999Y-104739109D01*
X104049000Y-104739106D01*
X104049000Y-104556894D01*
X104048999Y-104556890D01*
X104013454Y-104378194D01*
X104013451Y-104378182D01*
X103943728Y-104209855D01*
X103943725Y-104209849D01*
X103932500Y-104193050D01*
X103477553Y-104647999D01*
X103374000Y-104647999D01*
X103374000Y-104598272D01*
X103335940Y-104506386D01*
X103265614Y-104436060D01*
X103173728Y-104398000D01*
X103074272Y-104398000D01*
X103053526Y-104406593D01*
X103069184Y-104353269D01*
X103085818Y-104332627D01*
X103578947Y-103839498D01*
X103562145Y-103828271D01*
X103393817Y-103758548D01*
X103393805Y-103758545D01*
X103215109Y-103723000D01*
X103032890Y-103723000D01*
X102872691Y-103754866D01*
X102803100Y-103748639D01*
X102747922Y-103705776D01*
X102724678Y-103639886D01*
X102724500Y-103633249D01*
X102724500Y-91724097D01*
X102744185Y-91657058D01*
X102760819Y-91636416D01*
X115247417Y-79149819D01*
X115308740Y-79116334D01*
X115335098Y-79113500D01*
X116060361Y-79113500D01*
X116165082Y-79096912D01*
X116276375Y-79079286D01*
X116484383Y-79011701D01*
X116679257Y-78912407D01*
X116778601Y-78840229D01*
X116856193Y-78783857D01*
X116856195Y-78783854D01*
X116856199Y-78783852D01*
X117010852Y-78629199D01*
X117010854Y-78629195D01*
X117010857Y-78629193D01*
X117067229Y-78551601D01*
X117139407Y-78452257D01*
X117238701Y-78257383D01*
X117306286Y-78049375D01*
X117323912Y-77938082D01*
X117340500Y-77833361D01*
X117340500Y-77614638D01*
X117320595Y-77488971D01*
X117306286Y-77398625D01*
X117238701Y-77190617D01*
X117238701Y-77190616D01*
X117204315Y-77123132D01*
X117139407Y-76995743D01*
X117131147Y-76984374D01*
X117010857Y-76818806D01*
X116856199Y-76664148D01*
X116856191Y-76664142D01*
X116705028Y-76554316D01*
X116662364Y-76498989D01*
X116656385Y-76429376D01*
X116688990Y-76367580D01*
X116705023Y-76353686D01*
X116856199Y-76243852D01*
X117010852Y-76089199D01*
X117010854Y-76089195D01*
X117010857Y-76089193D01*
X117097015Y-75970605D01*
X117139407Y-75912257D01*
X117238701Y-75717383D01*
X117306286Y-75509375D01*
X117323912Y-75398082D01*
X117340500Y-75293361D01*
X117340500Y-75074638D01*
X117320595Y-74948971D01*
X117306286Y-74858625D01*
X117238701Y-74650617D01*
X117238701Y-74650616D01*
X117204315Y-74583132D01*
X117139407Y-74455743D01*
X117131147Y-74444374D01*
X117010857Y-74278806D01*
X116856199Y-74124148D01*
X116856191Y-74124142D01*
X116705028Y-74014316D01*
X116662364Y-73958989D01*
X116656385Y-73889376D01*
X116688990Y-73827580D01*
X116705023Y-73813686D01*
X116856199Y-73703852D01*
X117010852Y-73549199D01*
X117010854Y-73549195D01*
X117010857Y-73549193D01*
X117067229Y-73471601D01*
X117139407Y-73372257D01*
X117238701Y-73177383D01*
X117306286Y-72969375D01*
X117323912Y-72858082D01*
X117340500Y-72753361D01*
X117340500Y-72534638D01*
X117320595Y-72408971D01*
X117306286Y-72318625D01*
X117255877Y-72163480D01*
X117238701Y-72110616D01*
X117186445Y-72008060D01*
X117139407Y-71915743D01*
X117131147Y-71904374D01*
X117010857Y-71738806D01*
X116856199Y-71584148D01*
X116809597Y-71550290D01*
X116705028Y-71474316D01*
X116662364Y-71418989D01*
X116656385Y-71349376D01*
X116688990Y-71287580D01*
X116705023Y-71273686D01*
X116856199Y-71163852D01*
X117010852Y-71009199D01*
X117010854Y-71009195D01*
X117010857Y-71009193D01*
X117067229Y-70931601D01*
X117139407Y-70832257D01*
X117238701Y-70637383D01*
X117306286Y-70429375D01*
X117326035Y-70304686D01*
X117340500Y-70213361D01*
X117340500Y-69994638D01*
X117309009Y-69795820D01*
X117306286Y-69778625D01*
X117272493Y-69674621D01*
X117238702Y-69570619D01*
X117238701Y-69570616D01*
X117180665Y-69456716D01*
X117139407Y-69375743D01*
X117131147Y-69364374D01*
X117010857Y-69198806D01*
X116856199Y-69044148D01*
X116856191Y-69044142D01*
X116705028Y-68934316D01*
X116662364Y-68878989D01*
X116656385Y-68809376D01*
X116688990Y-68747580D01*
X116705023Y-68733686D01*
X116856199Y-68623852D01*
X117010852Y-68469199D01*
X117010854Y-68469195D01*
X117010857Y-68469193D01*
X117126820Y-68309581D01*
X117139407Y-68292257D01*
X117238701Y-68097383D01*
X117306286Y-67889375D01*
X117330341Y-67737500D01*
X117340500Y-67673361D01*
X117340500Y-67454638D01*
X117311036Y-67268616D01*
X117306286Y-67238625D01*
X117238701Y-67030617D01*
X117238701Y-67030616D01*
X117178115Y-66911711D01*
X117139407Y-66835743D01*
X117089656Y-66767266D01*
X117010857Y-66658806D01*
X116856199Y-66504148D01*
X116797080Y-66461196D01*
X116705028Y-66394316D01*
X116662364Y-66338989D01*
X116656385Y-66269376D01*
X116688990Y-66207580D01*
X116705023Y-66193686D01*
X116856199Y-66083852D01*
X117010852Y-65929199D01*
X117010854Y-65929195D01*
X117010857Y-65929193D01*
X117121124Y-65777421D01*
X117139407Y-65752257D01*
X117238701Y-65557383D01*
X117306286Y-65349375D01*
X117330027Y-65199482D01*
X117340500Y-65133361D01*
X117340500Y-64914638D01*
X117318224Y-64774000D01*
X117306286Y-64698625D01*
X117255877Y-64543480D01*
X117238701Y-64490616D01*
X117170005Y-64355795D01*
X117139407Y-64295743D01*
X117131147Y-64284374D01*
X117010857Y-64118806D01*
X116856199Y-63964148D01*
X116856191Y-63964142D01*
X116705028Y-63854316D01*
X116662364Y-63798989D01*
X116656385Y-63729376D01*
X116688990Y-63667580D01*
X116705023Y-63653686D01*
X116856199Y-63543852D01*
X117010852Y-63389199D01*
X117010854Y-63389195D01*
X117010857Y-63389193D01*
X117067229Y-63311601D01*
X117139407Y-63212257D01*
X117238701Y-63017383D01*
X117306286Y-62809375D01*
X117334640Y-62630355D01*
X117340500Y-62593361D01*
X117340500Y-62374638D01*
X129547500Y-62374638D01*
X129547500Y-62593361D01*
X129581714Y-62809376D01*
X129649297Y-63017380D01*
X129649298Y-63017383D01*
X129748595Y-63212260D01*
X129877142Y-63389193D01*
X130031802Y-63543853D01*
X130031807Y-63543857D01*
X130183394Y-63653991D01*
X130226060Y-63709320D01*
X130232039Y-63778934D01*
X130199434Y-63840729D01*
X130183394Y-63854627D01*
X130032133Y-63964524D01*
X130032128Y-63964528D01*
X129877528Y-64119128D01*
X129877524Y-64119133D01*
X129749023Y-64296001D01*
X129649762Y-64490808D01*
X129649761Y-64490811D01*
X129582201Y-64698741D01*
X129570282Y-64774000D01*
X130621749Y-64774000D01*
X130590619Y-64827919D01*
X130556000Y-64957120D01*
X130556000Y-65090880D01*
X130590619Y-65220081D01*
X130621749Y-65274000D01*
X129570282Y-65274000D01*
X129582201Y-65349258D01*
X129649761Y-65557188D01*
X129649762Y-65557191D01*
X129749023Y-65751998D01*
X129877524Y-65928866D01*
X129877528Y-65928871D01*
X130032128Y-66083471D01*
X130032133Y-66083475D01*
X130183394Y-66193372D01*
X130226060Y-66248701D01*
X130232039Y-66318315D01*
X130199434Y-66380110D01*
X130183394Y-66394008D01*
X130031807Y-66504142D01*
X130031802Y-66504146D01*
X129877142Y-66658806D01*
X129748595Y-66835739D01*
X129649298Y-67030616D01*
X129649297Y-67030619D01*
X129581714Y-67238623D01*
X129547500Y-67454638D01*
X129547500Y-67673361D01*
X129581714Y-67889376D01*
X129649297Y-68097380D01*
X129649298Y-68097383D01*
X129705770Y-68208213D01*
X129732892Y-68261443D01*
X129748595Y-68292260D01*
X129877142Y-68469193D01*
X130031806Y-68623857D01*
X130182969Y-68733682D01*
X130225635Y-68789011D01*
X130231614Y-68858625D01*
X130199009Y-68920420D01*
X130182969Y-68934318D01*
X130031806Y-69044142D01*
X129877142Y-69198806D01*
X129748595Y-69375739D01*
X129649298Y-69570616D01*
X129649297Y-69570619D01*
X129581714Y-69778623D01*
X129547500Y-69994638D01*
X129547500Y-70213361D01*
X129581714Y-70429376D01*
X129649297Y-70637380D01*
X129649298Y-70637383D01*
X129748595Y-70832260D01*
X129877142Y-71009193D01*
X130031806Y-71163857D01*
X130182969Y-71273682D01*
X130225635Y-71329011D01*
X130231614Y-71398625D01*
X130199009Y-71460420D01*
X130182969Y-71474318D01*
X130031806Y-71584142D01*
X129877142Y-71738806D01*
X129748595Y-71915739D01*
X129649299Y-72110616D01*
X129581714Y-72318623D01*
X129547500Y-72534638D01*
X129547500Y-72753361D01*
X129581714Y-72969376D01*
X129649297Y-73177380D01*
X129649298Y-73177383D01*
X129748595Y-73372260D01*
X129877142Y-73549193D01*
X130031806Y-73703857D01*
X130182969Y-73813682D01*
X130225635Y-73869011D01*
X130231614Y-73938625D01*
X130199009Y-74000420D01*
X130182969Y-74014318D01*
X130031806Y-74124142D01*
X129877142Y-74278806D01*
X129748595Y-74455739D01*
X129649298Y-74650616D01*
X129649297Y-74650619D01*
X129581714Y-74858623D01*
X129547500Y-75074638D01*
X129547500Y-75293361D01*
X129581714Y-75509376D01*
X129649297Y-75717380D01*
X129649298Y-75717383D01*
X129711567Y-75839590D01*
X129747077Y-75909282D01*
X129748595Y-75912260D01*
X129877142Y-76089193D01*
X130031806Y-76243857D01*
X130182969Y-76353682D01*
X130225635Y-76409011D01*
X130231614Y-76478625D01*
X130199009Y-76540420D01*
X130182969Y-76554318D01*
X130031806Y-76664142D01*
X129877142Y-76818806D01*
X129748595Y-76995739D01*
X129649298Y-77190616D01*
X129649297Y-77190619D01*
X129581714Y-77398623D01*
X129547500Y-77614638D01*
X129547500Y-77833361D01*
X129581714Y-78049376D01*
X129649297Y-78257380D01*
X129649298Y-78257383D01*
X129748595Y-78452260D01*
X129877142Y-78629193D01*
X130031806Y-78783857D01*
X130167641Y-78882545D01*
X130208743Y-78912407D01*
X130336132Y-78977315D01*
X130403616Y-79011701D01*
X130403619Y-79011702D01*
X130439426Y-79023336D01*
X130611625Y-79079286D01*
X130711672Y-79095132D01*
X130827639Y-79113500D01*
X130827644Y-79113500D01*
X132824361Y-79113500D01*
X132929082Y-79096912D01*
X133040375Y-79079286D01*
X133248383Y-79011701D01*
X133443257Y-78912407D01*
X133542601Y-78840229D01*
X133620193Y-78783857D01*
X133620195Y-78783854D01*
X133620199Y-78783852D01*
X133774852Y-78629199D01*
X133774854Y-78629195D01*
X133774857Y-78629193D01*
X133831229Y-78551601D01*
X133903407Y-78452257D01*
X134002701Y-78257383D01*
X134070286Y-78049375D01*
X134070477Y-78048165D01*
X134070678Y-78047741D01*
X134071422Y-78044644D01*
X134072072Y-78044800D01*
X134100395Y-77985031D01*
X134159700Y-77948091D01*
X134229563Y-77949077D01*
X134280633Y-77979868D01*
X159313812Y-103013047D01*
X159347297Y-103074370D01*
X159342313Y-103144062D01*
X159300441Y-103199995D01*
X159259723Y-103219033D01*
X159259785Y-103219198D01*
X159257737Y-103219961D01*
X159254657Y-103221402D01*
X159252523Y-103221906D01*
X159117671Y-103272202D01*
X159117664Y-103272206D01*
X159002455Y-103358452D01*
X159002452Y-103358455D01*
X158916206Y-103473664D01*
X158916202Y-103473671D01*
X158865908Y-103608517D01*
X158862536Y-103639886D01*
X158859501Y-103668123D01*
X158859500Y-103668135D01*
X158859500Y-104763870D01*
X158859501Y-104763876D01*
X158865908Y-104823483D01*
X158916202Y-104958328D01*
X158916206Y-104958335D01*
X159002452Y-105073544D01*
X159002455Y-105073547D01*
X159117664Y-105159793D01*
X159117671Y-105159797D01*
X159252517Y-105210091D01*
X159252516Y-105210091D01*
X159259444Y-105210835D01*
X159312127Y-105216500D01*
X160907872Y-105216499D01*
X160967483Y-105210091D01*
X161102331Y-105159796D01*
X161217546Y-105073546D01*
X161303796Y-104958331D01*
X161354091Y-104823483D01*
X161360500Y-104763873D01*
X161360499Y-103668128D01*
X161354091Y-103608517D01*
X161303796Y-103473669D01*
X161303795Y-103473668D01*
X161303793Y-103473664D01*
X161217547Y-103358455D01*
X161217544Y-103358452D01*
X161102335Y-103272206D01*
X161102328Y-103272202D01*
X160967482Y-103221908D01*
X160967483Y-103221908D01*
X160907883Y-103215501D01*
X160907881Y-103215500D01*
X160907873Y-103215500D01*
X160907865Y-103215500D01*
X160834500Y-103215500D01*
X160825814Y-103212949D01*
X160816853Y-103214238D01*
X160792812Y-103203259D01*
X160767461Y-103195815D01*
X160761533Y-103188974D01*
X160753297Y-103185213D01*
X160739007Y-103162978D01*
X160721706Y-103143011D01*
X160719418Y-103132496D01*
X160715523Y-103126435D01*
X160710500Y-103091500D01*
X160710500Y-103049059D01*
X160710501Y-103049046D01*
X160710501Y-102880945D01*
X160710501Y-102880943D01*
X160669577Y-102728215D01*
X160640639Y-102678095D01*
X160590520Y-102591284D01*
X160478716Y-102479480D01*
X160478715Y-102479479D01*
X160474385Y-102475149D01*
X160474374Y-102475139D01*
X160226916Y-102227681D01*
X160193431Y-102166358D01*
X160198415Y-102096666D01*
X160240287Y-102040733D01*
X160305751Y-102016316D01*
X160314597Y-102016000D01*
X160907828Y-102016000D01*
X160907844Y-102015999D01*
X160967372Y-102009598D01*
X160967379Y-102009596D01*
X161102086Y-101959354D01*
X161102093Y-101959350D01*
X161217187Y-101873190D01*
X161217190Y-101873187D01*
X161303350Y-101758093D01*
X161303354Y-101758086D01*
X161353596Y-101623379D01*
X161353598Y-101623372D01*
X161359999Y-101563844D01*
X161360000Y-101563827D01*
X161360000Y-101266000D01*
X160234000Y-101266000D01*
X160166961Y-101246315D01*
X160121206Y-101193511D01*
X160110000Y-101142000D01*
X160110000Y-101016000D01*
X159984000Y-101016000D01*
X159916961Y-100996315D01*
X159871206Y-100943511D01*
X159860000Y-100892000D01*
X159860000Y-100766000D01*
X160360000Y-100766000D01*
X161360000Y-100766000D01*
X161360000Y-100468164D01*
X161359997Y-100468135D01*
X163759500Y-100468135D01*
X163759500Y-101563870D01*
X163759501Y-101563876D01*
X163765908Y-101623483D01*
X163816202Y-101758328D01*
X163816206Y-101758335D01*
X163902452Y-101873544D01*
X163902455Y-101873547D01*
X164017664Y-101959793D01*
X164017671Y-101959797D01*
X164152517Y-102010091D01*
X164152516Y-102010091D01*
X164159444Y-102010835D01*
X164212127Y-102016500D01*
X165807872Y-102016499D01*
X165867483Y-102010091D01*
X166002331Y-101959796D01*
X166117546Y-101873546D01*
X166203796Y-101758331D01*
X166254091Y-101623483D01*
X166260500Y-101563873D01*
X166260499Y-100468128D01*
X166254091Y-100408517D01*
X166203884Y-100273906D01*
X166203797Y-100273671D01*
X166203793Y-100273664D01*
X166117547Y-100158455D01*
X166117544Y-100158452D01*
X166002335Y-100072206D01*
X166002328Y-100072202D01*
X165867482Y-100021908D01*
X165867483Y-100021908D01*
X165807883Y-100015501D01*
X165807881Y-100015500D01*
X165807873Y-100015500D01*
X165807864Y-100015500D01*
X164212129Y-100015500D01*
X164212123Y-100015501D01*
X164152516Y-100021908D01*
X164017671Y-100072202D01*
X164017664Y-100072206D01*
X163902455Y-100158452D01*
X163902452Y-100158455D01*
X163816206Y-100273664D01*
X163816202Y-100273671D01*
X163765908Y-100408517D01*
X163764074Y-100425580D01*
X163759501Y-100468123D01*
X163759500Y-100468135D01*
X161359997Y-100468135D01*
X161353598Y-100408627D01*
X161353596Y-100408620D01*
X161303354Y-100273913D01*
X161303350Y-100273906D01*
X161217190Y-100158812D01*
X161217187Y-100158809D01*
X161102093Y-100072649D01*
X161102086Y-100072645D01*
X160967379Y-100022403D01*
X160967372Y-100022401D01*
X160907844Y-100016000D01*
X160360000Y-100016000D01*
X160360000Y-100766000D01*
X159860000Y-100766000D01*
X159860000Y-100016000D01*
X159312155Y-100016000D01*
X159252627Y-100022401D01*
X159252620Y-100022403D01*
X159117913Y-100072645D01*
X159117906Y-100072649D01*
X159002812Y-100158809D01*
X159002809Y-100158812D01*
X158916649Y-100273906D01*
X158916645Y-100273913D01*
X158866403Y-100408620D01*
X158866401Y-100408627D01*
X158860000Y-100468155D01*
X158860000Y-100561403D01*
X158840315Y-100628442D01*
X158787511Y-100674197D01*
X158718353Y-100684141D01*
X158654797Y-100655116D01*
X158648319Y-100649084D01*
X133969840Y-75970605D01*
X133936355Y-75909282D01*
X133941339Y-75839590D01*
X133947037Y-75826628D01*
X134002699Y-75717387D01*
X134002702Y-75717380D01*
X134005139Y-75709879D01*
X134070286Y-75509375D01*
X134087912Y-75398082D01*
X134104500Y-75293361D01*
X134104500Y-75074638D01*
X134084595Y-74948971D01*
X134070286Y-74858625D01*
X134002701Y-74650617D01*
X134002701Y-74650616D01*
X133968315Y-74583132D01*
X133903407Y-74455743D01*
X133895147Y-74444374D01*
X133774857Y-74278806D01*
X133620199Y-74124148D01*
X133620191Y-74124142D01*
X133469028Y-74014316D01*
X133426364Y-73958989D01*
X133420385Y-73889376D01*
X133452990Y-73827580D01*
X133469023Y-73813686D01*
X133620199Y-73703852D01*
X133774852Y-73549199D01*
X133774854Y-73549195D01*
X133774857Y-73549193D01*
X133831229Y-73471601D01*
X133903407Y-73372257D01*
X133934005Y-73312204D01*
X133981980Y-73261409D01*
X134044490Y-73244500D01*
X154819903Y-73244500D01*
X154886942Y-73264185D01*
X154907584Y-73280819D01*
X165517181Y-83890416D01*
X165550666Y-83951739D01*
X165553500Y-83978097D01*
X165553500Y-84875870D01*
X165553501Y-84875876D01*
X165559908Y-84935483D01*
X165610202Y-85070328D01*
X165610206Y-85070335D01*
X165696452Y-85185544D01*
X165696455Y-85185547D01*
X165811664Y-85271793D01*
X165811671Y-85271797D01*
X165946517Y-85322091D01*
X165946516Y-85322091D01*
X165953444Y-85322835D01*
X166006127Y-85328500D01*
X167601872Y-85328499D01*
X167661483Y-85322091D01*
X167796331Y-85271796D01*
X167911546Y-85185546D01*
X167997796Y-85070331D01*
X168048091Y-84935483D01*
X168054500Y-84875873D01*
X168054499Y-83780128D01*
X168048091Y-83720517D01*
X168020192Y-83645717D01*
X167997797Y-83585671D01*
X167997793Y-83585664D01*
X167911547Y-83470455D01*
X167911544Y-83470452D01*
X167796335Y-83384206D01*
X167796328Y-83384202D01*
X167661482Y-83333908D01*
X167661483Y-83333908D01*
X167601883Y-83327501D01*
X167601881Y-83327500D01*
X167601873Y-83327500D01*
X167601865Y-83327500D01*
X166704097Y-83327500D01*
X166637058Y-83307815D01*
X166616416Y-83291181D01*
X165001079Y-81675844D01*
X165554000Y-81675844D01*
X165560401Y-81735372D01*
X165560403Y-81735379D01*
X165610645Y-81870086D01*
X165610649Y-81870093D01*
X165696809Y-81985187D01*
X165696812Y-81985190D01*
X165811906Y-82071350D01*
X165811913Y-82071354D01*
X165946620Y-82121596D01*
X165946627Y-82121598D01*
X166006155Y-82127999D01*
X166006172Y-82128000D01*
X166554000Y-82128000D01*
X167054000Y-82128000D01*
X167601828Y-82128000D01*
X167601844Y-82127999D01*
X167661372Y-82121598D01*
X167661379Y-82121596D01*
X167796086Y-82071354D01*
X167796093Y-82071350D01*
X167911187Y-81985190D01*
X167911190Y-81985187D01*
X167997350Y-81870093D01*
X167997354Y-81870086D01*
X168047596Y-81735379D01*
X168047598Y-81735372D01*
X168053999Y-81675844D01*
X168054000Y-81675827D01*
X168054000Y-81378000D01*
X167054000Y-81378000D01*
X167054000Y-82128000D01*
X166554000Y-82128000D01*
X166554000Y-81378000D01*
X165554000Y-81378000D01*
X165554000Y-81675844D01*
X165001079Y-81675844D01*
X163905390Y-80580155D01*
X165554000Y-80580155D01*
X165554000Y-80878000D01*
X166554000Y-80878000D01*
X167054000Y-80878000D01*
X168054000Y-80878000D01*
X168054000Y-80580172D01*
X168053999Y-80580155D01*
X168047598Y-80520627D01*
X168047596Y-80520620D01*
X167997354Y-80385913D01*
X167997350Y-80385906D01*
X167911190Y-80270812D01*
X167911187Y-80270809D01*
X167796093Y-80184649D01*
X167796086Y-80184645D01*
X167661379Y-80134403D01*
X167661372Y-80134401D01*
X167601844Y-80128000D01*
X167054000Y-80128000D01*
X167054000Y-80878000D01*
X166554000Y-80878000D01*
X166554000Y-80128000D01*
X166006155Y-80128000D01*
X165946627Y-80134401D01*
X165946620Y-80134403D01*
X165811913Y-80184645D01*
X165811906Y-80184649D01*
X165696812Y-80270809D01*
X165696809Y-80270812D01*
X165610649Y-80385906D01*
X165610645Y-80385913D01*
X165560403Y-80520620D01*
X165560401Y-80520627D01*
X165554000Y-80580155D01*
X163905390Y-80580155D01*
X155607590Y-72282355D01*
X155607588Y-72282352D01*
X155488717Y-72163481D01*
X155488709Y-72163475D01*
X155397155Y-72110617D01*
X155397153Y-72110616D01*
X155351790Y-72084425D01*
X155351789Y-72084424D01*
X155339263Y-72081067D01*
X155199057Y-72043499D01*
X155040943Y-72043499D01*
X155033347Y-72043499D01*
X155033331Y-72043500D01*
X134044490Y-72043500D01*
X133977451Y-72023815D01*
X133934005Y-71975795D01*
X133903407Y-71915743D01*
X133895147Y-71904374D01*
X133774857Y-71738806D01*
X133620199Y-71584148D01*
X133573597Y-71550290D01*
X133469028Y-71474316D01*
X133426364Y-71418989D01*
X133420385Y-71349376D01*
X133452990Y-71287580D01*
X133469023Y-71273686D01*
X133620199Y-71163852D01*
X133774852Y-71009199D01*
X133774854Y-71009195D01*
X133774857Y-71009193D01*
X133831229Y-70931601D01*
X133903407Y-70832257D01*
X133934005Y-70772204D01*
X133981980Y-70721409D01*
X134044490Y-70704500D01*
X154929331Y-70704500D01*
X154929347Y-70704501D01*
X154936943Y-70704501D01*
X155095054Y-70704501D01*
X155095057Y-70704501D01*
X155247785Y-70663577D01*
X155297904Y-70634639D01*
X155384716Y-70584520D01*
X155496520Y-70472716D01*
X155496520Y-70472714D01*
X155506728Y-70462507D01*
X155506730Y-70462504D01*
X160340416Y-65628818D01*
X160401739Y-65595333D01*
X160428097Y-65592499D01*
X161325871Y-65592499D01*
X161325872Y-65592499D01*
X161385483Y-65586091D01*
X161520331Y-65535796D01*
X161635546Y-65449546D01*
X161721796Y-65334331D01*
X161772091Y-65199483D01*
X161778500Y-65139873D01*
X161778499Y-64044128D01*
X161772091Y-63984517D01*
X161730684Y-63873500D01*
X161721797Y-63849671D01*
X161721795Y-63849668D01*
X161716497Y-63842591D01*
X161677734Y-63790810D01*
X161653317Y-63725348D01*
X161668168Y-63657075D01*
X161717573Y-63607669D01*
X161777001Y-63592500D01*
X164037903Y-63592500D01*
X164067343Y-63601144D01*
X164097330Y-63607668D01*
X164102345Y-63611422D01*
X164104942Y-63612185D01*
X164125584Y-63628819D01*
X164208342Y-63711577D01*
X164241827Y-63772900D01*
X164236843Y-63842591D01*
X164183908Y-63984516D01*
X164177501Y-64044116D01*
X164177501Y-64044123D01*
X164177500Y-64044135D01*
X164177500Y-65139870D01*
X164177501Y-65139876D01*
X164183908Y-65199483D01*
X164234202Y-65334328D01*
X164234206Y-65334335D01*
X164320452Y-65449544D01*
X164320455Y-65449547D01*
X164435664Y-65535793D01*
X164435671Y-65535797D01*
X164570517Y-65586091D01*
X164570516Y-65586091D01*
X164577444Y-65586835D01*
X164630127Y-65592500D01*
X165527902Y-65592499D01*
X165594941Y-65612183D01*
X165615583Y-65628818D01*
X172118181Y-72131416D01*
X172151666Y-72192739D01*
X172154500Y-72219097D01*
X172154500Y-80003500D01*
X172134815Y-80070539D01*
X172082011Y-80116294D01*
X172030500Y-80127500D01*
X170906129Y-80127500D01*
X170906123Y-80127501D01*
X170846516Y-80133908D01*
X170711671Y-80184202D01*
X170711664Y-80184206D01*
X170596455Y-80270452D01*
X170596452Y-80270455D01*
X170510206Y-80385664D01*
X170510202Y-80385671D01*
X170459908Y-80520517D01*
X170453501Y-80580116D01*
X170453500Y-80580135D01*
X170453500Y-81675870D01*
X170453501Y-81675876D01*
X170459908Y-81735483D01*
X170510202Y-81870328D01*
X170510206Y-81870335D01*
X170596452Y-81985544D01*
X170596455Y-81985547D01*
X170711664Y-82071793D01*
X170711671Y-82071797D01*
X170846517Y-82122091D01*
X170846516Y-82122091D01*
X170853444Y-82122835D01*
X170906127Y-82128500D01*
X172030500Y-82128499D01*
X172097539Y-82148184D01*
X172143294Y-82200987D01*
X172154500Y-82252499D01*
X172154500Y-82976902D01*
X172134815Y-83043941D01*
X172118181Y-83064583D01*
X171891583Y-83291181D01*
X171830260Y-83324666D01*
X171803902Y-83327500D01*
X170906129Y-83327500D01*
X170906123Y-83327501D01*
X170846516Y-83333908D01*
X170711671Y-83384202D01*
X170711664Y-83384206D01*
X170596455Y-83470452D01*
X170596452Y-83470455D01*
X170510206Y-83585664D01*
X170510202Y-83585671D01*
X170459908Y-83720517D01*
X170453501Y-83780116D01*
X170453501Y-83780123D01*
X170453500Y-83780135D01*
X170453500Y-84875870D01*
X170453501Y-84875876D01*
X170459908Y-84935483D01*
X170510202Y-85070328D01*
X170510206Y-85070335D01*
X170596452Y-85185544D01*
X170596455Y-85185547D01*
X170711664Y-85271793D01*
X170711671Y-85271797D01*
X170756618Y-85288561D01*
X170846517Y-85322091D01*
X170906127Y-85328500D01*
X170979500Y-85328499D01*
X171046538Y-85348183D01*
X171092294Y-85400986D01*
X171103500Y-85452499D01*
X171103500Y-97221902D01*
X171083815Y-97288941D01*
X171067181Y-97309583D01*
X165197582Y-103179181D01*
X165136259Y-103212666D01*
X165109901Y-103215500D01*
X164212129Y-103215500D01*
X164212123Y-103215501D01*
X164152516Y-103221908D01*
X164017671Y-103272202D01*
X164017664Y-103272206D01*
X163902455Y-103358452D01*
X163902452Y-103358455D01*
X163816206Y-103473664D01*
X163816202Y-103473671D01*
X163765908Y-103608517D01*
X163762536Y-103639886D01*
X163759501Y-103668123D01*
X163759500Y-103668135D01*
X163759500Y-104763870D01*
X163759501Y-104763876D01*
X163765908Y-104823483D01*
X163816202Y-104958328D01*
X163816206Y-104958335D01*
X163902452Y-105073544D01*
X163902455Y-105073547D01*
X164017664Y-105159793D01*
X164017671Y-105159797D01*
X164152517Y-105210091D01*
X164152516Y-105210091D01*
X164159444Y-105210835D01*
X164212127Y-105216500D01*
X165807872Y-105216499D01*
X165867483Y-105210091D01*
X166002331Y-105159796D01*
X166117546Y-105073546D01*
X166203796Y-104958331D01*
X166254091Y-104823483D01*
X166260500Y-104763873D01*
X166260499Y-103866095D01*
X166280183Y-103799057D01*
X166296813Y-103778420D01*
X172184520Y-97890716D01*
X172263577Y-97753784D01*
X172304501Y-97601057D01*
X172304501Y-97442942D01*
X172304501Y-97435347D01*
X172304500Y-97435329D01*
X172304500Y-85452499D01*
X172324185Y-85385460D01*
X172376989Y-85339705D01*
X172428500Y-85328499D01*
X172501871Y-85328499D01*
X172501872Y-85328499D01*
X172561483Y-85322091D01*
X172696331Y-85271796D01*
X172811546Y-85185546D01*
X172897796Y-85070331D01*
X172948091Y-84935483D01*
X172954500Y-84875873D01*
X172954499Y-83978095D01*
X172963145Y-83948649D01*
X172969667Y-83918669D01*
X172973419Y-83913655D01*
X172974183Y-83911057D01*
X172990813Y-83890420D01*
X173113506Y-83767728D01*
X173113511Y-83767724D01*
X173123714Y-83757520D01*
X173123716Y-83757520D01*
X173235520Y-83645716D01*
X173314577Y-83508784D01*
X173355500Y-83356057D01*
X173355500Y-72008060D01*
X173355501Y-72008047D01*
X173355501Y-71839944D01*
X173355501Y-71839943D01*
X173314577Y-71687216D01*
X173314573Y-71687209D01*
X173235524Y-71550290D01*
X173235518Y-71550282D01*
X166714818Y-65029582D01*
X166681333Y-64968259D01*
X166678499Y-64941901D01*
X166678499Y-64044129D01*
X166678498Y-64044123D01*
X166678497Y-64044116D01*
X166672091Y-63984517D01*
X166630684Y-63873500D01*
X166621797Y-63849671D01*
X166621793Y-63849664D01*
X166535547Y-63734455D01*
X166535544Y-63734452D01*
X166420335Y-63648206D01*
X166420328Y-63648202D01*
X166285482Y-63597908D01*
X166285483Y-63597908D01*
X166225883Y-63591501D01*
X166225881Y-63591500D01*
X166225873Y-63591500D01*
X166225865Y-63591500D01*
X165838098Y-63591500D01*
X165771059Y-63571815D01*
X165750417Y-63555181D01*
X164825590Y-62630355D01*
X164818521Y-62623286D01*
X164818520Y-62623284D01*
X164799412Y-62604176D01*
X164765930Y-62542855D01*
X164768779Y-62503025D01*
X164770915Y-62473165D01*
X164784518Y-62454994D01*
X164812788Y-62417230D01*
X164857673Y-62400490D01*
X164878251Y-62392815D01*
X164887073Y-62392499D01*
X166225872Y-62392499D01*
X166285483Y-62386091D01*
X166420331Y-62335796D01*
X166535546Y-62249546D01*
X166621796Y-62134331D01*
X166672091Y-61999483D01*
X166678500Y-61939873D01*
X166678499Y-60844128D01*
X166672091Y-60784517D01*
X166654363Y-60736987D01*
X166621797Y-60649671D01*
X166621793Y-60649664D01*
X166535547Y-60534455D01*
X166535544Y-60534452D01*
X166420335Y-60448206D01*
X166420328Y-60448202D01*
X166285482Y-60397908D01*
X166285483Y-60397908D01*
X166225883Y-60391501D01*
X166225881Y-60391500D01*
X166225873Y-60391500D01*
X166225864Y-60391500D01*
X164630129Y-60391500D01*
X164630123Y-60391501D01*
X164570516Y-60397908D01*
X164435671Y-60448202D01*
X164435664Y-60448206D01*
X164320455Y-60534452D01*
X164320452Y-60534455D01*
X164234206Y-60649664D01*
X164234202Y-60649671D01*
X164183908Y-60784517D01*
X164177501Y-60844116D01*
X164177501Y-60844123D01*
X164177500Y-60844135D01*
X164177500Y-61939870D01*
X164177501Y-61939876D01*
X164183908Y-61999483D01*
X164234202Y-62134328D01*
X164234204Y-62134331D01*
X164278265Y-62193189D01*
X164302683Y-62258652D01*
X164287832Y-62326925D01*
X164238427Y-62376331D01*
X164178999Y-62391500D01*
X161776377Y-62391500D01*
X161709338Y-62371815D01*
X161663583Y-62319011D01*
X161653639Y-62249853D01*
X161677111Y-62193188D01*
X161721352Y-62134089D01*
X161721354Y-62134086D01*
X161771596Y-61999379D01*
X161771598Y-61999372D01*
X161777999Y-61939844D01*
X161778000Y-61939827D01*
X161778000Y-61642000D01*
X159278000Y-61642000D01*
X159278000Y-61939844D01*
X159284401Y-61999372D01*
X159284403Y-61999379D01*
X159334645Y-62134086D01*
X159334647Y-62134089D01*
X159378889Y-62193188D01*
X159403307Y-62258652D01*
X159388456Y-62326926D01*
X159339051Y-62376331D01*
X159279623Y-62391500D01*
X136350854Y-62391500D01*
X136309933Y-62402464D01*
X136309933Y-62402465D01*
X136272665Y-62412451D01*
X136198128Y-62432423D01*
X136198123Y-62432426D01*
X136061204Y-62511475D01*
X136061196Y-62511481D01*
X135949392Y-62623286D01*
X134149798Y-64422878D01*
X134088475Y-64456363D01*
X134018783Y-64451379D01*
X133962850Y-64409507D01*
X133951632Y-64391492D01*
X133902976Y-64296001D01*
X133774475Y-64119133D01*
X133774471Y-64119128D01*
X133619871Y-63964528D01*
X133619866Y-63964524D01*
X133468605Y-63854627D01*
X133425939Y-63799297D01*
X133419960Y-63729684D01*
X133452565Y-63667889D01*
X133468599Y-63653994D01*
X133620199Y-63543852D01*
X133774852Y-63389199D01*
X133774854Y-63389195D01*
X133774857Y-63389193D01*
X133831229Y-63311601D01*
X133903407Y-63212257D01*
X134002701Y-63017383D01*
X134070286Y-62809375D01*
X134098640Y-62630355D01*
X134104500Y-62593361D01*
X134104500Y-62374638D01*
X134075760Y-62193188D01*
X134070286Y-62158625D01*
X134019877Y-62003480D01*
X134002702Y-61950619D01*
X134002701Y-61950616D01*
X133934005Y-61815795D01*
X133903407Y-61755743D01*
X133895147Y-61744374D01*
X133774857Y-61578806D01*
X133620193Y-61424142D01*
X133443260Y-61295595D01*
X133443259Y-61295594D01*
X133443257Y-61295593D01*
X133380825Y-61263782D01*
X133248383Y-61196298D01*
X133248380Y-61196297D01*
X133040376Y-61128714D01*
X132824361Y-61094500D01*
X132824356Y-61094500D01*
X130827644Y-61094500D01*
X130827639Y-61094500D01*
X130611623Y-61128714D01*
X130403619Y-61196297D01*
X130403616Y-61196298D01*
X130208739Y-61295595D01*
X130031806Y-61424142D01*
X129877142Y-61578806D01*
X129748595Y-61755739D01*
X129649298Y-61950616D01*
X129649297Y-61950619D01*
X129581714Y-62158623D01*
X129547500Y-62374638D01*
X117340500Y-62374638D01*
X117311760Y-62193188D01*
X117306286Y-62158625D01*
X117255877Y-62003480D01*
X117238702Y-61950619D01*
X117238701Y-61950616D01*
X117170005Y-61815795D01*
X117139407Y-61755743D01*
X117131147Y-61744374D01*
X117010857Y-61578806D01*
X116856193Y-61424142D01*
X116679260Y-61295595D01*
X116679259Y-61295594D01*
X116679257Y-61295593D01*
X116616825Y-61263782D01*
X116484383Y-61196298D01*
X116484380Y-61196297D01*
X116276376Y-61128714D01*
X116060361Y-61094500D01*
X116060356Y-61094500D01*
X114063644Y-61094500D01*
X114063639Y-61094500D01*
X113847623Y-61128714D01*
X113639619Y-61196297D01*
X113639616Y-61196298D01*
X113444739Y-61295595D01*
X113267806Y-61424142D01*
X113113142Y-61578806D01*
X112984595Y-61755739D01*
X112953995Y-61815795D01*
X112906020Y-61866591D01*
X112843510Y-61883500D01*
X94786386Y-61883500D01*
X94745465Y-61894464D01*
X94745465Y-61894465D01*
X94708197Y-61904451D01*
X94633660Y-61924423D01*
X94633655Y-61924426D01*
X94496736Y-62003475D01*
X94496728Y-62003481D01*
X89761445Y-66738765D01*
X89700122Y-66772250D01*
X89630430Y-66767266D01*
X89574497Y-66725394D01*
X89554536Y-66682893D01*
X89554290Y-66682974D01*
X89553652Y-66681012D01*
X89553188Y-66680023D01*
X89552783Y-66678339D01*
X89482231Y-66461201D01*
X89482229Y-66461198D01*
X89482229Y-66461196D01*
X89388019Y-66276299D01*
X89378579Y-66257772D01*
X89244379Y-66073063D01*
X89082937Y-65911621D01*
X88898228Y-65777421D01*
X88848841Y-65752257D01*
X88694803Y-65673770D01*
X88477660Y-65603215D01*
X88252162Y-65567500D01*
X88252157Y-65567500D01*
X88023843Y-65567500D01*
X88023838Y-65567500D01*
X87798339Y-65603215D01*
X87581196Y-65673770D01*
X87377771Y-65777421D01*
X87193061Y-65911622D01*
X87031622Y-66073061D01*
X86897421Y-66257771D01*
X86793770Y-66461196D01*
X86723215Y-66678339D01*
X86687500Y-66903837D01*
X86687500Y-67132162D01*
X86723215Y-67357660D01*
X86793770Y-67574803D01*
X86876669Y-67737500D01*
X86897421Y-67778228D01*
X87031621Y-67962937D01*
X87193063Y-68124379D01*
X87308443Y-68208208D01*
X87381714Y-68261443D01*
X87380850Y-68262631D01*
X87423329Y-68309581D01*
X87434754Y-68378510D01*
X87407099Y-68442674D01*
X87349145Y-68481700D01*
X87311666Y-68487500D01*
X85613719Y-68487500D01*
X85546680Y-68467815D01*
X85503235Y-68419795D01*
X85483052Y-68380185D01*
X85483051Y-68380184D01*
X85358109Y-68208213D01*
X85207786Y-68057890D01*
X85035820Y-67932951D01*
X84846414Y-67836444D01*
X84846413Y-67836443D01*
X84846412Y-67836443D01*
X84644243Y-67770754D01*
X84644241Y-67770753D01*
X84644240Y-67770753D01*
X84482957Y-67745208D01*
X84434287Y-67737500D01*
X84221713Y-67737500D01*
X84173042Y-67745208D01*
X84011760Y-67770753D01*
X83809585Y-67836444D01*
X83620179Y-67932951D01*
X83448213Y-68057890D01*
X83297890Y-68208213D01*
X83172951Y-68380179D01*
X83076444Y-68569585D01*
X83010753Y-68771760D01*
X82977500Y-68981713D01*
X69842500Y-68981713D01*
X69842500Y-67902290D01*
X69862185Y-67835251D01*
X69898760Y-67798428D01*
X80561979Y-60844155D01*
X159278000Y-60844155D01*
X159278000Y-61142000D01*
X160278000Y-61142000D01*
X160778000Y-61142000D01*
X161778000Y-61142000D01*
X161778000Y-60844172D01*
X161777999Y-60844155D01*
X161771598Y-60784627D01*
X161771596Y-60784620D01*
X161721354Y-60649913D01*
X161721350Y-60649906D01*
X161635190Y-60534812D01*
X161635187Y-60534809D01*
X161520093Y-60448649D01*
X161520086Y-60448645D01*
X161385379Y-60398403D01*
X161385372Y-60398401D01*
X161325844Y-60392000D01*
X160778000Y-60392000D01*
X160778000Y-61142000D01*
X160278000Y-61142000D01*
X160278000Y-60392000D01*
X159730155Y-60392000D01*
X159670627Y-60398401D01*
X159670620Y-60398403D01*
X159535913Y-60448645D01*
X159535906Y-60448649D01*
X159420812Y-60534809D01*
X159420809Y-60534812D01*
X159334649Y-60649906D01*
X159334645Y-60649913D01*
X159284403Y-60784620D01*
X159284401Y-60784627D01*
X159278000Y-60844155D01*
X80561979Y-60844155D01*
X80726303Y-60736987D01*
X81143908Y-60464636D01*
X81210814Y-60444503D01*
X81211645Y-60444500D01*
X110932108Y-60444500D01*
X144000641Y-60444500D01*
X144049079Y-60447862D01*
X144066327Y-60444500D01*
X144083892Y-60444500D01*
X144112172Y-60436921D01*
X144126627Y-60433049D01*
X144134986Y-60431116D01*
X144178429Y-60422649D01*
X144183455Y-60420194D01*
X144205775Y-60411841D01*
X144211186Y-60410392D01*
X144249509Y-60388264D01*
X144257071Y-60384241D01*
X155029931Y-55123077D01*
X155084347Y-55110500D01*
X170644069Y-55110500D01*
X170711108Y-55130185D01*
G37*
%TD.AperFunction*%
%TD*%
M02*
