%TF.GenerationSoftware,KiCad,Pcbnew,9.0.7*%
%TF.CreationDate,2026-01-29T16:33:12-08:00*%
%TF.ProjectId,Lab3,4c616233-2e6b-4696-9361-645f70636258,rev?*%
%TF.SameCoordinates,Original*%
%TF.FileFunction,Legend,Bot*%
%TF.FilePolarity,Positive*%
%FSLAX46Y46*%
G04 Gerber Fmt 4.6, Leading zero omitted, Abs format (unit mm)*
G04 Created by KiCad (PCBNEW 9.0.7) date 2026-01-29 16:33:12*
%MOMM*%
%LPD*%
G01*
G04 APERTURE LIST*
%ADD10C,0.150000*%
G04 APERTURE END LIST*
D10*
X120268386Y-77250057D02*
X120316005Y-77202438D01*
X120316005Y-77202438D02*
X120411243Y-77154819D01*
X120411243Y-77154819D02*
X120649338Y-77154819D01*
X120649338Y-77154819D02*
X120744576Y-77202438D01*
X120744576Y-77202438D02*
X120792195Y-77250057D01*
X120792195Y-77250057D02*
X120839814Y-77345295D01*
X120839814Y-77345295D02*
X120839814Y-77440533D01*
X120839814Y-77440533D02*
X120792195Y-77583390D01*
X120792195Y-77583390D02*
X120220767Y-78154819D01*
X120220767Y-78154819D02*
X120839814Y-78154819D01*
X120839814Y-77754819D02*
X120268386Y-77754819D01*
X120554100Y-77754819D02*
X120554100Y-76754819D01*
X120554100Y-76754819D02*
X120458862Y-76897676D01*
X120458862Y-76897676D02*
X120363624Y-76992914D01*
X120363624Y-76992914D02*
X120268386Y-77040533D01*
X119368990Y-76517328D02*
X119321371Y-76660185D01*
X119321371Y-76660185D02*
X119273752Y-76707804D01*
X119273752Y-76707804D02*
X119178514Y-76755423D01*
X119178514Y-76755423D02*
X119035657Y-76755423D01*
X119035657Y-76755423D02*
X118940419Y-76707804D01*
X118940419Y-76707804D02*
X118892800Y-76660185D01*
X118892800Y-76660185D02*
X118845180Y-76564947D01*
X118845180Y-76564947D02*
X118845180Y-76183995D01*
X118845180Y-76183995D02*
X119845180Y-76183995D01*
X119845180Y-76183995D02*
X119845180Y-76517328D01*
X119845180Y-76517328D02*
X119797561Y-76612566D01*
X119797561Y-76612566D02*
X119749942Y-76660185D01*
X119749942Y-76660185D02*
X119654704Y-76707804D01*
X119654704Y-76707804D02*
X119559466Y-76707804D01*
X119559466Y-76707804D02*
X119464228Y-76660185D01*
X119464228Y-76660185D02*
X119416609Y-76612566D01*
X119416609Y-76612566D02*
X119368990Y-76517328D01*
X119368990Y-76517328D02*
X119368990Y-76183995D01*
X119530895Y-76207805D02*
X119530895Y-76683995D01*
X119245180Y-76112567D02*
X120245180Y-76445900D01*
X120245180Y-76445900D02*
X119245180Y-76779233D01*
M02*
