%TF.GenerationSoftware,KiCad,Pcbnew,9.0.7*%
%TF.CreationDate,2026-01-29T16:33:12-08:00*%
%TF.ProjectId,Lab3,4c616233-2e6b-4696-9361-645f70636258,rev?*%
%TF.SameCoordinates,Original*%
%TF.FileFunction,Legend,Top*%
%TF.FilePolarity,Positive*%
%FSLAX46Y46*%
G04 Gerber Fmt 4.6, Leading zero omitted, Abs format (unit mm)*
G04 Created by KiCad (PCBNEW 9.0.7) date 2026-01-29 16:33:12*
%MOMM*%
%LPD*%
G01*
G04 APERTURE LIST*
%ADD10C,0.150000*%
%ADD11C,0.120000*%
%ADD12C,0.152400*%
G04 APERTURE END LIST*
D10*
X128884819Y-82166666D02*
X128408628Y-82499999D01*
X128884819Y-82738094D02*
X127884819Y-82738094D01*
X127884819Y-82738094D02*
X127884819Y-82357142D01*
X127884819Y-82357142D02*
X127932438Y-82261904D01*
X127932438Y-82261904D02*
X127980057Y-82214285D01*
X127980057Y-82214285D02*
X128075295Y-82166666D01*
X128075295Y-82166666D02*
X128218152Y-82166666D01*
X128218152Y-82166666D02*
X128313390Y-82214285D01*
X128313390Y-82214285D02*
X128361009Y-82261904D01*
X128361009Y-82261904D02*
X128408628Y-82357142D01*
X128408628Y-82357142D02*
X128408628Y-82738094D01*
X127884819Y-81261904D02*
X127884819Y-81738094D01*
X127884819Y-81738094D02*
X128361009Y-81785713D01*
X128361009Y-81785713D02*
X128313390Y-81738094D01*
X128313390Y-81738094D02*
X128265771Y-81642856D01*
X128265771Y-81642856D02*
X128265771Y-81404761D01*
X128265771Y-81404761D02*
X128313390Y-81309523D01*
X128313390Y-81309523D02*
X128361009Y-81261904D01*
X128361009Y-81261904D02*
X128456247Y-81214285D01*
X128456247Y-81214285D02*
X128694342Y-81214285D01*
X128694342Y-81214285D02*
X128789580Y-81261904D01*
X128789580Y-81261904D02*
X128837200Y-81309523D01*
X128837200Y-81309523D02*
X128884819Y-81404761D01*
X128884819Y-81404761D02*
X128884819Y-81642856D01*
X128884819Y-81642856D02*
X128837200Y-81738094D01*
X128837200Y-81738094D02*
X128789580Y-81785713D01*
X128789580Y-86666666D02*
X128837200Y-86714285D01*
X128837200Y-86714285D02*
X128884819Y-86857142D01*
X128884819Y-86857142D02*
X128884819Y-86952380D01*
X128884819Y-86952380D02*
X128837200Y-87095237D01*
X128837200Y-87095237D02*
X128741961Y-87190475D01*
X128741961Y-87190475D02*
X128646723Y-87238094D01*
X128646723Y-87238094D02*
X128456247Y-87285713D01*
X128456247Y-87285713D02*
X128313390Y-87285713D01*
X128313390Y-87285713D02*
X128122914Y-87238094D01*
X128122914Y-87238094D02*
X128027676Y-87190475D01*
X128027676Y-87190475D02*
X127932438Y-87095237D01*
X127932438Y-87095237D02*
X127884819Y-86952380D01*
X127884819Y-86952380D02*
X127884819Y-86857142D01*
X127884819Y-86857142D02*
X127932438Y-86714285D01*
X127932438Y-86714285D02*
X127980057Y-86666666D01*
X127884819Y-86333332D02*
X127884819Y-85714285D01*
X127884819Y-85714285D02*
X128265771Y-86047618D01*
X128265771Y-86047618D02*
X128265771Y-85904761D01*
X128265771Y-85904761D02*
X128313390Y-85809523D01*
X128313390Y-85809523D02*
X128361009Y-85761904D01*
X128361009Y-85761904D02*
X128456247Y-85714285D01*
X128456247Y-85714285D02*
X128694342Y-85714285D01*
X128694342Y-85714285D02*
X128789580Y-85761904D01*
X128789580Y-85761904D02*
X128837200Y-85809523D01*
X128837200Y-85809523D02*
X128884819Y-85904761D01*
X128884819Y-85904761D02*
X128884819Y-86190475D01*
X128884819Y-86190475D02*
X128837200Y-86285713D01*
X128837200Y-86285713D02*
X128789580Y-86333332D01*
X115344819Y-86833333D02*
X116059104Y-86833333D01*
X116059104Y-86833333D02*
X116201961Y-86880952D01*
X116201961Y-86880952D02*
X116297200Y-86976190D01*
X116297200Y-86976190D02*
X116344819Y-87119047D01*
X116344819Y-87119047D02*
X116344819Y-87214285D01*
X116344819Y-85833333D02*
X116344819Y-86404761D01*
X116344819Y-86119047D02*
X115344819Y-86119047D01*
X115344819Y-86119047D02*
X115487676Y-86214285D01*
X115487676Y-86214285D02*
X115582914Y-86309523D01*
X115582914Y-86309523D02*
X115630533Y-86404761D01*
X122929580Y-86666666D02*
X122977200Y-86714285D01*
X122977200Y-86714285D02*
X123024819Y-86857142D01*
X123024819Y-86857142D02*
X123024819Y-86952380D01*
X123024819Y-86952380D02*
X122977200Y-87095237D01*
X122977200Y-87095237D02*
X122881961Y-87190475D01*
X122881961Y-87190475D02*
X122786723Y-87238094D01*
X122786723Y-87238094D02*
X122596247Y-87285713D01*
X122596247Y-87285713D02*
X122453390Y-87285713D01*
X122453390Y-87285713D02*
X122262914Y-87238094D01*
X122262914Y-87238094D02*
X122167676Y-87190475D01*
X122167676Y-87190475D02*
X122072438Y-87095237D01*
X122072438Y-87095237D02*
X122024819Y-86952380D01*
X122024819Y-86952380D02*
X122024819Y-86857142D01*
X122024819Y-86857142D02*
X122072438Y-86714285D01*
X122072438Y-86714285D02*
X122120057Y-86666666D01*
X122120057Y-86285713D02*
X122072438Y-86238094D01*
X122072438Y-86238094D02*
X122024819Y-86142856D01*
X122024819Y-86142856D02*
X122024819Y-85904761D01*
X122024819Y-85904761D02*
X122072438Y-85809523D01*
X122072438Y-85809523D02*
X122120057Y-85761904D01*
X122120057Y-85761904D02*
X122215295Y-85714285D01*
X122215295Y-85714285D02*
X122310533Y-85714285D01*
X122310533Y-85714285D02*
X122453390Y-85761904D01*
X122453390Y-85761904D02*
X123024819Y-86333332D01*
X123024819Y-86333332D02*
X123024819Y-85714285D01*
X123024819Y-82166666D02*
X122548628Y-82499999D01*
X123024819Y-82738094D02*
X122024819Y-82738094D01*
X122024819Y-82738094D02*
X122024819Y-82357142D01*
X122024819Y-82357142D02*
X122072438Y-82261904D01*
X122072438Y-82261904D02*
X122120057Y-82214285D01*
X122120057Y-82214285D02*
X122215295Y-82166666D01*
X122215295Y-82166666D02*
X122358152Y-82166666D01*
X122358152Y-82166666D02*
X122453390Y-82214285D01*
X122453390Y-82214285D02*
X122501009Y-82261904D01*
X122501009Y-82261904D02*
X122548628Y-82357142D01*
X122548628Y-82357142D02*
X122548628Y-82738094D01*
X122358152Y-81309523D02*
X123024819Y-81309523D01*
X121977200Y-81547618D02*
X122691485Y-81785713D01*
X122691485Y-81785713D02*
X122691485Y-81166666D01*
X117524819Y-82166666D02*
X117048628Y-82499999D01*
X117524819Y-82738094D02*
X116524819Y-82738094D01*
X116524819Y-82738094D02*
X116524819Y-82357142D01*
X116524819Y-82357142D02*
X116572438Y-82261904D01*
X116572438Y-82261904D02*
X116620057Y-82214285D01*
X116620057Y-82214285D02*
X116715295Y-82166666D01*
X116715295Y-82166666D02*
X116858152Y-82166666D01*
X116858152Y-82166666D02*
X116953390Y-82214285D01*
X116953390Y-82214285D02*
X117001009Y-82261904D01*
X117001009Y-82261904D02*
X117048628Y-82357142D01*
X117048628Y-82357142D02*
X117048628Y-82738094D01*
X116524819Y-81833332D02*
X116524819Y-81214285D01*
X116524819Y-81214285D02*
X116905771Y-81547618D01*
X116905771Y-81547618D02*
X116905771Y-81404761D01*
X116905771Y-81404761D02*
X116953390Y-81309523D01*
X116953390Y-81309523D02*
X117001009Y-81261904D01*
X117001009Y-81261904D02*
X117096247Y-81214285D01*
X117096247Y-81214285D02*
X117334342Y-81214285D01*
X117334342Y-81214285D02*
X117429580Y-81261904D01*
X117429580Y-81261904D02*
X117477200Y-81309523D01*
X117477200Y-81309523D02*
X117524819Y-81404761D01*
X117524819Y-81404761D02*
X117524819Y-81690475D01*
X117524819Y-81690475D02*
X117477200Y-81785713D01*
X117477200Y-81785713D02*
X117429580Y-81833332D01*
X119524819Y-82166666D02*
X119048628Y-82499999D01*
X119524819Y-82738094D02*
X118524819Y-82738094D01*
X118524819Y-82738094D02*
X118524819Y-82357142D01*
X118524819Y-82357142D02*
X118572438Y-82261904D01*
X118572438Y-82261904D02*
X118620057Y-82214285D01*
X118620057Y-82214285D02*
X118715295Y-82166666D01*
X118715295Y-82166666D02*
X118858152Y-82166666D01*
X118858152Y-82166666D02*
X118953390Y-82214285D01*
X118953390Y-82214285D02*
X119001009Y-82261904D01*
X119001009Y-82261904D02*
X119048628Y-82357142D01*
X119048628Y-82357142D02*
X119048628Y-82738094D01*
X118620057Y-81785713D02*
X118572438Y-81738094D01*
X118572438Y-81738094D02*
X118524819Y-81642856D01*
X118524819Y-81642856D02*
X118524819Y-81404761D01*
X118524819Y-81404761D02*
X118572438Y-81309523D01*
X118572438Y-81309523D02*
X118620057Y-81261904D01*
X118620057Y-81261904D02*
X118715295Y-81214285D01*
X118715295Y-81214285D02*
X118810533Y-81214285D01*
X118810533Y-81214285D02*
X118953390Y-81261904D01*
X118953390Y-81261904D02*
X119524819Y-81833332D01*
X119524819Y-81833332D02*
X119524819Y-81214285D01*
X116884819Y-78166666D02*
X116408628Y-78499999D01*
X116884819Y-78738094D02*
X115884819Y-78738094D01*
X115884819Y-78738094D02*
X115884819Y-78357142D01*
X115884819Y-78357142D02*
X115932438Y-78261904D01*
X115932438Y-78261904D02*
X115980057Y-78214285D01*
X115980057Y-78214285D02*
X116075295Y-78166666D01*
X116075295Y-78166666D02*
X116218152Y-78166666D01*
X116218152Y-78166666D02*
X116313390Y-78214285D01*
X116313390Y-78214285D02*
X116361009Y-78261904D01*
X116361009Y-78261904D02*
X116408628Y-78357142D01*
X116408628Y-78357142D02*
X116408628Y-78738094D01*
X116884819Y-77214285D02*
X116884819Y-77785713D01*
X116884819Y-77499999D02*
X115884819Y-77499999D01*
X115884819Y-77499999D02*
X116027676Y-77595237D01*
X116027676Y-77595237D02*
X116122914Y-77690475D01*
X116122914Y-77690475D02*
X116170533Y-77785713D01*
X125789580Y-78166666D02*
X125837200Y-78214285D01*
X125837200Y-78214285D02*
X125884819Y-78357142D01*
X125884819Y-78357142D02*
X125884819Y-78452380D01*
X125884819Y-78452380D02*
X125837200Y-78595237D01*
X125837200Y-78595237D02*
X125741961Y-78690475D01*
X125741961Y-78690475D02*
X125646723Y-78738094D01*
X125646723Y-78738094D02*
X125456247Y-78785713D01*
X125456247Y-78785713D02*
X125313390Y-78785713D01*
X125313390Y-78785713D02*
X125122914Y-78738094D01*
X125122914Y-78738094D02*
X125027676Y-78690475D01*
X125027676Y-78690475D02*
X124932438Y-78595237D01*
X124932438Y-78595237D02*
X124884819Y-78452380D01*
X124884819Y-78452380D02*
X124884819Y-78357142D01*
X124884819Y-78357142D02*
X124932438Y-78214285D01*
X124932438Y-78214285D02*
X124980057Y-78166666D01*
X125884819Y-77214285D02*
X125884819Y-77785713D01*
X125884819Y-77499999D02*
X124884819Y-77499999D01*
X124884819Y-77499999D02*
X125027676Y-77595237D01*
X125027676Y-77595237D02*
X125122914Y-77690475D01*
X125122914Y-77690475D02*
X125170533Y-77785713D01*
X120045180Y-76738095D02*
X119235657Y-76738095D01*
X119235657Y-76738095D02*
X119140419Y-76785714D01*
X119140419Y-76785714D02*
X119092800Y-76833333D01*
X119092800Y-76833333D02*
X119045180Y-76928571D01*
X119045180Y-76928571D02*
X119045180Y-77119047D01*
X119045180Y-77119047D02*
X119092800Y-77214285D01*
X119092800Y-77214285D02*
X119140419Y-77261904D01*
X119140419Y-77261904D02*
X119235657Y-77309523D01*
X119235657Y-77309523D02*
X120045180Y-77309523D01*
X119949942Y-77738095D02*
X119997561Y-77785714D01*
X119997561Y-77785714D02*
X120045180Y-77880952D01*
X120045180Y-77880952D02*
X120045180Y-78119047D01*
X120045180Y-78119047D02*
X119997561Y-78214285D01*
X119997561Y-78214285D02*
X119949942Y-78261904D01*
X119949942Y-78261904D02*
X119854704Y-78309523D01*
X119854704Y-78309523D02*
X119759466Y-78309523D01*
X119759466Y-78309523D02*
X119616609Y-78261904D01*
X119616609Y-78261904D02*
X119045180Y-77690476D01*
X119045180Y-77690476D02*
X119045180Y-78309523D01*
X120268386Y-77250057D02*
X120316005Y-77202438D01*
X120316005Y-77202438D02*
X120411243Y-77154819D01*
X120411243Y-77154819D02*
X120649338Y-77154819D01*
X120649338Y-77154819D02*
X120744576Y-77202438D01*
X120744576Y-77202438D02*
X120792195Y-77250057D01*
X120792195Y-77250057D02*
X120839814Y-77345295D01*
X120839814Y-77345295D02*
X120839814Y-77440533D01*
X120839814Y-77440533D02*
X120792195Y-77583390D01*
X120792195Y-77583390D02*
X120220767Y-78154819D01*
X120220767Y-78154819D02*
X120839814Y-78154819D01*
X120839814Y-77754819D02*
X120268386Y-77754819D01*
X120554100Y-77754819D02*
X120554100Y-76754819D01*
X120554100Y-76754819D02*
X120458862Y-76897676D01*
X120458862Y-76897676D02*
X120363624Y-76992914D01*
X120363624Y-76992914D02*
X120268386Y-77040533D01*
X119368990Y-76517328D02*
X119321371Y-76660185D01*
X119321371Y-76660185D02*
X119273752Y-76707804D01*
X119273752Y-76707804D02*
X119178514Y-76755423D01*
X119178514Y-76755423D02*
X119035657Y-76755423D01*
X119035657Y-76755423D02*
X118940419Y-76707804D01*
X118940419Y-76707804D02*
X118892800Y-76660185D01*
X118892800Y-76660185D02*
X118845180Y-76564947D01*
X118845180Y-76564947D02*
X118845180Y-76183995D01*
X118845180Y-76183995D02*
X119845180Y-76183995D01*
X119845180Y-76183995D02*
X119845180Y-76517328D01*
X119845180Y-76517328D02*
X119797561Y-76612566D01*
X119797561Y-76612566D02*
X119749942Y-76660185D01*
X119749942Y-76660185D02*
X119654704Y-76707804D01*
X119654704Y-76707804D02*
X119559466Y-76707804D01*
X119559466Y-76707804D02*
X119464228Y-76660185D01*
X119464228Y-76660185D02*
X119416609Y-76612566D01*
X119416609Y-76612566D02*
X119368990Y-76517328D01*
X119368990Y-76517328D02*
X119368990Y-76183995D01*
X119530895Y-76207805D02*
X119530895Y-76683995D01*
X119245180Y-76112567D02*
X120245180Y-76445900D01*
X120245180Y-76445900D02*
X119245180Y-76779233D01*
X114024819Y-82738094D02*
X113024819Y-82738094D01*
X113024819Y-82738094D02*
X113024819Y-82499999D01*
X113024819Y-82499999D02*
X113072438Y-82357142D01*
X113072438Y-82357142D02*
X113167676Y-82261904D01*
X113167676Y-82261904D02*
X113262914Y-82214285D01*
X113262914Y-82214285D02*
X113453390Y-82166666D01*
X113453390Y-82166666D02*
X113596247Y-82166666D01*
X113596247Y-82166666D02*
X113786723Y-82214285D01*
X113786723Y-82214285D02*
X113881961Y-82261904D01*
X113881961Y-82261904D02*
X113977200Y-82357142D01*
X113977200Y-82357142D02*
X114024819Y-82499999D01*
X114024819Y-82499999D02*
X114024819Y-82738094D01*
X114024819Y-81214285D02*
X114024819Y-81785713D01*
X114024819Y-81499999D02*
X113024819Y-81499999D01*
X113024819Y-81499999D02*
X113167676Y-81595237D01*
X113167676Y-81595237D02*
X113262914Y-81690475D01*
X113262914Y-81690475D02*
X113310533Y-81785713D01*
X134045180Y-82738095D02*
X133235657Y-82738095D01*
X133235657Y-82738095D02*
X133140419Y-82785714D01*
X133140419Y-82785714D02*
X133092800Y-82833333D01*
X133092800Y-82833333D02*
X133045180Y-82928571D01*
X133045180Y-82928571D02*
X133045180Y-83119047D01*
X133045180Y-83119047D02*
X133092800Y-83214285D01*
X133092800Y-83214285D02*
X133140419Y-83261904D01*
X133140419Y-83261904D02*
X133235657Y-83309523D01*
X133235657Y-83309523D02*
X134045180Y-83309523D01*
X133045180Y-84309523D02*
X133045180Y-83738095D01*
X133045180Y-84023809D02*
X134045180Y-84023809D01*
X134045180Y-84023809D02*
X133902323Y-83928571D01*
X133902323Y-83928571D02*
X133807085Y-83833333D01*
X133807085Y-83833333D02*
X133759466Y-83738095D01*
D11*
%TO.C,R5*%
X127522500Y-81745276D02*
X127522500Y-82254724D01*
X126477500Y-81745276D02*
X126477500Y-82254724D01*
%TO.C,C3*%
X126490000Y-86353733D02*
X126490000Y-86646267D01*
X127510000Y-86353733D02*
X127510000Y-86646267D01*
%TO.C,J1*%
X118235000Y-85755000D02*
X121110000Y-85755000D01*
X118235000Y-85814435D02*
X118235000Y-85755000D01*
X121110000Y-86089970D02*
X121110000Y-85755000D01*
X121110000Y-87245000D02*
X121110000Y-86910030D01*
X118235000Y-87245000D02*
X118235000Y-87185565D01*
X118235000Y-87245000D02*
X121110000Y-87245000D01*
X117500000Y-87245000D02*
X116765000Y-87245000D01*
X116765000Y-87245000D02*
X116765000Y-86500000D01*
%TO.C,C2*%
X124510000Y-86646267D02*
X124510000Y-86353733D01*
X123490000Y-86646267D02*
X123490000Y-86353733D01*
%TO.C,R4*%
X123477500Y-82254724D02*
X123477500Y-81745276D01*
X124522500Y-82254724D02*
X124522500Y-81745276D01*
%TO.C,R3*%
X117977500Y-82254724D02*
X117977500Y-81745276D01*
X119022500Y-82254724D02*
X119022500Y-81745276D01*
%TO.C,R2*%
X119977500Y-82254724D02*
X119977500Y-81745276D01*
X121022500Y-82254724D02*
X121022500Y-81745276D01*
%TO.C,R1*%
X115522500Y-77745276D02*
X115522500Y-78254724D01*
X114477500Y-77745276D02*
X114477500Y-78254724D01*
%TO.C,C1*%
X124510000Y-77853733D02*
X124510000Y-78146267D01*
X123490000Y-77853733D02*
X123490000Y-78146267D01*
%TO.C,D1*%
X114265000Y-81200000D02*
X114265000Y-83660000D01*
X115735000Y-83660000D02*
X115735000Y-81200000D01*
X114265000Y-83660000D02*
X115735000Y-83660000D01*
D12*
%TO.C,U1*%
X129982100Y-78889900D02*
G75*
G02*
X129728100Y-78889900I-127000J0D01*
G01*
X129728100Y-78889900D02*
G75*
G02*
X129982100Y-78889900I127000J0D01*
G01*
X131531500Y-80032900D02*
X131531500Y-86967100D01*
X131531500Y-86967100D02*
X135468500Y-86967100D01*
X135468500Y-86967100D02*
X135468500Y-80032900D01*
X135468500Y-80032900D02*
X131531500Y-80032900D01*
%TD*%
M02*
